<?xml version="1.0" encoding="UTF-8"?><svg id="_层_2" xmlns="http://www.w3.org/2000/svg" viewBox="0 0 62.19 62.19"><defs><style>.cls-1{fill:#666;}</style></defs><g id="_层_1-2"><g><path class="cls-1" d="M62.19,31.1C62.19,13.95,48.24,0,31.1,0c-5.38,0-10.61,1.39-15.26,4.01h-3.8V0H6.02V12.73C2.09,18.08,0,24.42,0,31.1c0,17.15,13.95,31.1,31.1,31.1,3.82,0,7.55-.69,11.09-2.04,2.02,1.28,4.41,2.04,6.97,2.04,3.13,0,6.15-1.12,8.52-3.17l-1.31-1.52c-2,1.73-4.56,2.68-7.21,2.68-6.08,0-11.03-4.95-11.03-11.03s4.95-11.03,11.03-11.03,11.03,4.95,11.03,11.03c0,2.54-.84,4.93-2.43,6.91l1.56,1.26c1.85-2.31,2.88-5.21,2.88-8.17,0-2.57-.76-4.95-2.04-6.97,1.35-3.54,2.04-7.26,2.04-11.08ZM16.05,10.03h2.01v14.04h-2.01V10.03Zm-4.01-4.01h2.01V24.08h-2.01V6.02ZM8.03,2.01h2.01V24.08h-2.01V2.01ZM30.09,60.16c-15.24-.52-27.54-12.82-28.06-28.06H30.09v28.06Zm0-30.07H2.05c.16-4.88,1.52-9.55,3.97-13.71v9.7H28.09v-10.03h-4.01v-4.01h-4.01v-4.01h-4.01v-1.81c4.24-2.57,9.07-4,14.04-4.17V30.09Zm-10.03-6.02V14.04h2.01v10.03h-2.01Zm4.01,0v-6.02h2.01v6.02h-2.01Zm36.09,6.02h-8.59l7.38-7.38c.71,2.35,1.12,4.82,1.21,7.38Zm-5.05-15.4l-11.2,11.2,1.42,1.42,10.88-10.88c.78,1.33,1.45,2.72,2.02,4.17l-9.49,9.49h-6.19l1.3-1.3-1.42-1.42-2.72,2.72h-6.19L52.35,11.26c1,1.07,1.93,2.22,2.76,3.43ZM32.1,2.03c2.56,.09,5.03,.5,7.38,1.21l-7.38,7.38V2.03Zm0,20.45l12.19-12.19-1.42-1.42-10.77,10.77v-6.19L41.59,3.97c1.45,.56,2.85,1.24,4.17,2.02l-1.62,1.62,1.42,1.42,1.94-1.94c1.21,.83,2.36,1.76,3.43,2.76l-18.83,18.83v-6.19Zm17.05,13.63c-7.19,0-13.04,5.85-13.04,13.04,0,3.77,1.62,7.17,4.19,9.55-2.64,.88-5.39,1.37-8.2,1.46v-28.06h28.06c-.09,2.81-.58,5.56-1.47,8.2-2.38-2.57-5.78-4.19-9.55-4.19Z"/><rect class="cls-1" x="10.55" y="42.13" width="17.02" height="2.01" transform="translate(-24.92 26.12) rotate(-45)"/><path class="cls-1" d="M23.07,44.14c-1.66,0-3.01,1.35-3.01,3.01s1.35,3.01,3.01,3.01,3.01-1.35,3.01-3.01-1.35-3.01-3.01-3.01Zm0,4.01c-.55,0-1-.45-1-1s.45-1,1-1,1,.45,1,1-.45,1-1,1Z"/><path class="cls-1" d="M15.05,42.13c1.66,0,3.01-1.35,3.01-3.01s-1.35-3.01-3.01-3.01-3.01,1.35-3.01,3.01,1.35,3.01,3.01,3.01Zm0-4.01c.55,0,1,.45,1,1s-.45,1-1,1-1-.45-1-1,.45-1,1-1Z"/><path class="cls-1" d="M49.15,44.14c1.11,0,2.01,.9,2.01,2.01h2.01c0-1.86-1.28-3.42-3.01-3.87v-2.15h-2.01v2.15c-1.73,.45-3.01,2.01-3.01,3.87,0,2.21,1.8,4.01,4.01,4.01,1.11,0,2.01,.9,2.01,2.01s-.9,2.01-2.01,2.01-2.01-.9-2.01-2.01h-2.01c0,1.86,1.28,3.42,3.01,3.87v2.15h2.01v-2.15c1.73-.45,3.01-2.01,3.01-3.87,0-2.21-1.8-4.01-4.01-4.01-1.11,0-2.01-.9-2.01-2.01s.9-2.01,2.01-2.01Z"/><rect class="cls-1" x="56.18" y="48.15" width="2.01" height="2.01"/><rect class="cls-1" x="40.13" y="48.15" width="2.01" height="2.01"/></g></g></svg>