<?xml version="1.0" encoding="UTF-8"?><svg id="_层_2" xmlns="http://www.w3.org/2000/svg" viewBox="0 0 59.76 55.78"><defs><style>.cls-1{fill:#c41a24;}</style></defs><g id="_层_1-2"><g><path class="cls-1" d="M31.87,48.39v-15.52c0-5.32-4.18-9.69-9.49-9.95l.34-.85c.78-1.95,1.18-4.03,1.18-6.13,0-.55-.45-1-1-1H10.96c-.55,0-1,.45-1,1h0c0,2.1,.4,4.18,1.18,6.13l.34,.85c-5.31,.26-9.48,4.63-9.49,9.95v14.53c0,.64-.25,1.25-.7,1.7C.46,49.92,0,51.04,0,52.2v2.58c0,.55,.45,1,1,1h31.87c.55,0,1-.45,1-1h0v-2.58c0-1.17-.46-2.29-1.29-3.11l-.7-.7Zm-9.99-31.46c-.1,1.51-.44,2.99-1,4.4l-.63,1.58h-6.62l-.63-1.58c-.56-1.4-.9-2.89-1-4.4h9.89Zm9.99,36.85H1.99v-1.58c0-.64,.25-1.25,.7-1.7,.83-.82,1.29-1.94,1.29-3.11v-14.53c0-4.4,3.57-7.96,7.97-7.97h9.96c4.4,0,7.96,3.57,7.97,7.97v14.94h-3.98v1.99h4.57l.7,.7c.45,.45,.71,1.06,.7,1.7v1.58Z"/><path class="cls-1" d="M17.37,38.84h-1.99c-.83,0-1.49-.67-1.49-1.49s.67-1.49,1.49-1.49h3.98v-1.99h-1.99v-1.99h-1.99v1.99c-1.93,0-3.49,1.56-3.49,3.49s1.56,3.49,3.49,3.49h1.99c.83,0,1.49,.67,1.49,1.49s-.67,1.49-1.49,1.49h-4.98v1.99h2.99v1.59h1.99v-1.59c1.93,0,3.49-1.56,3.49-3.49s-1.56-3.49-3.49-3.49Z"/><path class="cls-1" d="M58.76,29.88h-3.98v-9.96h1.99c.55,0,1-.45,1-1h0V6.97c0-.55-.45-1-1-1h0c.65-.86,1-1.91,1-2.99V1c0-.55-.45-1-1-1h-7.97c-.55,0-1,.45-1,1h0v1.99c0,1.65-1.34,2.99-2.99,2.99h-15.94c-.55,0-1,.45-1,1h0v10.96h-1.99c-.55,0-1,.45-1,1h0v2.99h1.99v-1.99h7.97v1.99h-5.98v1.99h5.98v1.99h-2.99v1.99h2.99v1.99h-1v1.99h5.98v1.99h-3.98v1.99h3.98v1.99h-3.98v1.99h3.98v1.99h-6.97v1.99h4.98v1.99h-1.99v1.99h1.99v1.99h-1.99v1.99h1.99v1.99h-2.99v1.99h21.91c.55,0,1-.45,1-1h0v-10.96h1c.55,0,1-.45,1-1h0v-11.95c0-.55-.45-1-1-1ZM49.8,2.99v-1h5.98v1c0,1.65-1.34,2.99-2.99,2.99h-3.99c.65-.86,1-1.91,1-2.99Zm-1.99,4.98h7.97v1.99h-7.97v-1.99Zm0,3.98h7.97v1.99h-7.97v-1.99Zm0,3.98h7.97v1.99h-7.97v-1.99Zm4.98,3.98v1.99h-7.97v-1.99h7.97Zm-7.97,9.96v-1.99h7.97v1.99h-7.97Zm2.99,1.99v9.96h-5.98v-9.96h5.98Zm-2.99-5.98v-1.99h7.97v1.99h-7.97Zm-4.98-17.93h5.98v9.96h-5.98V7.97Zm-9.96,9.96V7.97h7.97v1.99h-5.98v1.99h5.98v1.99h-5.98v1.99h5.98v1.99h-7.97Zm6.97,11.95v-9.96h5.98v9.96h-5.98Zm8.96,23.9h-5.98v-9.96h5.98v9.96Zm9.96,0h-7.97v-1.99h7.97v1.99Zm0-3.98h-7.97v-1.99h7.97v1.99Zm0-3.98h-7.97v-1.99h7.97v1.99Zm1.99-3.98h-7.97v-1.99h7.97v1.99Zm0-3.98h-7.97v-1.99h7.97v1.99Zm0-3.98h-7.97v-1.99h7.97v1.99Z"/></g></g></svg>