<?xml version="1.0" encoding="UTF-8"?><svg id="_层_2" xmlns="http://www.w3.org/2000/svg" viewBox="0 0 63.09 61.12"><defs><style>.cls-1{fill:#943327;}</style></defs><g id="_层_1-2"><g><path class="cls-1" d="M52.44,51.99h-5.22c-1.08,0-1.96,.88-1.96,1.96v5.01h-2.18v-11.97c0-1.08-.88-1.96-1.96-1.96h-5.22c-1.08,0-1.96,.88-1.96,1.96v11.97h-2.18v-22.41c0-1.08-.88-1.96-1.96-1.96h-5.22c-1.08,0-1.96,.88-1.96,1.96v22.41h-2.18V24.35c0-1.08-.88-1.96-1.96-1.96h-5.22c-1.08,0-1.96,.88-1.96,1.96V58.95h-2.18V13.91c0-1.08-.88-1.96-1.96-1.96H1.96c-1.08,0-1.96,.88-1.96,1.96v3.7H2.17v-3.48H6.96V58.95H2.17V22.39H0V61.12H54.39v-7.18c0-1.08-.88-1.96-1.96-1.96Zm-34.16,6.96h-4.79V24.57h4.79V58.95Zm11.31,0h-4.79v-22.2h4.79v22.2Zm11.31,0h-4.79v-11.75h4.79v11.75Zm11.31,0h-4.79v-4.79h4.79v4.79Z"/><rect class="cls-1" y="18.91" width="2.17" height="2.17"/><rect class="cls-1" x="52.23" y="48.14" width="2.17" height="2.89" transform="translate(-19.45 52.21) rotate(-44.99)"/><path class="cls-1" d="M6.52,9.01l8.53,9.96c.21,.24,.51,.38,.82,.38h2.13l17.08,18.79c.21,.23,.5,.35,.8,.35h4.77l9.41,9.41,1.54-1.54-9.73-9.73c-.2-.2-.48-.32-.77-.32h-4.74L19.3,17.53c-.21-.23-.5-.35-.8-.35h-2.11L7.8,7.16h2.21v-2.17H5.44c-.6,0-1.09,.49-1.09,1.09v4.57h2.17v-1.63Z"/><path class="cls-1" d="M62.33,32.75l-7.51-7.51c-.49-.49-1.14-.76-1.84-.76h0c-.58,0-1.14,.19-1.6,.55l-.67-.67c5.05-5.83,4.74-14.6-.74-20.06-2.78-2.77-6.47-4.29-10.4-4.29h-.02c-3.94,0-7.63,1.54-10.41,4.32-5.57,5.55-5.81,14.47-.53,20.31,5.36,5.93,14.55,6.48,20.57,1.26l.67,.67c-.35,.45-.55,1.01-.55,1.6,0,.69,.27,1.35,.76,1.84l7.51,7.51c.49,.49,1.14,.76,1.84,.76s1.35-.27,1.84-.76l1.07-1.07c1.01-1.01,1.01-2.66,0-3.68Zm-13.87-9.12c-2.37,2.37-5.53,3.68-8.89,3.68-3.36,0-6.51-1.31-8.89-3.68-4.89-4.9-4.89-12.88,0-17.78h0c4.9-4.9,12.88-4.9,17.78,0,4.9,4.9,4.9,12.88,0,17.78Zm12.34,11.26l-1.07,1.07c-.17,.17-.45,.17-.61,0l-7.51-7.51c-.17-.17-.17-.44,0-.61l1.07-1.07c.09-.08,.2-.13,.31-.13s.22,.04,.3,.12l7.51,7.51c.17,.17,.17,.44,0,.61Z"/><path class="cls-1" d="M33.4,8l.23-.23-1.53-1.53-.23,.23c-4.55,4.56-4.55,11.99,0,16.55l.23,.23,1.53-1.53-.23-.23c-3.71-3.72-3.71-9.77,0-13.49Z"/></g></g></svg>