<?xml version="1.0" encoding="UTF-8"?><svg id="_层_2" xmlns="http://www.w3.org/2000/svg" viewBox="0 0 71.11 71.11"><defs><style>.cls-1{fill:#666;}</style></defs><g id="_层_1-2"><g><path class="cls-1" d="M71.11,35.56C71.11,15.95,55.16,0,35.56,0S0,15.95,0,35.56s15.95,35.55,35.55,35.56h0c19.6,0,35.55-15.95,35.55-35.56ZM2.25,36.67H7.78v6.6c0,2.49,2.03,4.51,4.52,4.51h5.52c.36,1.85,.79,3.64,1.31,5.35-3.27,.82-6.48,1.89-9.61,3.2-4.34-5.43-7.02-12.24-7.26-19.66ZM9.51,14.78c3.13,1.31,6.33,2.38,9.59,3.2-.51,1.69-.94,3.48-1.3,5.36h-5.51c-2.49,0-4.52,2.03-4.52,4.51v6.6H2.25c.24-7.42,2.92-14.23,7.26-19.66Zm59.35,19.66h-5.53v-6.6c0-2.49-2.03-4.51-4.51-4.51h-5.52c-.36-1.85-.79-3.64-1.31-5.35,3.27-.82,6.48-1.88,9.61-3.2,4.34,5.43,7.01,12.24,7.26,19.66Zm-33.31,11.11H12.29c-1.27,0-2.3-1.03-2.3-2.29v-15.41c0-1.27,1.03-2.29,2.3-2.29H58.82c1.27,0,2.29,1.03,2.29,2.29v15.41c0,1.27-1.03,2.29-2.29,2.29h-23.26Zm15.48-22.22h-14.37v-3.36c4.47-.07,8.87-.56,13.16-1.48,.47,1.55,.87,3.17,1.21,4.85ZM34.45,2.31v15.44c-4.24-.07-8.41-.53-12.48-1.39,2.87-8.11,7.44-13.38,12.48-14.05Zm0,17.66v3.36h-14.37c.34-1.7,.74-3.32,1.2-4.85,4.3,.92,8.7,1.42,13.17,1.49Zm-14.37,27.81h14.37v3.36c-4.47,.07-8.87,.56-13.16,1.49-.47-1.55-.87-3.17-1.21-4.85Zm16.59,21.03v-15.44c4.24,.07,8.41,.53,12.48,1.39-2.87,8.11-7.44,13.38-12.48,14.06Zm0-17.66v-3.36h14.37c-.34,1.7-.74,3.32-1.2,4.85-4.3-.92-8.7-1.42-13.17-1.49Zm16.64-3.36h5.51c2.49,0,4.51-2.03,4.51-4.51v-6.6h5.53c-.24,7.42-2.92,14.23-7.26,19.66-3.13-1.31-6.33-2.38-9.6-3.19,.51-1.69,.94-3.48,1.3-5.35Zm6.77-34.77c-2.86,1.16-5.79,2.12-8.78,2.86-.18-.5-.35-1-.54-1.49-.22-.57-.87-.86-1.44-.63-.57,.22-.85,.87-.63,1.44,.15,.38,.28,.79,.42,1.18-4.07,.86-8.23,1.31-12.46,1.38V2.3c3.74,.51,7.31,3.57,10.14,8.77,.29,.54,.97,.74,1.51,.44s.74-.97,.44-1.51c-1.57-2.88-3.37-5.18-5.33-6.85,6.5,1.58,12.27,5.07,16.66,9.84ZM27.74,3.15c-3.22,2.73-5.98,7.12-7.94,12.71-2.98-.74-5.9-1.7-8.76-2.86C15.44,8.22,21.22,4.73,27.74,3.15ZM11.03,58.11c2.86-1.16,5.79-2.12,8.77-2.86,.17,.49,.34,.98,.52,1.45,.17,.44,.59,.71,1.03,.71,.13,0,.27-.02,.4-.08,.57-.22,.85-.87,.63-1.44-.15-.37-.27-.76-.41-1.15,4.07-.86,8.23-1.31,12.46-1.38v15.45c-3.74-.51-7.3-3.57-10.14-8.76-.29-.54-.97-.74-1.51-.44-.54,.29-.74,.97-.44,1.51,1.57,2.88,3.37,5.17,5.33,6.84-6.5-1.58-12.26-5.07-16.66-9.84Zm32.34,9.85c3.22-2.73,5.98-7.12,7.95-12.71,2.98,.74,5.9,1.7,8.76,2.86-4.4,4.78-10.19,8.28-16.71,9.85Z"/><path class="cls-1" d="M32.85,32.22c.61,0,1.11-.5,1.11-1.11s-.5-1.11-1.11-1.11h-6.67c-.61,0-1.11,.5-1.11,1.11v8.89c0,.61,.5,1.11,1.11,1.11h6.67c.61,0,1.11-.5,1.11-1.11s-.5-1.11-1.11-1.11h-5.56v-2.22h4.72c.61,0,1.11-.5,1.11-1.11s-.5-1.11-1.11-1.11h-4.72v-2.22h5.56Z"/><path class="cls-1" d="M22.01,30c-.61,0-1.11,.5-1.11,1.11v5.56l-4.67-6.23c-.29-.38-.79-.54-1.24-.39-.45,.15-.76,.58-.76,1.05v8.89c0,.61,.5,1.11,1.11,1.11s1.11-.5,1.11-1.11v-5.56l4.67,6.23c.21,.28,.55,.44,.89,.44,.12,0,.24-.02,.35-.06,.45-.15,.76-.58,.76-1.05v-8.89c0-.61-.5-1.11-1.11-1.11Z"/><path class="cls-1" d="M46.72,30.04c-.59-.17-1.2,.18-1.37,.77l-1.43,5.09-1.43-5.09c-.13-.48-.57-.81-1.07-.81s-.93,.33-1.07,.81l-1.43,5.09-1.43-5.09c-.17-.59-.78-.93-1.37-.77-.59,.17-.93,.78-.77,1.37l2.5,8.89c.13,.48,.57,.81,1.07,.81s.93-.33,1.07-.81l1.43-5.09,1.43,5.09c.13,.48,.57,.81,1.07,.81s.93-.33,1.07-.81l2.5-8.89c.17-.59-.18-1.2-.77-1.37Z"/><path class="cls-1" d="M53.13,32.22c1.44,0,2.22,.63,2.22,.83,0,.61,.5,1.11,1.11,1.11s1.11-.5,1.11-1.11c0-1.74-1.91-3.05-4.44-3.05s-4.44,1.31-4.44,3.05c0,2.42,2.5,3.11,4.15,3.57,2.11,.59,2.52,.97,2.52,1.43,0,.21-.79,.83-2.22,.83s-2.22-.63-2.22-.83c0-.61-.5-1.11-1.11-1.11s-1.11,.5-1.11,1.11c0,1.74,1.91,3.05,4.44,3.05s4.44-1.31,4.44-3.05c0-2.42-2.5-3.11-4.15-3.57-2.11-.58-2.52-.97-2.52-1.43,0-.21,.79-.83,2.22-.83Z"/></g></g></svg>