<?xml version="1.0" encoding="UTF-8"?><svg id="_层_2" xmlns="http://www.w3.org/2000/svg" viewBox="0 0 44.95 44.96"><defs><style>.cls-1{fill:#a8291f;}</style></defs><g id="_层_1-2"><g><path class="cls-1" d="M22.55,15.69c.62,0,1.12-.5,1.12-1.12s-.5-1.12-1.12-1.12c-4.95,0-8.96,4.01-8.96,8.96s4.01,8.96,8.96,8.96,8.96-4.01,8.96-8.96c0-.62-.5-1.12-1.12-1.12s-1.12,.5-1.12,1.12c0,3.71-3.01,6.72-6.72,6.72s-6.72-3.01-6.72-6.72,3.01-6.72,6.72-6.72Z"/><path class="cls-1" d="M43.92,15.75c-.19-.59-.83-.91-1.42-.71-.57,.19-.89,.8-.72,1.38,3.35,10.67-2.58,22.03-13.25,25.38-10.66,3.35-22.03-2.58-25.38-13.25C-.19,17.89,5.74,6.52,16.41,3.18c3.95-1.24,8.18-1.24,12.13,0,.59,.18,1.22-.16,1.4-.75,.18-.58-.15-1.2-.73-1.39C17.36-2.68,4.75,3.91,1.04,15.75c-3.72,11.84,2.87,24.46,14.72,28.17,11.84,3.72,24.46-2.87,28.17-14.72,1.37-4.38,1.37-9.07,0-13.45Z"/><path class="cls-1" d="M24.69,8c0-.64-.48-1.17-1.12-1.22-.33-.03-.67-.06-1.01-.06-8.66,0-15.68,7.02-15.68,15.68s7.02,15.68,15.68,15.68,15.68-7.02,15.68-15.68c0-.41-.02-.81-.07-1.21-.09-.61-.66-1.04-1.27-.95-.61,.09-1.04,.66-.95,1.27,0,.02,0,.05,.01,.07,.02,.27,.05,.54,.05,.82,0,7.42-6.02,13.44-13.44,13.44-7.42,0-13.44-6.02-13.44-13.44,0-7.42,6.02-13.44,13.44-13.44h0c.28,0,.55,.02,.82,.05l.21,.02c.59,.03,1.08-.43,1.1-1.01v-.02Z"/><path class="cls-1" d="M29.27,10.09v4.02l-7.51,7.51c-.44,.43-.46,1.14-.03,1.58s1.14,.46,1.58,.03l.03-.03,7.51-7.51h4.02c.3,0,.58-.12,.79-.33l6.72-6.72c.44-.44,.44-1.15,0-1.58-.21-.21-.49-.33-.79-.33h-3.36V3.37c0-.62-.5-1.12-1.12-1.12-.3,0-.58,.12-.79,.33l-6.72,6.72c-.21,.21-.33,.49-.33,.79Zm2.24,.46l4.48-4.48v1.78c0,.62,.5,1.12,1.12,1.12h1.78l-4.48,4.48h-2.9v-2.9Z"/></g></g></svg>