<?xml version="1.0" encoding="UTF-8"?><svg id="_层_2" xmlns="http://www.w3.org/2000/svg" viewBox="0 0 87.3 47.58"><defs><style>.cls-1{fill:#943327;}</style></defs><g id="_层_1-2"><path class="cls-1" d="M70.46,28.15l.76,2.41h16.09V0h-2.47l-21.28,6.02,1.25,4-18.09,1.21c-1.28,.08-2.51,.42-3.66,.99l-3.18,1.59-.14-.07c-1.34-.65-2.75-.98-4.19-.98l-10.13-.03-6.92-3.46,.99-3.18L2.71,0H0V30.56H11.83l.79-2.54,6.3,3.78,4.3,1.12-.16,.35c-.25,.55-.38,1.12-.38,1.7,0,2.22,1.74,4.01,3.96,4.09h.3v.31c.09,2.22,1.88,3.96,4.1,3.96,.43,0,.89-.08,1.36-.25l.31-.11,.1,.32c.54,1.72,2.11,2.88,3.9,2.88,.85,0,1.71-.29,2.43-.82l.22-.16,1.24,1.25c.74,.74,1.73,1.15,2.78,1.15h.24c1.64,0,3.12-1.04,3.68-2.6l.18-.49,.36,.39c.76,.82,1.8,1.29,2.87,1.29,1.77,0,3.33-1.2,3.79-2.93l.09-.35,.34,.14c.52,.21,.99,.31,1.46,.31,1.77,0,3.33-1.21,3.79-2.93l.09-.35,.34,.14c.52,.21,.99,.31,1.46,.31,2.17,0,3.93-1.77,3.93-3.93v-.47c0-.85-.28-1.69-.79-2.36l-.66-.88,5.88-4.7ZM85.11,2.15V28.37h-12.28l-6.52-20.85,18.8-5.37ZM10.22,28.37H2.19V2.15l14.56,5.3-6.54,20.93Zm9.7,1.47l-6.62-3.97,4.52-14.47,7.13,3.56h10.58c1.39,0,2.75,.39,3.93,1.13l7.71,4.82c.66,.41,1.05,1.12,1.05,1.9v.5c0,1.23-1,2.23-2.24,2.23-.4,0-.8-.11-1.15-.32l-5.33-3.19c-1.98-1.19-4.72-.85-6.35,.78l-8.29,8.29-4.95-1.25Zm18.38,12.4v.24c0,.13,.02,.26,.04,.39l.03,.26-.29,.29c-.36,.36-.85,.56-1.35,.56-1.05,0-1.91-.86-1.91-1.91,0-.51,.2-.99,.56-1.35l5.98-5.98-1.55-1.55-7.4,7.4c-.36,.36-.85,.56-1.35,.56-1.05,0-1.91-.86-1.91-1.91,0-.51,.2-.99,.56-1.35l7.4-7.4-1.55-1.55-7.4,7.4c-.36,.36-.85,.56-1.35,.56-1.05,0-1.91-.86-1.91-1.91,0-.51,.2-.99,.56-1.35l9.26-9.26c.96-.96,2.51-1.15,3.67-.45l5.33,3.2c.69,.41,1.48,.63,2.28,.63,2.44,0,4.43-1.99,4.43-4.43v-.5c0-1.54-.78-2.94-2.08-3.76l-6.23-3.89,1.92-.96c.89-.44,1.84-.7,2.82-.77l18.62-1.24,4.29,13.72-6.49,5.19-.86-1.15c-.74-.98-1.92-1.57-3.15-1.57-1.77,0-3.33,1.2-3.79,2.93l-.09,.35-.34-.14c-.52-.21-.99-.31-1.46-.31-1.77,0-3.33,1.21-3.79,2.93l-.09,.35-.34-.14c-.52-.21-.99-.31-1.46-.31-2.17,0-3.93,1.77-3.93,3.93v.61l-.41-.12c-.41-.12-.75-.17-1.09-.17h-.24c-2.17,0-3.93,1.76-3.93,3.93Zm7.09,1.42c0,.96-.78,1.74-1.74,1.74h-.24c-.46,0-.91-.19-1.23-.51l-1.17-1.17c-.33-.33-.51-.77-.51-1.23v-.24c0-.96,.78-1.74,1.74-1.74h.24c.46,0,.91,.19,1.23,.51l1.18,1.17c.33,.33,.51,.77,.51,1.23v.24Zm7.09-1.42c0,.96-.78,1.74-1.74,1.74-.54,0-1.06-.26-1.39-.7l-2.84-3.78c-.22-.3-.35-.67-.35-1.04v-.47c0-.96,.78-1.74,1.74-1.74,.54,0,1.07,.26,1.39,.7l2.84,3.78c.22,.3,.35,.67,.35,1.04v.47Zm5.67-2.84c0,.96-.78,1.74-1.74,1.74-.54,0-1.06-.26-1.39-.7l-2.84-3.78c-.22-.3-.35-.67-.35-1.04v-.47c0-.96,.78-1.74,1.74-1.74,.54,0,1.07,.26,1.39,.7l2.84,3.78c.22,.3,.35,.67,.35,1.04v.47Zm5.67-2.84c0,.96-.78,1.74-1.74,1.74-.54,0-1.06-.26-1.39-.7l-2.84-3.78c-.22-.3-.35-.67-.35-1.04v-.47c0-.96,.78-1.74,1.74-1.74,.54,0,1.06,.26,1.39,.7l2.84,3.78c.22,.3,.35,.67,.35,1.04v.47Z"/></g></svg>