<?xml version="1.0" encoding="UTF-8"?><svg id="_层_2" xmlns="http://www.w3.org/2000/svg" viewBox="0 0 67.06 75"><defs><style>.cls-1{fill:#943327;}</style></defs><g id="_层_1-2"><g><path class="cls-1" d="M67.01,13.04c-.17-1.9-1.74-3.34-3.65-3.34h-9.47v-1.4h.18c1.35,0,2.45-1.1,2.45-2.45V2.45c0-1.35-1.1-2.45-2.45-2.45H26.18c-.61,0-1.1,.49-1.1,1.1s.49,1.1,1.1,1.1h27.89c.14,0,.26,.12,.26,.26v3.4c0,.14-.12,.26-.26,.26H12.99c-.14,0-.26-.12-.26-.26V2.45c0-.14,.12-.26,.26-.26h8.04c.61,0,1.1-.49,1.1-1.1s-.49-1.1-1.1-1.1H12.99c-1.35,0-2.45,1.1-2.45,2.45v3.4c0,1.35,1.1,2.45,2.45,2.45h.18v1.4H3.7C1.79,9.71,.22,11.14,.05,13.04c-.02,.25-.51,6.19,1.91,12.73,2.2,5.95,7.29,13.66,19,16.67,1.87,1.48,4,2.63,6.32,3.38l.56,.92c1.04,1.73,1.6,3.76,1.6,5.9,0,1.3-.21,2.58-.62,3.78l-.77,2.26h-2.55c-2.62,0-4.75,2.13-4.75,4.76v2.3h-4c-1.13,0-2.05,.92-2.05,2.05v5.16c0,1.13,.92,2.05,2.05,2.05H50.32c1.13,0,2.05-.92,2.05-2.05v-5.16c0-1.13-.92-2.05-2.05-2.05h-4v-2.3c0-2.62-2.13-4.76-4.75-4.76h-2.55l-.77-2.26c-.41-1.21-.62-2.48-.62-3.78,0-2.13,.55-4.17,1.6-5.9l.56-.92c2.32-.75,4.44-1.91,6.31-3.38,11.71-3.01,16.79-10.72,19-16.67,2.42-6.54,1.93-12.48,1.91-12.73Zm-15.32-4.73V26.46c0,10.01-8.15,18.16-18.16,18.16S15.37,36.48,15.37,26.46V8.31H51.69ZM13.58,30.52c-2.04-1.92-3.62-4.3-4.69-7.13-.75-1.97-1.23-4.11-1.45-6.36h5.74v9.44c0,1.39,.14,2.74,.41,4.05Zm-9.56-5.51c-2.25-6.08-1.8-11.54-1.78-11.77,.07-.76,.7-1.33,1.46-1.33H13.18v2.93H7.35c-.59,0-1.16,.25-1.56,.69-.4,.44-.6,1.03-.54,1.62,.23,2.48,.77,4.84,1.59,7.02,1.62,4.27,4.27,7.64,7.88,10.04,.71,1.73,1.66,3.32,2.8,4.77-7.99-3.31-11.74-9.24-13.49-13.98Zm46.15,47.8H16.89v-4.86H50.17v4.86Zm-6.04-9.36v2.3H22.93v-2.3c0-1.41,1.15-2.56,2.56-2.56h16.08c1.41,0,2.56,1.15,2.56,2.56Zm-7.96-6.31l.53,1.56h-6.33l.53-1.56c.49-1.43,.73-2.95,.73-4.49,0-2.17-.49-4.27-1.42-6.12,1.08,.18,2.19,.29,3.32,.29s2.24-.12,3.32-.29c-.93,1.86-1.42,3.95-1.42,6.12,0,1.55,.25,3.06,.73,4.49ZM63.04,25.01c-1.75,4.73-5.5,10.67-13.49,13.98,1.13-1.45,2.08-3.04,2.8-4.76,3.1-2.06,5.51-4.85,7.14-8.31,.26-.55,.03-1.2-.52-1.46-.55-.26-1.2-.03-1.46,.52-1.02,2.14-2.37,4-4.02,5.55,.27-1.31,.41-2.67,.41-4.06v-9.44h5.74c-.11,1.13-.29,2.25-.54,3.33-.14,.59,.23,1.18,.82,1.32,.08,.02,.17,.03,.25,.03,.5,0,.95-.34,1.07-.85,.28-1.21,.48-2.45,.59-3.71,.06-.59-.14-1.18-.54-1.62-.4-.44-.97-.69-1.56-.69h-5.83v-2.93h9.47c.76,0,1.39,.57,1.46,1.33,.02,.23,.47,5.69-1.78,11.77Z"/><path class="cls-1" d="M27.13,28.03c.1,.1,.14,.24,.12,.37l-.54,3.14c-.17,.99,.23,1.97,1.04,2.56,.81,.59,1.87,.67,2.76,.2l2.82-1.48c.12-.06,.27-.06,.39,0l2.82,1.48c.39,.2,.8,.3,1.22,.3,.54,0,1.08-.17,1.54-.5,.81-.59,1.21-1.57,1.04-2.56l-.54-3.14c-.02-.14,.02-.27,.12-.37l2.28-2.22c.72-.7,.97-1.73,.66-2.69-.31-.95-1.12-1.64-2.11-1.78l-3.15-.46c-.14-.02-.25-.11-.32-.23l-1.41-2.85c-.44-.9-1.34-1.46-2.35-1.46-1,0-1.9,.56-2.35,1.46l-1.41,2.85c-.06,.12-.18,.21-.32,.23l-3.15,.46c-.99,.14-1.8,.83-2.11,1.78-.31,.96-.06,1.98,.66,2.68l2.28,2.22Zm-.85-4.23c.03-.09,.11-.25,.34-.29l3.15-.46c.85-.12,1.59-.66,1.97-1.43l1.41-2.85c.1-.2,.28-.23,.38-.23s.28,.03,.38,.23l1.41,2.85c.38,.77,1.12,1.31,1.97,1.43l3.15,.46c.23,.03,.31,.19,.34,.29,.03,.09,.06,.27-.11,.43l-2.28,2.22c-.62,.6-.9,1.47-.75,2.32l.54,3.14c.04,.22-.09,.35-.17,.41-.08,.06-.24,.14-.44,.03l-2.82-1.48c-.76-.4-1.67-.4-2.44,0l-2.82,1.48c-.2,.11-.36,.03-.44-.03-.08-.06-.21-.19-.17-.41l.54-3.14c.15-.85-.13-1.72-.75-2.32l-2.28-2.22c-.16-.16-.14-.34-.11-.43Z"/></g></g></svg>