<?xml version="1.0" encoding="UTF-8"?><svg id="_层_2" xmlns="http://www.w3.org/2000/svg" viewBox="0 0 61.79 61.79"><defs><style>.cls-1{fill:#c41a24;}</style></defs><g id="_层_1-2"><g><path class="cls-1" d="M61.75,40.74c-.01-.07-.02-.15-.05-.22-.04-.1-.11-.18-.17-.26-.02-.02-.03-.05-.05-.07h0c-.09-.1-.21-.17-.33-.22-.1-.04-.21-.06-.33-.07-.03,0-.05-.01-.07-.01l-14.15-.02c2.87-4.22,4.38-9.12,4.38-14.29s-1.49-9.8-4.05-13.78l1.52-1.07,3.14,1.16c.12,.04,.24,.06,.36,.06,.21,0,.41-.06,.59-.18l6.7-4.64c.32-.22,.49-.6,.44-.98-.05-.38-.31-.71-.67-.84l-1.78-.66,1.23-.85c.47-.33,.59-.97,.26-1.44-.33-.47-.97-.59-1.44-.26l-1.22,.85V1.04c.01-.39-.2-.74-.54-.92-.34-.18-.76-.16-1.08,.06l-6.7,4.64c-.28,.19-.44,.51-.45,.85l-.02,3.35-1.53,1.07C41.07,4.01,33.73,.07,25.49,.07,11.44,.07,0,11.51,0,25.57c0,11.66,8.09,21.94,19.33,24.74v2.59H10.36c-.57,0-1.04,.46-1.04,1.04v6.78c0,.57,.46,1.04,1.04,1.04H30.24s.09,.03,.14,.03h16.21c.57,0,1.04-.46,1.04-1.03s-.46-1.04-1.04-1.04h-15.17v-12.56c0-.57-.46-1.04-1.04-1.04h-2.76c1.62-.81,2.81-2.36,3.14-4.21l24.28,.03c.21,1.16,.75,2.23,1.6,3.09,.84,.85,1.9,1.4,3.06,1.61l-.03,8.38c-2.36,.44-4.21,2.32-4.64,4.69h-2.61c-.57,0-1.04,.46-1.04,1.04s.46,1.04,1.04,1.04h8.32c.57,0,1.04-.46,1.04-1.04v-4.79c0-.06-.02-.12-.03-.19l.03-10.01s.01-.04,.01-.06v-4.79h0c0-.07-.03-.13-.04-.18ZM49.36,6.23l4.62-3.2v1.89s0,.09,0,.14c0,.04,0,.08,.02,.12,.03,.12,.08,.24,.15,.34h0c.06,.08,.13,.15,.2,.21,.02,.02,.04,.03,.06,.04,.06,.04,.12,.08,.19,.11,.01,0,.03,.02,.04,.02l1.78,.66-4.62,3.2-2.46-.91,.02-2.62ZM19.33,59.68h-7.94v-1.31h7.94v1.31Zm0-3.39h-7.94v-1.31h7.94v1.31Zm10.01,3.39h-7.94v-1.31h7.94v1.31Zm0-3.39h-7.94v-1.31h7.94v1.31Zm0-3.39h-7.94v-1.31h7.94v1.31Zm0-4.7v1.31h-7.94v-1.31h7.94Zm-3.26-3.68v-2.57h2.55c-.35,1.23-1.32,2.21-2.55,2.57Zm9.7-5.35c-.32,.24-.64,.47-.97,.68h-9.8c-.28-.01-.54,.1-.74,.29-.2,.2-.3,.46-.3,.74v1.69c-2.3-.21-4.56-.89-6.59-1.99-2.23-1.21-4.2-2.94-5.69-5-1.52-2.09-2.55-4.54-2.99-7.08-.45-2.63-.28-5.36,.49-7.9,.74-2.43,2.05-4.7,3.79-6.58,.21-.23,.43-.45,.65-.67,.41-.4,.42-1.06,.02-1.47-.4-.41-1.06-.42-1.47-.02-.25,.24-.49,.49-.73,.75-1.94,2.1-3.41,4.66-4.25,7.38-.87,2.85-1.06,5.92-.56,8.87,.49,2.85,1.65,5.59,3.35,7.94,1.67,2.31,3.88,4.25,6.38,5.61,2.34,1.27,4.95,2.04,7.61,2.25v1.48h-3.62c-.57,0-1.04,.46-1.04,1.04v1.01C9.27,45.42,2.08,36.11,2.08,25.57,2.08,12.65,12.58,2.14,25.49,2.14c7.54,0,14.26,3.59,18.54,9.15l-3.53,2.47c-.77-.97-1.62-1.88-2.57-2.69-2.75-2.36-6.08-3.89-9.64-4.41-3.68-.54-7.41-.01-10.78,1.54-.52,.24-.75,.86-.51,1.38,.24,.52,.86,.75,1.38,.51,2.95-1.36,6.37-1.85,9.6-1.37,3.17,.47,6.14,1.83,8.59,3.93,.82,.7,1.55,1.48,2.22,2.31l-3.53,2.47c-2.34-2.81-5.85-4.6-9.78-4.6-7.02,0-12.74,5.72-12.74,12.76s5.71,12.76,12.74,12.76,12.74-5.72,12.74-12.76c0-2.36-.65-4.56-1.77-6.46l3.54-2.47c.73,1.18,1.32,2.45,1.75,3.79,1.04,3.29,1.05,6.93,.02,10.22-1.05,3.35-3.17,6.37-5.98,8.5Zm-11.2-13c.2,.29,.52,.44,.85,.44,.21,0,.41-.06,.59-.19l3.45-2.41c.19,.49,.31,1.02,.31,1.57,0,2.37-1.92,4.3-4.29,4.3s-4.29-1.93-4.29-4.3,1.92-4.3,4.29-4.3c1.06,0,2.02,.4,2.77,1.05l-3.43,2.39c-.47,.33-.58,.98-.26,1.45Zm.91-6.96c-3.51,0-6.36,2.86-6.36,6.38s2.85,6.38,6.36,6.38,6.36-2.86,6.36-6.38c0-1-.24-1.94-.65-2.79l3.55-2.48c.89,1.56,1.4,3.35,1.4,5.27,0,5.89-4.78,10.68-10.66,10.68s-10.66-4.79-10.66-10.68,4.78-10.68,10.66-10.68c3.22,0,6.11,1.45,8.07,3.72l-3.55,2.48c-1.15-1.17-2.75-1.9-4.52-1.9Zm12.71,20.65c2.57-2.3,4.51-5.3,5.54-8.57,1.16-3.7,1.15-7.77-.02-11.47-.49-1.54-1.17-2.99-2.02-4.35l3.53-2.47c2.33,3.64,3.68,7.96,3.68,12.59,0,5.23-1.69,10.16-4.87,14.28h-5.84Zm21.46,19.86h-2.5c.35-1.22,1.3-2.19,2.51-2.55v2.55Zm.04-15.2c-.6-.17-1.14-.5-1.59-.95-.46-.46-.78-1.01-.95-1.62h2.55v2.56Z"/><path class="cls-1" d="M42.9,43.75h0c-3.89,0-7.06,3.18-7.06,7.08,0,1.34,.37,2.65,1.08,3.78,1.3,2.07,3.53,3.31,5.97,3.31h0c3.89,0,7.06-3.18,7.06-7.08,0-1.34-.37-2.65-1.08-3.78-1.3-2.07-3.53-3.31-5.97-3.31Zm0,12.09h0c-1.72,0-3.29-.87-4.21-2.34-.5-.8-.77-1.72-.77-2.67,0-2.76,2.24-5.01,4.99-5.01h0c1.72,0,3.29,.87,4.21,2.34,.5,.8,.77,1.72,.77,2.67,0,2.76-2.24,5.01-4.98,5.01Z"/></g></g></svg>