<?xml version="1.0" encoding="UTF-8"?><svg id="_层_2" xmlns="http://www.w3.org/2000/svg" viewBox="0 0 67.57 67.57"><defs><style>.cls-1{fill:#943327;}</style></defs><g id="_层_1-2"><g><path class="cls-1" d="M44.87,43.42c-.25,.25-.39,.59-.39,.93s.14,.69,.39,.93c.25,.25,.59,.39,.93,.39s.69-.14,.93-.39c.25-.25,.39-.59,.39-.93s-.14-.69-.39-.93c-.25-.25-.59-.39-.93-.39s-.69,.14-.93,.39Z"/><path class="cls-1" d="M67.4,65.59l-13.89-24.06c-.24-.41-.67-.66-1.14-.66s-.91,.25-1.14,.66l-13.51,23.4H11.61l7.12-12.33c5.75-.05,11.15-2.31,15.22-6.38l2.75-2.75c.25-.25,.39-.58,.39-.93s-.14-.69-.39-.93l-2.75-2.75c-1.53-1.53-3.24-2.8-5.09-3.8l4.96-8.59,8.02,13.69c.25,.42,.69,.65,1.14,.65,.23,0,.46-.06,.67-.18,.63-.37,.84-1.18,.47-1.81l-8.98-15.34v-4.11l15.72-7.49c.46-.22,.75-.68,.75-1.19s-.29-.97-.75-1.19l-15.72-7.48v-.71c0-.73-.59-1.32-1.32-1.32s-1.32,.59-1.32,1.32V23.5l-6.04,10.45c-2.49-.97-5.16-1.47-7.91-1.47-5.82,0-11.29,2.27-15.41,6.38l-2.75,2.75c-.52,.52-.52,1.35,0,1.87l2.75,2.75c3.46,3.46,7.87,5.61,12.65,6.21l-7.6,13.16c-.24,.41-.24,.91,0,1.32s.67,.66,1.14,.66h56.93c.47,0,.91-.25,1.14-.66s.24-.91,0-1.32ZM35.12,4.96l12.08,5.75-12.08,5.75V4.96Zm-8.15,32.12c1.87,.92,3.59,2.15,5.1,3.66l1.81,1.81-1.81,1.81c-1.51,1.51-3.24,2.74-5.1,3.66,1.03-1.58,1.63-3.46,1.63-5.47s-.6-3.9-1.63-5.47Zm-16.87,10.94c-1.87-.92-3.59-2.15-5.1-3.66l-1.81-1.81,1.81-1.81c1.51-1.51,3.24-2.74,5.1-3.66-1.03,1.58-1.63,3.46-1.63,5.47s.6,3.9,1.63,5.47Zm1.01-5.47c0-4.09,3.33-7.42,7.42-7.42s7.42,3.33,7.42,7.42-3.33,7.42-7.42,7.42-7.42-3.33-7.42-7.42Zm47.16,22.39h-17.53l11.61-20.1,11.61,20.1h-5.69Z"/><path class="cls-1" d="M22.5,42.54c0-2.18-1.78-3.96-3.96-3.96s-3.96,1.78-3.96,3.96,1.78,3.96,3.96,3.96,3.96-1.78,3.96-3.96Zm-5.28,0c0-.73,.59-1.32,1.32-1.32s1.32,.59,1.32,1.32-.59,1.32-1.32,1.32-1.32-.59-1.32-1.32Z"/><path class="cls-1" d="M18.54,29.24c.73,0,1.32-.59,1.32-1.32v-4.07c0-.73-.59-1.32-1.32-1.32s-1.32,.59-1.32,1.32v4.07c0,.73,.59,1.32,1.32,1.32Z"/><path class="cls-1" d="M23.58,31.31c.34,0,.68-.13,.93-.39l2.86-2.86c.52-.52,.52-1.35,0-1.87-.52-.52-1.35-.52-1.87,0l-2.86,2.86c-.52,.52-.52,1.35,0,1.87,.26,.26,.6,.39,.93,.39Z"/><path class="cls-1" d="M12.56,30.92c.26,.26,.6,.39,.93,.39s.68-.13,.93-.39c.52-.52,.52-1.35,0-1.87l-2.86-2.86c-.52-.52-1.35-.52-1.87,0-.52,.52-.52,1.35,0,1.87l2.86,2.86Z"/></g></g></svg>