<?xml version="1.0" encoding="UTF-8"?><svg id="_层_2" xmlns="http://www.w3.org/2000/svg" viewBox="0 0 63.74 58.4"><defs><style>.cls-1{fill:#c41a24;}</style></defs><g id="_层_1-2"><g><path class="cls-1" d="M63.02,38.3s-.05-.07-.07-.1c-1.03-1.37-2.82-1.93-4.44-1.39l-2.47,.82-2.38,.79-14.83,4.94c-.32,.11-.66,.17-1,.17h-.61c.51-1.39,.36-2.92-.39-4.19l-.1-.16c-1.16-1.91-3.23-3.08-5.47-3.09h-5.55c-1.96,0-3.87-.67-5.4-1.89l-2.18-1.35c-1.42-.66-2.97-1.01-4.54-1.01h-2.1c-.45-1.27-1.65-2.12-3-2.12H3.18c-1.76,0-3.18,1.42-3.18,3.18v22.31c0,1.76,1.42,3.19,3.18,3.19h5.31c.91,0,1.76-.39,2.36-1.06h26.65c1.56,0,3.09-.43,4.42-1.24l19.91-12.12c.94-.57,1.6-1.5,1.83-2.58,.22-1.08-.01-2.2-.64-3.1ZM9.56,55.21c0,.59-.48,1.07-1.07,1.07H3.18c-.58,0-1.06-.48-1.06-1.07v-22.31c0-.58,.48-1.06,1.06-1.06h5.31c.59,0,1.07,.48,1.07,1.06v22.31Zm52.02-14.27c-.1,.51-.41,.95-.86,1.22l-19.91,12.12c-1,.61-2.14,.93-3.31,.93H11.68v-21.24h1.91c1.96,0,3.86,.66,5.4,1.89,1.9,1.52,4.27,2.35,6.72,2.35h5.55c1.49,.01,2.88,.79,3.65,2.07l.09,.16c.58,.96,.52,2.18-.16,3.09h-6.46c-2.09,0-4.14,.62-5.89,1.78l-.78,.52c-.48,.33-.61,.99-.29,1.48,.33,.48,.99,.61,1.48,.29l.77-.52c1.39-.93,3.04-1.43,4.71-1.43h9.45c.57,0,1.14-.09,1.68-.28l19.66-6.55c.73-.24,1.53-.01,2.02,.58,.02,.03,.03,.05,.05,.08,.32,.42,.44,.95,.34,1.46Z"/><path class="cls-1" d="M14.07,28.73c.69-.08,1.18-.7,1.1-1.38-.68-5.92,.99-11.75,4.7-16.42,3.71-4.67,9.01-7.61,14.93-8.29,12.23-1.39,23.3,7.41,24.7,19.63,.43,3.77-.11,7.6-1.55,11.08-.27,.64,.04,1.37,.67,1.63,.16,.07,.32,.1,.48,.1,.49,0,.96-.29,1.15-.77,1.61-3.87,2.2-8.13,1.73-12.32C60.43,8.4,48.11-1.39,34.52,.16c-6.58,.75-12.48,4.02-16.61,9.21-4.12,5.19-5.98,11.67-5.23,18.26,.08,.69,.7,1.18,1.38,1.1Z"/><path class="cls-1" d="M36.5,8.88c-.69,0-1.25,.56-1.25,1.25V26.35c0,.69,.56,1.25,1.25,1.25h16.37c.69,0,1.25-.56,1.25-1.25s-.56-1.25-1.25-1.25h-15.12V10.13c0-.69-.56-1.25-1.25-1.25Z"/></g></g></svg>