<?xml version="1.0" encoding="UTF-8"?><svg id="_层_2" xmlns="http://www.w3.org/2000/svg" viewBox="0 0 63.5 63.5"><defs><style>.cls-1{fill:#fff;}.cls-2{fill:#cdcdcd;}</style></defs><g id="_层_2-2"><g><rect class="cls-2" width="63.5" height="63.5" rx="9.1" ry="9.1"/><path class="cls-1" d="M36.11,20.02h-11.98c1.22-1.08,1.36-2.95,.29-4.19-1.08-1.26-2.97-1.4-4.23-.32l-6.11,5.24s-.05,.05-.07,.08c-.08,.08-.16,.16-.23,.25-.06,.06-.11,.13-.16,.2-.07,.09-.12,.19-.18,.29-.04,.07-.08,.14-.12,.22-.05,.11-.08,.22-.12,.33-.03,.08-.06,.16-.08,.24-.02,.11-.03,.22-.05,.33,0,.08-.03,.15-.03,.23,0,.02,0,.04,0,.06,0,.02,0,.04,0,.06,0,.09,.02,.18,.03,.27,0,.1,.01,.19,.03,.28,.02,.12,.06,.24,.1,.35,.02,.07,.04,.15,.07,.22,.05,.13,.12,.25,.19,.38,.03,.05,.05,.1,.08,.15,.11,.17,.24,.33,.38,.47l6.11,6.11c.58,.59,1.35,.88,2.12,.88s1.54-.29,2.12-.88c1.17-1.17,1.17-3.07,0-4.24l-.99-.99h12.84c4.43,0,8.18,3.6,8.35,8.03,.09,2.25-.75,4.4-2.36,6.07-1.61,1.68-3.74,2.6-6,2.6h-14.84c-1.66,0-3,1.34-3,3s1.34,3,3,3h14.84c3.84,0,7.6-1.62,10.32-4.44,2.71-2.82,4.18-6.63,4.03-10.47-.3-7.61-6.73-13.8-14.35-13.8Z"/></g></g></svg>