<?xml version="1.0" encoding="utf-8"?>
<!-- Generator: Adobe Illustrator 25.4.1, SVG Export Plug-In . SVG Version: 6.00 Build 0)  -->
<svg version="1.1" id="图层_1" xmlns="http://www.w3.org/2000/svg" xmlns:xlink="http://www.w3.org/1999/xlink" x="0px" y="0px"
	 viewBox="0 0 53.7 53.7" style="enable-background:new 0 0 53.7 53.7;" xml:space="preserve">
<style type="text/css">
	.st0{fill:none;stroke:#9F291F;stroke-width:1.4165;stroke-miterlimit:10;}
</style>
<g id="g3997">
	<g id="g4003" transform="translate(97.5,313.4219)">
		<path id="path4005" class="st0" d="M-87.3-292.6v-10c0-1.7-1.4-3.2-3.2-3.2"/>
	</g>
	<g id="g4007" transform="translate(67.5,253.4219)">
		<path id="path4009" class="st0" d="M-60.5-226.3v-19.4c0-1.7-1.3-3.2-3.1-3.2c-1.8,0-3.2,1.4-3.2,3.2v23.2c0,0.8,0.2,1.5,0.6,2.2
			l7.3,12.1l-0.8,4.6"/>
	</g>
	<g id="g4011" transform="translate(323.5,437)">
		<path id="path4013" class="st0" d="M-289.6-429.2c0,3.9-3.2,7.1-7.1,7.1c-3.9,0-7.1-3.2-7.1-7.1c0-3.9,3.2-7.1,7.1-7.1
			C-292.7-436.3-289.6-433.1-289.6-429.2z"/>
	</g>
	<g id="g4015" transform="translate(414.5,313.4219)">
		<path id="path4017" class="st0" d="M-371-292.6v-10c0-1.7,1.4-3.2,3.2-3.2"/>
	</g>
	<g id="g4019" transform="translate(444.5,253.4219)">
		<path id="path4021" class="st0" d="M-397.9-226.3v-19.4c0-1.7,1.3-3.2,3.1-3.2c1.8,0,3.2,1.4,3.2,3.2v23.2c0,0.8-0.2,1.5-0.6,2.2
			l-7.3,12.1l0.8,4.6"/>
	</g>
	<g id="g4023" transform="translate(271,37.5)">
		<path id="path4025" class="st0" d="M-242.6,12.3h20.7l0.6,3.2h-21.2V2.8c0-1.7,0.7-3.3,1.8-4.5l11-11c1.2-1.2,3.2-1.3,4.4-0.1
			c1.3,1.2,1.3,3.3,0.1,4.5l-11,11"/>
	</g>
	<g id="g4027" transform="translate(375.7187,299.4922)">
		<path id="path4029" class="st0" d="M-336.3-277.2c-0.3-2.4-2.3-4.2-4.7-4.2h-15.8c-2.4,0-4.4,1.8-4.7,4.2
			C-354.5-270.3-343.3-270.3-336.3-277.2z"/>
	</g>
	<g id="g4031" transform="translate(241,37.5)">
		<path id="path4033" class="st0" d="M-215.7,12.3h-20.7l-0.6,3.2h21.2V2.8c0-1.7-0.7-3.3-1.8-4.5l-11-11c-1.2-1.2-3.2-1.3-4.4-0.1
			c-1.3,1.2-1.3,3.3-0.1,4.5l11,11"/>
	</g>
</g>
</svg>
