<?xml version="1.0" encoding="UTF-8"?><svg id="_层_2" xmlns="http://www.w3.org/2000/svg" viewBox="0 0 1280.74 611.07"><defs><style>.cls-1{fill:#8c8c8c;}.cls-2{stroke:#8c8c8c;stroke-width:.52px;}.cls-2,.cls-3{fill:none;stroke-miterlimit:10;}.cls-3{stroke:#a2291f;}</style></defs><g id="_层_2-2"><g><circle class="cls-3" cx="641.03" cy="204.76" r="61.46"/><circle class="cls-3" cx="488.43" cy="438.66" r="61.46"/><circle class="cls-3" cx="795.13" cy="438.66" r="61.46"/><g><line class="cls-3" x1="603.99" y1="253.81" x2="509.9" y2="381.05"/><line class="cls-3" x1="678.62" y1="253.81" x2="772.71" y2="381.05"/><line class="cls-3" x1="733.96" y1="442.52" x2="549.89" y2="442.52"/><g><polyline class="cls-2" points="702.83 204.76 868.17 204.76 927.06 291.19 1279.52 291.19"/><polyline class="cls-2" points="426.96 440.79 405.56 440.79 342.86 527.22 0 527.22"/><polyline class="cls-2" points="856.59 440.79 874.99 440.79 931.69 527.22 1280.74 527.22"/><g><line class="cls-2" x1="539.83" y1="609.07" x2="2.34" y2="609.07"/><rect class="cls-1" x=".75" y="606.8" width="76.34" height="4.27"/></g><g><line class="cls-2" x1="759.4" y1="2.27" x2="1278.52" y2="2.27"/><rect class="cls-1" x="1203.78" width="76.34" height="4.27" transform="translate(2483.89 4.27) rotate(180)"/></g></g></g></g></g></svg>