<svg xmlns="http://www.w3.org/2000/svg" viewBox="0 0 56.41 56.41"><defs><style>.cls-1{fill:none;stroke:#a2291f;stroke-miterlimit:10;stroke-width:1.26px;}</style></defs><g id="图层_2" data-name="图层 2"><g id="图层_2-2" data-name="图层 2"><circle class="cls-1" cx="28.2" cy="11.11" r="10.49"/><path class="cls-1" d="M23.13,11.28l2.79,2.8a1.05,1.05,0,0,0,1.47,0l5.89-5.89"/><line class="cls-1" x1="16.58" y1="42.44" x2="7.17" y2="32.89"/><path class="cls-1" d="M39.89,42.47l1,1a2.08,2.08,0,0,1,0,2.92h0a2,2,0,0,1-2.9,0h0a2.11,2.11,0,0,1,0,2.92,2.05,2.05,0,0,1-2.9,0h0a2.11,2.11,0,0,1,0,2.92,2.05,2.05,0,0,1-2.9,0,2.06,2.06,0,1,1-2.94,2.88l-1-1"/><path class="cls-1" d="M16,24l1.75,1.76a.76.76,0,0,0,.72.2,10.22,10.22,0,0,1,9.68,2.73"/><path class="cls-1" d="M2.52,26.38.83,28.08a.69.69,0,0,0,0,1l4.59,4.62a.68.68,0,0,0,1,0l10.4-10.46a.71.71,0,0,0,0-1L12.2,17.62a.69.69,0,0,0-1,0L4.84,24"/><path class="cls-1" d="M40.4,24l-1.61,1.63a1.09,1.09,0,0,1-1,.29,10.24,10.24,0,0,0-9.53,2.77l.13-.12h0l-6.71,6.74a2.09,2.09,0,0,0,0,2.93h0a2.05,2.05,0,0,0,2.9,0l4-4a2.17,2.17,0,0,1,3.08,0l8.26,8.24,9.39-9.59"/><path class="cls-1" d="M46.53,19l-1.34-1.35a.69.69,0,0,0-1,0l-4.59,4.62a.69.69,0,0,0,0,1L50,33.68a.68.68,0,0,0,1,0l4.59-4.62a.69.69,0,0,0,0-1l-6.72-6.76"/><path class="cls-1" d="M19.77,42.15h0a2,2,0,0,0-2.9,0l-1.31,1.31a2.08,2.08,0,0,0,0,2.92h0a2,2,0,0,0,2.9,0l1.31-1.31A2.06,2.06,0,0,0,19.77,42.15Z"/><path class="cls-1" d="M24.06,43.68h0a2.05,2.05,0,0,0-2.9,0l-2.7,2.7a2.08,2.08,0,0,0,0,2.92h0a2,2,0,0,0,2.91,0l2.69-2.7A2.06,2.06,0,0,0,24.06,43.68Z"/><path class="cls-1" d="M29.89,49.5h0a2.05,2.05,0,0,0-2.9,0l-2.7,2.7a2.08,2.08,0,0,0,0,2.92h0a2,2,0,0,0,2.9,0l2.7-2.7A2.08,2.08,0,0,0,29.89,49.5Z"/><path class="cls-1" d="M27.81,45.76h0a2.05,2.05,0,0,0-2.9,0L21.37,49.3a2.08,2.08,0,0,0,0,2.92h0a2,2,0,0,0,2.9,0l3.54-3.54A2.08,2.08,0,0,0,27.81,45.76Z"/><line class="cls-1" x1="44.94" y1="22.99" x2="44.94" y2="22.99"/><line class="cls-1" x1="12.59" y1="22.99" x2="12.59" y2="22.99"/><line class="cls-1" x1="38.2" y1="46.64" x2="35.62" y2="44.06"/><line class="cls-1" x1="35.06" y1="49.35" x2="32.7" y2="46.99"/><line class="cls-1" x1="32.15" y1="52.27" x2="30.49" y2="50.61"/></g></g></svg>