<svg xmlns="http://www.w3.org/2000/svg" viewBox="0 0 54.68 52.96"><defs><style>.cls-1{fill:#a2291f;}</style></defs><g id="图层_2" data-name="图层 2"><g id="图层_2-2" data-name="图层 2"><path class="cls-1" d="M45.57,45.37H41a1.52,1.52,0,0,0-1.51,1.52v4.55H37.22V40.81a1.52,1.52,0,0,0-1.52-1.52H31.14a1.52,1.52,0,0,0-1.52,1.52V51.44H27.34V31.69a1.52,1.52,0,0,0-1.52-1.51H21.27a1.52,1.52,0,0,0-1.52,1.51V51.44H17.47V21.06A1.52,1.52,0,0,0,16,19.54H11.39a1.52,1.52,0,0,0-1.52,1.52V51.44H7.6V12a1.52,1.52,0,0,0-1.52-1.52H1.52A1.52,1.52,0,0,0,0,12v3H1.52V12H6.08V51.44H1.52V19.54H0V53H47.09V46.89A1.52,1.52,0,0,0,45.57,45.37ZM11.39,51.44V21.06H16V51.44Zm9.88,0V31.69h4.55V51.44Zm9.87,0V40.81H35.7V51.44Zm9.87,0V46.89h4.56v4.55Z"/><rect class="cls-1" y="16.5" width="1.52" height="1.52"/><rect class="cls-1" x="45.58" y="42.01" width="1.52" height="2.15" transform="translate(-16.89 45.38) rotate(-45)"/><path class="cls-1" d="M5.32,7.16l7.78,9.08a.73.73,0,0,0,.57.26h1.94L30.58,33a.78.78,0,0,0,.56.24h4.24l8.14,8.14,1.07-1.08-8.35-8.35a.85.85,0,0,0-.54-.23H31.48l-15-16.46A.71.71,0,0,0,16,15H14L6.21,5.87H8.35V4.35H4.56a.76.76,0,0,0-.76.76v3.8H5.32Z"/><path class="cls-1" d="M54.07,28.53,47.52,22a2.08,2.08,0,0,0-1.47-.61,2,2,0,0,0-1.4.55l-.83-.83a12.69,12.69,0,1,0-1.07,1.07l.83.83a2,2,0,0,0-.55,1.4,2.06,2.06,0,0,0,.61,1.47l6.56,6.56a2.06,2.06,0,0,0,1.47.6,2.1,2.1,0,0,0,1.47-.6l.93-.94A2.06,2.06,0,0,0,54.07,28.53ZM26.46,4.79a11.16,11.16,0,1,1,0,15.78h0A11.18,11.18,0,0,1,26.46,4.79ZM53,30.4l-.93.93a.57.57,0,0,1-.8,0l-6.56-6.55a.57.57,0,0,1,0-.8l.94-.94a.59.59,0,0,1,.8,0L53,29.6A.57.57,0,0,1,53,30.4Z"/><path class="cls-1" d="M27.32,19.83l1.07-1.07-.06-.07a8.53,8.53,0,0,1,0-12l.06-.07L27.32,5.52l-.06.07a10.06,10.06,0,0,0,0,14.18Z"/></g></g></svg>