<?xml version="1.0" encoding="UTF-8"?><svg id="_层_2" xmlns="http://www.w3.org/2000/svg" viewBox="0 0 31.32 20.63"><defs><style>.cls-1{fill:none;stroke:#000;stroke-miterlimit:10;stroke-width:.5px;}</style></defs><g id="_层_1-2"><g><rect class="cls-1" x=".25" y=".25" width="30.82" height="20.13" rx="4.27" ry="4.27"/><g><path d="M8.43,3.88v2.68h5.1v6.29h-.49v-1.01h-4.61v4.9h-.5v-4.9H3.33v1.01h-.49V6.56H7.92V3.88h.5Zm-.5,7.48V7.03H3.33v4.33H7.92Zm5.11,0V7.03h-4.61v4.33h4.61Z"/><path d="M22.26,6.5c-.39-.87-.9-1.67-1.51-2.42l.48-.18c.56,.71,1.08,1.58,1.54,2.61h5.39v.48h-2.27c-.69,2.38-1.76,4.36-3.24,5.9,1.55,1.4,3.5,2.52,5.84,3.39l-.25,.41c-2.41-.91-4.37-2.06-5.91-3.46-1.64,1.6-3.7,2.76-6.19,3.49l-.25-.42c2.51-.7,4.54-1.82,6.11-3.36-1.74-1.65-2.93-3.64-3.6-5.94h-2.2v-.48h6.07Zm.06,6.08c1.43-1.51,2.47-3.38,3.08-5.6h-6.51c.66,2.19,1.81,4.06,3.43,5.6Z"/></g></g></g></svg>