<?xml version="1.0" encoding="UTF-8"?><svg id="_层_2" xmlns="http://www.w3.org/2000/svg" viewBox="0 0 73.43 73.43"><defs><style>.cls-1{fill:#666;}</style></defs><g id="_层_1-2"><g><path class="cls-1" d="M73.43,32.39V3.14c0-1.73-1.4-3.14-3.14-3.14H26.82c-1.73,0-3.14,1.4-3.14,3.14V11.84h-6.56c1.44-1.6,2.17-3.85,1.66-6.26-.57-2.73-2.78-4.91-5.52-5.44C8.73-.75,4.74,2.72,4.74,7.11c0,2.13,.94,4.03,2.43,5.34C3,13.89,0,17.85,0,22.5v3.55c0,2.61,2.12,4.74,4.74,4.74v12.44c0,.64,.16,1.24,.42,1.78H2.66c-1.47,0-2.66,1.19-2.66,2.66v4.16c0,1.47,1.19,2.66,2.66,2.66h2.49c-.26,.74-.41,1.54-.41,2.37,0,2.13,.94,4.03,2.43,5.34-4.16,1.45-7.17,5.41-7.17,10.06v1.18H66.32v-1.18c0-4.65-3-8.61-7.17-10.06,1.49-1.3,2.43-3.21,2.43-5.34,0-.83-.15-1.63-.41-2.37h9.6c1.47,0,2.66-1.19,2.66-2.66v-4.16c0-1.47-1.19-2.66-2.66-2.66h-4.96l-5.68-9.47h10.17c1.73,0,3.14-1.4,3.14-3.14ZM27.21,2.37h42.69c.64,0,1.16,.52,1.16,1.16v28.48c0,.64-.52,1.16-1.16,1.16H27.21c-.64,0-1.16-.52-1.16-1.16v-13.06h3.55c1.54,0,2.84-.99,3.34-2.37h11.73c1.49,0,2.7-1.21,2.7-2.7V7.44c0-1.49-1.21-2.7-2.7-2.7h-13.54c-1.49,0-2.7,1.21-2.7,2.7v4.4h-2.37V3.52c0-.64,.52-1.16,1.16-1.16Zm-8.68,42.64c.26-.54,.42-1.14,.42-1.78V20.51c0-.86,.7-1.56,1.56-1.56h3.18v13.44c0,1.73,1.4,3.14,3.14,3.14h10.17l-5.68,9.47h-12.77Zm21.22-9.47h3.16l-5.68,9.47h-3.16l5.68-9.47Zm5.25,1.12v8.36h-5.01l5.01-8.36Zm2.37-1.12h2.37v9.47h-2.37v-9.47Zm4.74,1.12l5.01,8.36h-5.01v-8.36ZM32.94,14.21c-.36-1-1.15-1.79-2.15-2.15v-3.8c0-.64,.52-1.16,1.16-1.16h11.9c.64,0,1.16,.52,1.16,1.16v4.8c0,.64-.52,1.16-1.16,1.16h-10.91ZM10.56,2.54c3.6-.95,6.81,2.25,5.85,5.85-.42,1.58-1.7,2.86-3.28,3.28-3.6,.95-6.81-2.25-5.85-5.85,.42-1.58,1.7-2.86,3.28-3.28Zm-3.45,40.59V23.69c0-.65-.53-1.18-1.18-1.18h0c-.65,0-1.18,.53-1.18,1.18v4.74c-1.31,0-2.37-1.06-2.37-2.37v-3.55c0-4.58,3.71-8.29,8.29-8.29H29.61c.65,0,1.18,.53,1.18,1.18s-.53,1.18-1.18,1.18h-10.37c-1.47,0-2.66,1.19-2.66,2.66v23.89c0,.89-.6,1.71-1.48,1.85-1.11,.18-2.08-.67-2.08-1.75v-14.8c0-.65-.53-1.18-1.18-1.18h0c-.65,0-1.18,.53-1.18,1.18v14.8c0,1.08-.97,1.93-2.08,1.75-.87-.14-1.48-.97-1.48-1.85Zm3.45,9.15c3.6-.95,6.81,2.25,5.85,5.85-.42,1.58-1.7,2.86-3.28,3.28-3.6,.95-6.81-2.25-5.85-5.85,.42-1.58,1.7-2.86,3.28-3.28ZM2.45,71.06c.58-4.01,4.04-7.11,8.21-7.11h2.37c4.17,0,7.63,3.09,8.21,7.11H2.45Zm14.07-8.88c1.49-1.3,2.43-3.21,2.43-5.34,0-.83-.15-1.63-.41-2.37h7.93c-.26,.74-.41,1.54-.41,2.37,0,2.13,.94,4.03,2.43,5.34-2.6,.9-4.74,2.78-5.98,5.2-1.25-2.42-3.39-4.29-5.98-5.2h0Zm21.21-6.62c.95,3.6-2.25,6.81-5.85,5.85-1.58-.42-2.86-1.7-3.28-3.28-.95-3.6,2.25-6.81,5.85-5.85,1.58,.42,2.86,1.7,3.28,3.28Zm-13.96,15.5c.58-4.01,4.04-7.11,8.21-7.11h2.37c4.17,0,7.63,3.09,8.21,7.11H23.77Zm14.07-8.88c1.49-1.3,2.43-3.21,2.43-5.34,0-.83-.15-1.63-.41-2.37h7.93c-.26,.74-.41,1.54-.41,2.37,0,2.13,.94,4.03,2.43,5.34-2.6,.9-4.74,2.78-5.98,5.2-1.25-2.42-3.39-4.29-5.98-5.2h0Zm17.83,1.77c4.17,0,7.63,3.09,8.21,7.11h-18.78c.58-4.01,4.04-7.11,8.21-7.11h2.37Zm.1-2.54c-3.6,.95-6.81-2.25-5.85-5.85,.42-1.58,1.7-2.86,3.28-3.28,3.6-.95,6.81,2.25,5.85,5.85-.42,1.58-1.7,2.86-3.28,3.28Zm14.14-9.3h-10.14c-1.3-1.45-3.18-2.37-5.28-2.37s-3.98,.92-5.28,2.37h-10.75c-1.3-1.45-3.18-2.37-5.28-2.37s-3.98,.92-5.28,2.37h-10.75c-1.3-1.45-3.18-2.37-5.28-2.37s-3.98,.92-5.28,2.37H3.52c-.64,0-1.16-.52-1.16-1.16v-2.43c0-.64,.52-1.16,1.16-1.16H69.9c.64,0,1.16,.52,1.16,1.16v2.43c0,.64-.52,1.16-1.16,1.16Zm-6.86-7.11h-3.16l-5.68-9.47h3.16l5.68,9.47Z"/><path class="cls-1" d="M47.37,27.24v1.18h-2.37v-8.29c0-.65-.53-1.18-1.18-1.18h0c-.65,0-1.18,.53-1.18,1.18v8.29h-1.18c-.65,0-1.18,.53-1.18,1.18h0c0,.65,.53,1.18,1.18,1.18h27.24V15.4c0-.65-.53-1.18-1.18-1.18h0c-.65,0-1.18,.53-1.18,1.18v13.03h-2.37v-10.66c0-.65-.53-1.18-1.18-1.18h0c-.65,0-1.18,.53-1.18,1.18v10.66h-2.37v-3.55c0-.65-.53-1.18-1.18-1.18h0c-.65,0-1.18,.53-1.18,1.18v3.55h-2.37v-5.92c0-.65-.53-1.18-1.18-1.18h0c-.65,0-1.18,.53-1.18,1.18v5.92h-2.37v-1.18c0-.65-.53-1.18-1.18-1.18h0c-.65,0-1.18,.53-1.18,1.18Z"/><path class="cls-1" d="M50.93,4.74h0c.65,0,1.18,.53,1.18,1.18h0c0,.65-.53,1.18-1.18,1.18h0c-.65,0-1.18-.53-1.18-1.18h0c0-.65,.53-1.18,1.18-1.18Z"/><path class="cls-1" d="M55.66,4.74h11.84c.65,0,1.18,.53,1.18,1.18h0c0,.65-.53,1.18-1.18,1.18h-11.84c-.65,0-1.18-.53-1.18-1.18h0c0-.65,.53-1.18,1.18-1.18Z"/><path class="cls-1" d="M50.93,9.47h16.58c.65,0,1.18,.53,1.18,1.18h0c0,.65-.53,1.18-1.18,1.18h-16.58c-.65,0-1.18-.53-1.18-1.18h0c0-.65,.53-1.18,1.18-1.18Z"/><path class="cls-1" d="M29.61,23.69h0c.65,0,1.18,.53,1.18,1.18h0c0,.65-.53,1.18-1.18,1.18h0c-.65,0-1.18-.53-1.18-1.18h0c0-.65,.53-1.18,1.18-1.18Z"/><path class="cls-1" d="M29.61,28.42h0c.65,0,1.18,.53,1.18,1.18h0c0,.65-.53,1.18-1.18,1.18h0c-.65,0-1.18-.53-1.18-1.18h0c0-.65,.53-1.18,1.18-1.18Z"/></g></g></svg>