<?xml version="1.0" encoding="UTF-8"?><svg id="_层_2" xmlns="http://www.w3.org/2000/svg" viewBox="0 0 40.33 32.86"><defs><style>.cls-1{fill:#b42f2d;}</style></defs><g id="_层_2-2"><g><path class="cls-1" d="M1.81,31.09c-1.21-1.18-1.81-2.83-1.81-4.97v-2.04H3.34v1.76c0,1.27,.33,2.25,.97,2.95,.65,.7,1.56,1.04,2.74,1.04,1.24,0,2.17-.37,2.81-1.11,.63-.74,.95-1.79,.95-3.16v-3.57c0-1.55-.31-2.71-.93-3.5-.62-.79-1.62-1.18-3.02-1.18h-1.35v-3.02h1.35c1.36,0,2.34-.38,2.92-1.14,.59-.76,.88-1.88,.88-3.36v-2.51c0-1.39-.32-2.45-.95-3.18-.63-.73-1.54-1.09-2.71-1.09s-2.03,.35-2.65,1.04c-.62,.7-.93,1.68-.93,2.95v1.86H.09v-1.9C.09,4.76,.7,3.06,1.9,1.83,3.11,.61,4.84,0,7.1,0s3.94,.6,5.13,1.81c1.19,1.21,1.79,2.91,1.79,5.1v2.74c0,1.55-.26,2.79-.77,3.74-.51,.94-1.37,1.69-2.58,2.25,1.33,.62,2.25,1.42,2.76,2.41,.51,.99,.77,2.32,.77,3.99v3.39c0,2.38-.62,4.22-1.86,5.5-1.24,1.28-3.02,1.93-5.34,1.93s-3.99-.59-5.2-1.76Z"/><path class="cls-1" d="M18.52,28.31h3.62v4.13h-3.62v-4.13Z"/><path class="cls-1" d="M26.45,24.36V8.45c0-5.63,2.32-8.45,6.96-8.45s6.92,2.82,6.92,8.45v15.92c0,5.66-2.31,8.49-6.92,8.49s-6.96-2.83-6.96-8.49Zm9.72,4.13c.51-.9,.77-2.44,.77-4.64V9c0-2.2-.26-3.74-.77-4.64-.51-.9-1.43-1.35-2.76-1.35s-2.26,.45-2.78,1.35c-.53,.9-.79,2.44-.79,4.64v14.85c0,2.2,.26,3.74,.79,4.64,.53,.9,1.45,1.35,2.78,1.35s2.25-.45,2.76-1.35Z"/></g></g></svg>