<?xml version="1.0" encoding="UTF-8"?><svg id="_层_2" xmlns="http://www.w3.org/2000/svg" viewBox="0 0 32.3 32.86"><defs><style>.cls-1{fill:#b52f2d;}</style></defs><g id="_层_2-2"><g><path class="cls-1" d="M0,24.36V8.45C0,2.82,2.32,0,6.96,0s6.92,2.82,6.92,8.45v15.92c0,5.66-2.31,8.49-6.92,8.49S0,30.02,0,24.36Zm9.72,4.13c.51-.9,.77-2.44,.77-4.64V9c0-2.2-.26-3.74-.77-4.64-.51-.9-1.43-1.35-2.76-1.35s-2.26,.45-2.78,1.35c-.53,.9-.79,2.44-.79,4.64v14.85c0,2.2,.26,3.74,.79,4.64,.53,.9,1.45,1.35,2.78,1.35s2.25-.45,2.76-1.35Z"/><path class="cls-1" d="M18.47,29.75l8.86-15.73c.53-.9,.92-1.77,1.18-2.62,.26-.85,.39-1.8,.39-2.85v-1.3c0-1.36-.3-2.41-.91-3.13-.6-.73-1.52-1.09-2.76-1.09-1.05,0-1.89,.36-2.51,1.09-.62,.73-.93,1.76-.93,3.09v1.86h-3.34v-2.18c0-2.1,.62-3.77,1.86-5.01,1.24-1.24,2.92-1.86,5.06-1.86s3.82,.62,5.06,1.86c1.24,1.24,1.86,2.89,1.86,4.97v1.72c0,1.33-.17,2.52-.51,3.57-.34,1.05-.88,2.21-1.62,3.48l-7.8,13.83h9.79v3.02h-13.69v-2.69Z"/></g></g></svg>