<svg xmlns="http://www.w3.org/2000/svg" viewBox="0 0 73.44 73.44"><defs><style>.cls-1{fill:#943327;}</style></defs><g id="图层_2" data-name="图层 2"><g id="_层_2" data-name=" 层 2"><g id="_层_1-2" data-name=" 层 1-2"><path class="cls-1" d="M73.43,32.39V3.14A3.14,3.14,0,0,0,70.29,0H26.82a3.14,3.14,0,0,0-3.14,3.14v8.7H17.12a7.1,7.1,0,1,0-10,.61A10.65,10.65,0,0,0,0,22.5v3.55a4.74,4.74,0,0,0,4.74,4.74V43.23A4.09,4.09,0,0,0,5.16,45H2.66A2.66,2.66,0,0,0,0,47.67v4.16a2.66,2.66,0,0,0,2.66,2.66H5.15a7.07,7.07,0,0,0,2,7.71A10.68,10.68,0,0,0,0,72.26v1.18H66.32V72.26A10.67,10.67,0,0,0,59.15,62.2a7.07,7.07,0,0,0,2.43-5.34,7.15,7.15,0,0,0-.41-2.37h9.6a2.66,2.66,0,0,0,2.66-2.66V47.67A2.66,2.66,0,0,0,70.77,45h-5l-5.68-9.47H70.3a3.14,3.14,0,0,0,3.14-3.14Zm-46.22-30H69.9a1.16,1.16,0,0,1,1.16,1.16V32a1.16,1.16,0,0,1-1.16,1.16H27.21A1.16,1.16,0,0,1,26.05,32V19H29.6a3.56,3.56,0,0,0,3.34-2.37H44.67a2.7,2.7,0,0,0,2.7-2.7V7.44a2.7,2.7,0,0,0-2.7-2.7H31.13a2.7,2.7,0,0,0-2.7,2.7v4.4H26.06V3.52a1.16,1.16,0,0,1,1.16-1.16ZM18.53,45A4.09,4.09,0,0,0,19,43.23V20.51A1.56,1.56,0,0,1,20.51,19h3.18V32.39a3.14,3.14,0,0,0,3.14,3.14H37L31.32,45H18.53Zm21.22-9.47h3.16L37.23,45H34.07ZM45,36.66V45H40Zm2.37-1.12h2.37V45H47.37Zm4.74,1.12,5,8.36h-5ZM32.94,14.21a3.57,3.57,0,0,0-2.15-2.15V8.26A1.16,1.16,0,0,1,32,7.1h11.9A1.16,1.16,0,0,1,45,8.26v4.8a1.16,1.16,0,0,1-1.16,1.16H32.94ZM10.56,2.54a4.75,4.75,0,0,1,5.85,5.85,4.68,4.68,0,0,1-3.28,3.28A4.75,4.75,0,0,1,7.28,5.82,4.68,4.68,0,0,1,10.56,2.54ZM7.11,43.13V23.69a1.18,1.18,0,0,0-1.18-1.18h0a1.18,1.18,0,0,0-1.18,1.18v4.74a2.37,2.37,0,0,1-2.37-2.37V22.51a8.29,8.29,0,0,1,8.29-8.29H29.61a1.18,1.18,0,0,1,0,2.36H19.24a2.66,2.66,0,0,0-2.66,2.66V43.13A1.84,1.84,0,0,1,15.1,45,1.78,1.78,0,0,1,13,43.23V28.43a1.18,1.18,0,0,0-1.18-1.18h0a1.18,1.18,0,0,0-1.18,1.18v14.8A1.78,1.78,0,0,1,8.58,45,1.85,1.85,0,0,1,7.1,43.13Zm3.45,9.15a4.75,4.75,0,0,1,5.85,5.85,4.68,4.68,0,0,1-3.28,3.28,4.75,4.75,0,0,1-5.85-5.85A4.68,4.68,0,0,1,10.56,52.28ZM2.45,71.06A8.32,8.32,0,0,1,10.66,64H13a8.31,8.31,0,0,1,8.21,7.11Zm14.07-8.88A7.07,7.07,0,0,0,19,56.84a7.15,7.15,0,0,0-.41-2.37h7.93a7.07,7.07,0,0,0,2,7.71,10.65,10.65,0,0,0-6,5.2,10.75,10.75,0,0,0-6-5.2h0Zm21.21-6.62a4.75,4.75,0,0,1-5.85,5.85,4.68,4.68,0,0,1-3.28-3.28,4.75,4.75,0,0,1,5.85-5.85A4.68,4.68,0,0,1,37.73,55.56Zm-14,15.5A8.32,8.32,0,0,1,32,64h2.37a8.31,8.31,0,0,1,8.21,7.11Zm14.07-8.88a7.07,7.07,0,0,0,2.43-5.34,7.15,7.15,0,0,0-.41-2.37h7.93a7.07,7.07,0,0,0,2,7.71,10.65,10.65,0,0,0-6,5.2,10.75,10.75,0,0,0-6-5.2h0ZM55.67,64a8.31,8.31,0,0,1,8.21,7.11H45.1A8.32,8.32,0,0,1,53.31,64h2.36Zm.1-2.54a4.75,4.75,0,0,1-5.85-5.85,4.68,4.68,0,0,1,3.28-3.28,4.75,4.75,0,0,1,5.85,5.85A4.68,4.68,0,0,1,55.77,61.41Zm14.14-9.3H59.77a7.07,7.07,0,0,0-10.56,0H38.46a7.07,7.07,0,0,0-10.56,0H17.15a7.07,7.07,0,0,0-10.56,0H3.52A1.16,1.16,0,0,1,2.36,51V48.52a1.16,1.16,0,0,1,1.16-1.16H69.9a1.16,1.16,0,0,1,1.16,1.16V51a1.16,1.16,0,0,1-1.16,1.16ZM63.05,45H59.89l-5.68-9.47h3.16Z"/><path class="cls-1" d="M47.37,27.24v1.18H45V20.13A1.18,1.18,0,0,0,43.82,19h0a1.18,1.18,0,0,0-1.18,1.18v8.29H41.46a1.18,1.18,0,0,0-1.18,1.18h0a1.18,1.18,0,0,0,1.18,1.18H68.7V15.4a1.18,1.18,0,0,0-1.18-1.18h0a1.18,1.18,0,0,0-1.18,1.18v13H64V17.77a1.18,1.18,0,0,0-1.18-1.18h0a1.18,1.18,0,0,0-1.18,1.18V28.43H59.24V24.88a1.18,1.18,0,0,0-1.18-1.18h0a1.18,1.18,0,0,0-1.18,1.18v3.55H54.51V22.51a1.18,1.18,0,0,0-1.18-1.18h0a1.18,1.18,0,0,0-1.18,1.18v5.92H49.78V27.25a1.18,1.18,0,0,0-1.18-1.18h0a1.18,1.18,0,0,0-1.18,1.18Z"/><path class="cls-1" d="M50.93,4.74h0a1.18,1.18,0,0,1,1.18,1.18h0A1.18,1.18,0,0,1,50.93,7.1h0a1.18,1.18,0,0,1-1.18-1.18h0A1.18,1.18,0,0,1,50.93,4.74Z"/><path class="cls-1" d="M55.66,4.74H67.5a1.18,1.18,0,0,1,1.18,1.18h0A1.18,1.18,0,0,1,67.5,7.1H55.66a1.18,1.18,0,0,1-1.18-1.18h0A1.18,1.18,0,0,1,55.66,4.74Z"/><path class="cls-1" d="M50.93,9.47H67.51a1.18,1.18,0,0,1,1.18,1.18h0a1.18,1.18,0,0,1-1.18,1.18H50.93a1.18,1.18,0,0,1-1.18-1.18h0A1.18,1.18,0,0,1,50.93,9.47Z"/><path class="cls-1" d="M29.61,23.69h0a1.18,1.18,0,0,1,1.18,1.18h0a1.18,1.18,0,0,1-1.18,1.18h0a1.18,1.18,0,0,1-1.18-1.18h0A1.18,1.18,0,0,1,29.61,23.69Z"/><path class="cls-1" d="M29.61,28.42h0a1.18,1.18,0,0,1,1.18,1.18h0a1.18,1.18,0,0,1-1.18,1.18h0a1.18,1.18,0,0,1-1.18-1.18h0A1.18,1.18,0,0,1,29.61,28.42Z"/></g></g></g></svg>