<?xml version="1.0" encoding="UTF-8"?><svg id="_层_2" xmlns="http://www.w3.org/2000/svg" viewBox="0 0 41.35 32.86"><defs><style>.cls-1{fill:#b42f2d;}</style></defs><g id="_层_2-2"><g><path class="cls-1" d="M15.96,25.99h-2.83v6.45h-3.39v-6.45H0v-3.02L6.73,.42h3.39L3.29,22.97h6.45V14.57h3.39v8.4h2.83v3.02Z"/><path class="cls-1" d="M19.54,28.31h3.62v4.13h-3.62v-4.13Z"/><path class="cls-1" d="M27.47,24.36V8.45c0-5.63,2.32-8.45,6.96-8.45s6.92,2.82,6.92,8.45v15.92c0,5.66-2.31,8.49-6.92,8.49s-6.96-2.83-6.96-8.49Zm9.72,4.13c.51-.9,.77-2.44,.77-4.64V9c0-2.2-.26-3.74-.77-4.64-.51-.9-1.43-1.35-2.76-1.35s-2.26,.45-2.78,1.35c-.53,.9-.79,2.44-.79,4.64v14.85c0,2.2,.26,3.74,.79,4.64,.53,.9,1.45,1.35,2.78,1.35s2.25-.45,2.76-1.35Z"/></g></g></svg>