<?xml version="1.0" encoding="UTF-8"?><svg id="_层_2" xmlns="http://www.w3.org/2000/svg" viewBox="0 0 58.59 63.91"><defs><style>.cls-1{fill:#a2291f;}</style></defs><g id="_层_1-2"><g><g><path class="cls-1" d="M51.86,59.52H1.05c-.58,0-1.05-.47-1.05-1.05s.47-1.05,1.05-1.05H51.86c.58,0,1.05,.47,1.05,1.05s-.47,1.05-1.05,1.05Z"/><path class="cls-1" d="M51.86,59.52c-.58,0-1.05-.47-1.05-1.05v-1.94c0-1.17-.95-2.13-2.13-2.13-.4,0-.8,.12-1.14,.34-.25,.16-.55,.21-.84,.13-.28-.08-.52-.27-.66-.53-.84-1.64-2.49-2.66-4.31-2.66s-3.4,.99-4.26,2.58c-.13,.25-.36,.43-.62,.51-.26,.08-.55,.05-.8-.09-.75-.41-1.58-.34-2.23,.12-.28,.19-.63,.24-.95,.13-.32-.11-.56-.37-.66-.69-1.01-3.43-4.22-5.83-7.8-5.83-3.18,0-6.08,1.87-7.4,4.78-.15,.33-.45,.55-.81,.6-.36,.05-.71-.09-.94-.36-.93-1.11-2.28-1.74-3.69-1.74-1.89,0-3.62,1.12-4.41,2.85-.13,.3-.4,.51-.72,.58-.32,.07-.65,0-.9-.21-.27-.23-.73-.49-1.34-.49-1.17,0-2.13,.96-2.13,2.13v1.94c0,.58-.47,1.05-1.05,1.05s-1.05-.47-1.05-1.05v-1.94c0-2.33,1.89-4.22,4.22-4.22,.56,0,1.11,.11,1.62,.33,1.28-1.89,3.43-3.06,5.74-3.06,1.54,0,3.02,.52,4.23,1.46,1.86-2.92,5.11-4.74,8.62-4.74,4.09,0,7.79,2.49,9.39,6.19,.75-.23,1.56-.25,2.33-.04,1.3-1.8,3.37-2.88,5.6-2.88s4.35,1.1,5.64,2.94c.42-.14,.86-.21,1.3-.21,2.33,0,4.22,1.89,4.22,4.22v1.94c0,.58-.47,1.05-1.05,1.05Z"/></g><path class="cls-1" d="M28.34,31.41c-.73,0-1.48-.08-2.22-.23-.57-.12-.93-.68-.81-1.24,.12-.57,.68-.93,1.24-.8,4.42,.94,8.84-1.73,10.05-6.1,.99-3.56-2.14-13.15-3.92-17.9-.99,.78-2.54,2.04-4.22,3.52-.43,.38-1.09,.34-1.48-.1-.38-.43-.34-1.1,.1-1.48,2.89-2.53,5.41-4.45,5.44-4.47,.26-.2,.6-.26,.91-.17,.31,.09,.57,.32,.69,.62,.62,1.54,5.98,15.23,4.5,20.54-1.31,4.69-5.59,7.81-10.28,7.81Z"/><path class="cls-1" d="M24.51,31.36c-5.35,0-10.14-3.8-11.18-9.25C12.2,16.22,19.64,1.21,19.96,.58c.15-.29,.42-.5,.74-.56,.32-.06,.65,.03,.89,.25,.53,.47,12.98,11.68,14.11,17.57,.57,2.99-.06,6.02-1.76,8.54-1.71,2.52-4.29,4.22-7.28,4.79-.72,.14-1.44,.2-2.14,.2ZM21.22,2.76c-2.33,4.9-6.6,15.02-5.84,18.96,.96,5.04,5.84,8.36,10.88,7.39,2.44-.47,4.55-1.85,5.95-3.91,1.39-2.05,1.91-4.53,1.44-6.97h0c-.75-3.94-8.45-11.77-12.42-15.46Z"/><path class="cls-1" d="M26.34,48.61c-.58,0-1.05-.47-1.05-1.05V30.15c0-.58,.47-1.05,1.05-1.05s1.05,.47,1.05,1.05v17.41c0,.58-.47,1.05-1.05,1.05Z"/><path class="cls-1" d="M8.51,63.91h-1.07c-.58,0-1.05-.47-1.05-1.05s.47-1.05,1.05-1.05h1.07c.58,0,1.05,.47,1.05,1.05s-.47,1.05-1.05,1.05Z"/><path class="cls-1" d="M20.43,55.34h-1.07c-.58,0-1.05-.47-1.05-1.05s.47-1.05,1.05-1.05h1.07c.58,0,1.05,.47,1.05,1.05s-.47,1.05-1.05,1.05Z"/><path class="cls-1" d="M57.54,59.52h-1.07c-.58,0-1.05-.47-1.05-1.05s.47-1.05,1.05-1.05h1.07c.58,0,1.05,.47,1.05,1.05s-.47,1.05-1.05,1.05Z"/><path class="cls-1" d="M25.3,30.03c.56-3.27,.53-6.66-.11-9.97-.64-3.31-1.9-6.53-3.73-9.44,2.11,2.71,3.73,5.84,4.75,9.19,1.01,3.35,1.41,6.92,1.17,10.47l-2.08-.24Z"/><path class="cls-1" d="M25.8,25.67c-1.15-1.87-2.86-3.5-5.01-4.47,2.33,.4,4.58,1.6,6.39,3.34l-1.37,1.13Z"/></g></g></svg>