<?xml version="1.0" encoding="UTF-8"?><svg id="_层_2" xmlns="http://www.w3.org/2000/svg" viewBox="0 0 58.8 60.27"><defs><style>.cls-1{fill:#a2291f;}</style></defs><g id="_层_1-2"><g><g><path class="cls-1" d="M54.24,50.67H1.05c-.58,0-1.05-.47-1.05-1.05s.47-1.05,1.05-1.05H54.24c.58,0,1.05,.47,1.05,1.05s-.47,1.05-1.05,1.05Z"/><path class="cls-1" d="M29.22,60.27c-3.55,0-6.76-2.14-8.19-5.31-.61,.16-1.26,.17-1.87,.02-1.15,1.54-2.95,2.47-4.89,2.47s-3.78-.94-4.93-2.51c-.35,.1-.7,.16-1.07,.16-2.09,0-3.79-1.7-3.79-3.79v-1.68c0-.58,.47-1.05,1.05-1.05s1.05,.47,1.05,1.05v1.68c0,.94,.76,1.7,1.7,1.7,.32,0,.63-.09,.91-.27,.25-.16,.55-.21,.84-.13,.28,.08,.52,.27,.66,.53,.7,1.37,2.08,2.22,3.59,2.22s2.84-.83,3.55-2.15c.13-.25,.36-.43,.62-.51,.27-.08,.56-.05,.8,.09,.6,.33,1.26,.27,1.78-.09,.28-.19,.63-.24,.95-.13,.32,.11,.56,.37,.66,.69,.86,2.91,3.57,4.94,6.6,4.94,2.69,0,5.15-1.59,6.26-4.04,.15-.33,.45-.55,.81-.6,.36-.05,.71,.09,.94,.36,.78,.93,1.9,1.46,3.08,1.46,1.57,0,3.02-.93,3.68-2.38,.13-.3,.4-.51,.72-.59,.32-.07,.65,0,.9,.21,.22,.18,.58,.39,1.07,.39,.94,0,1.7-.76,1.7-1.7v-1.68c0-.58,.47-1.05,1.05-1.05s1.05,.47,1.05,1.05v1.68c0,2.09-1.7,3.79-3.79,3.79-.47,0-.92-.09-1.35-.25-1.14,1.61-3,2.61-5.01,2.61-1.31,0-2.57-.43-3.61-1.2-1.64,2.48-4.45,4.03-7.48,4.03Z"/></g><g><polygon class="cls-1" points="12.9 49.63 13.94 37.28 14.99 49.63 12.9 49.63"/><path class="cls-1" d="M13.94,45.75c-3.12,0-5.66-2.54-5.66-5.66,0-2.8,4.06-7.56,4.87-8.48,.4-.45,1.17-.45,1.57,0,.81,.93,4.87,5.68,4.87,8.48,0,3.12-2.54,5.66-5.66,5.66Zm0-11.83c-1.68,2.07-3.57,4.89-3.57,6.17,0,1.97,1.6,3.57,3.57,3.57s3.57-1.6,3.57-3.57c0-1.28-1.89-4.1-3.57-6.17Z"/></g><g><polygon class="cls-1" points="26.6 49.63 27.64 37.28 28.69 49.63 26.6 49.63"/><path class="cls-1" d="M27.64,45.75c-3.12,0-5.66-2.54-5.66-5.66,0-2.8,4.06-7.56,4.87-8.48,.4-.45,1.17-.45,1.57,0,.81,.93,4.87,5.68,4.87,8.48,0,3.12-2.54,5.66-5.66,5.66Zm0-11.83c-1.68,2.07-3.57,4.89-3.57,6.17,0,1.97,1.6,3.57,3.57,3.57s3.57-1.6,3.57-3.57c0-1.28-1.89-4.1-3.57-6.17Z"/></g><g><polygon class="cls-1" points="40.3 49.63 41.35 37.28 42.39 49.63 40.3 49.63"/><path class="cls-1" d="M41.35,45.75c-3.12,0-5.66-2.54-5.66-5.66,0-2.8,4.06-7.56,4.87-8.48,.4-.45,1.17-.45,1.57,0,.81,.93,4.87,5.68,4.87,8.48,0,3.12-2.54,5.66-5.66,5.66Zm0-11.83c-1.68,2.07-3.57,4.89-3.57,6.17,0,1.97,1.6,3.57,3.57,3.57s3.57-1.6,3.57-3.57c0-1.28-1.89-4.1-3.57-6.17Z"/></g><g><path class="cls-1" d="M2.7,16.29c-.27,0-.54-.1-.74-.31-.41-.41-.41-1.07,0-1.48L16.16,.31c.41-.41,1.07-.41,1.48,0,.41,.41,.41,1.07,0,1.48L3.44,15.98c-.2,.2-.47,.31-.74,.31Z"/><path class="cls-1" d="M4.01,23.15c-.27,0-.54-.1-.74-.31-.41-.41-.41-1.07,0-1.48l.85-.85c.41-.41,1.07-.41,1.48,0,.41,.41,.41,1.07,0,1.48l-.85,.85c-.2,.2-.47,.31-.74,.31Z"/><path class="cls-1" d="M7.89,19.27c-.27,0-.54-.1-.74-.31-.41-.41-.41-1.07,0-1.48L21.17,3.46c.41-.41,1.07-.41,1.48,0s.41,1.07,0,1.48l-14.03,14.03c-.2,.2-.47,.31-.74,.31Z"/><path class="cls-1" d="M16.9,18.43c-.27,0-.54-.1-.74-.31-.41-.41-.41-1.07,0-1.48l8.54-8.54c.41-.41,1.07-.41,1.48,0,.41,.41,.41,1.07,0,1.48l-8.54,8.54c-.2,.2-.47,.31-.74,.31Z"/><path class="cls-1" d="M28.06,7.27c-.27,0-.54-.1-.74-.31-.41-.41-.41-1.07,0-1.48l3.44-3.44c.41-.41,1.07-.41,1.48,0,.41,.41,.41,1.07,0,1.48l-3.44,3.44c-.2,.2-.47,.31-.74,.31Z"/><path class="cls-1" d="M14.54,28.96c-.27,0-.54-.1-.74-.31-.41-.41-.41-1.07,0-1.48l.68-.68c.41-.41,1.07-.41,1.48,0,.41,.41,.41,1.07,0,1.48l-.68,.68c-.2,.2-.47,.31-.74,.31Z"/><path class="cls-1" d="M18.34,25.16c-.27,0-.54-.1-.74-.31-.41-.41-.41-1.07,0-1.48L35.99,4.99c.41-.41,1.07-.41,1.48,0,.41,.41,.41,1.07,0,1.48L19.08,24.86c-.2,.2-.47,.31-.74,.31Z"/><path class="cls-1" d="M26.61,25.06c-.27,0-.54-.1-.74-.31-.41-.41-.41-1.07,0-1.48L42.74,6.41c.41-.41,1.07-.41,1.48,0,.41,.41,.41,1.07,0,1.48L27.35,24.76c-.2,.2-.47,.31-.74,.31Z"/><path class="cls-1" d="M45.96,5.72c-.27,0-.54-.1-.74-.31-.41-.41-.41-1.07,0-1.48l3.63-3.63c.41-.41,1.07-.41,1.48,0,.41,.41,.41,1.07,0,1.48l-3.63,3.63c-.2,.2-.47,.31-.74,.31Z"/><path class="cls-1" d="M38.39,21.46c-.27,0-.54-.1-.74-.31-.41-.41-.41-1.07,0-1.48l1.02-1.02c.41-.41,1.07-.41,1.48,0,.41,.41,.41,1.07,0,1.48l-1.02,1.02c-.2,.2-.47,.31-.74,.31Z"/><path class="cls-1" d="M43.1,16.74c-.27,0-.54-.1-.74-.31-.41-.41-.41-1.07,0-1.48l6.31-6.31c.41-.41,1.07-.41,1.48,0,.41,.41,.41,1.07,0,1.48l-6.31,6.31c-.2,.2-.47,.31-.74,.31Z"/><path class="cls-1" d="M39.73,28.29c-.27,0-.54-.1-.74-.31-.41-.41-.41-1.07,0-1.48l14.51-14.51c.41-.41,1.07-.41,1.48,0s.41,1.07,0,1.48l-14.51,14.51c-.2,.2-.47,.31-.74,.31Z"/><path class="cls-1" d="M57.16,10.86c-.27,0-.54-.1-.74-.31-.41-.41-.41-1.07,0-1.48l.59-.59c.41-.41,1.07-.41,1.48,0,.41,.41,.41,1.07,0,1.48l-.59,.59c-.2,.2-.47,.31-.74,.31Z"/><path class="cls-1" d="M48.26,27.93c-.27,0-.54-.1-.74-.31-.41-.41-.41-1.07,0-1.48l4.53-4.53c.41-.41,1.07-.41,1.48,0s.41,1.07,0,1.48l-4.53,4.53c-.2,.2-.47,.31-.74,.31Z"/></g></g></g></svg>