<svg xmlns="http://www.w3.org/2000/svg" viewBox="0 0 89.16 77.7"><defs><style>.cls-1{fill:#fff;}</style></defs><g id="图层_2" data-name="图层 2"><g id="图层_2-2" data-name="图层 2"><path class="cls-1" d="M26.24,19.37c-.18.39-.35.75-.52,1.09s-.36.73-.59,1.14a15.54,15.54,0,0,1-.94,1.55,4.25,4.25,0,0,1-.81.89,1.61,1.61,0,0,1-.74.37,1.51,1.51,0,0,1-.7,0,1.8,1.8,0,0,1-1.13-1.09,9.62,9.62,0,0,1-.62-2.76c0-.19,0-.39-.05-.59s0-.4,0-.62c-.59.52-1.2,1-1.84,1.47s-1.34.93-2.07,1.39L15.66,20c.9-.54,1.72-1.08,2.45-1.62a21.71,21.71,0,0,0,2.07-1.69A46.94,46.94,0,0,1,20.75,12q.43-2.6,1.2-5.77L16.89,4.91l-.92,3L20.17,9c-.05.17-.14.45-.28.86s-.29.87-.47,1.4-.37,1.09-.57,1.68-.4,1.16-.59,1.7-.35,1-.5,1.44-.25.71-.31.88a12.65,12.65,0,0,1-.63,1.45,2.83,2.83,0,0,1-.66.87,1.72,1.72,0,0,1-.87.38,5.33,5.33,0,0,1-1.27,0l-.94-.09.24-2.62.81.08a5,5,0,0,0,.73,0,.89.89,0,0,0,.47-.13,1.07,1.07,0,0,0,.33-.39,6.89,6.89,0,0,0,.31-.71q.1-.27.36-1c.16-.47.34-1,.52-1.5l.5-1.48c.16-.46.26-.76.3-.91l-2.43-.64c-.42,1.26-.83,2.39-1.24,3.38s-.85,1.92-1.3,2.77a27.74,27.74,0,0,1-1.45,2.4c-.51.76-1.06,1.53-1.66,2.32L8.28,19.5C8.91,18.75,9.47,18,10,17.35a20.09,20.09,0,0,0,1.39-2.25,28.9,28.9,0,0,0,1.25-2.75c.4-1,.82-2.23,1.26-3.64L16,2.05l6.61,1.64c.09-.39.19-.79.29-1.19l.27-1.12c.09-.33.16-.63.22-.88s.11-.42.14-.5l1.68.51-.89,3.6,2.47.62c-.15-.51-.32-1-.5-1.57s-.34-1-.48-1.32L27.38.52c.19.49.41,1.07.64,1.73s.43,1.27.57,1.82L27.65,5l2.08.52L29,8,23.68,6.63c-.37,1.56-.68,3-.92,4.28s-.44,2.51-.59,3.64a30.53,30.53,0,0,0,2-2.77c.64-1,1.29-2,2-3.24l1.27,1.31c-.89,1.54-1.77,3-2.65,4.21a28.89,28.89,0,0,1-2.87,3.53,20,20,0,0,0,.12,2.51,2.67,2.67,0,0,0,.32,1.09.82.82,0,0,0,.46.4c.16.05.32-.05.5-.27A11.3,11.3,0,0,0,24.08,20c.15-.28.3-.58.46-.89L25.08,18Z"/><path class="cls-1" d="M39.75,17a16.37,16.37,0,0,0,.43,3,13.12,13.12,0,0,0,2.53,5.06,24.35,24.35,0,0,0,2.18,2.36l-1.74,2.34A22.55,22.55,0,0,1,40.79,27a16.26,16.26,0,0,1-1.68-3.06,17.72,17.72,0,0,1-1-3.47,25.23,25.23,0,0,1-.44-4l-2.36-.61-2.22,7.73,4.78-1-.8,3.05-.86.15c-.4.08-.86.17-1.38.29l-1.65.4c-.58.15-1.14.3-1.68.46a5.33,5.33,0,0,0-.64.25,4.17,4.17,0,0,1-.6.24l-.08-3.23a1.06,1.06,0,0,0,.73-.36,2.85,2.85,0,0,0,.3-.71l2.23-7.73-2.61-.69.75-2.57,2.61.67L36.9,3.31l1.82.55L36,13.25l11.39,2.94-.72,2.64Zm8-8c-.76.37-1.56.74-2.42,1.12s-1.73.72-2.62,1-1.78.61-2.67.88-1.73.49-2.53.66L37.64,10c.78-.17,1.59-.39,2.45-.66s1.71-.57,2.57-.9,1.72-.68,2.56-1.06,1.62-.76,2.36-1.16Z"/><path class="cls-1" d="M65.51,28.21l-6.65-1.78-2,7.93-2.07-.58,2.05-7.9-6.6-1.77L53.39,12.2l6.53,1.63L61.17,9l2,.6L62,14.34,68.54,16Zm-8-5,1.72-6.63L54.71,15.4,53,22Zm8.26-5-4.5-1.14-1.71,6.66,4.53,1.19Z"/><path class="cls-1" d="M69.25,30.69c.41-.71.83-1.48,1.26-2.3s.87-1.67,1.31-2.54.86-1.74,1.28-2.61.81-1.72,1.18-2.55l1.94,1.15c-.35.81-.74,1.67-1.16,2.56s-.85,1.79-1.29,2.69-.9,1.78-1.37,2.64-.91,1.68-1.35,2.45Zm7.21,3.14a5,5,0,0,0-.16,1,1.18,1.18,0,0,0,.09.62.91.91,0,0,0,.37.41,5,5,0,0,0,.7.35,11.69,11.69,0,0,0,2.26.62,3.31,3.31,0,0,0,.91,0,1.23,1.23,0,0,0,.6-.22,1.56,1.56,0,0,0,.4-.52,8.57,8.57,0,0,0,.35-.85c.18-.46.35-.92.5-1.38s.31-1,.48-1.61l2,1.61c-.19.67-.37,1.22-.52,1.66s-.33.93-.54,1.45a13,13,0,0,1-.8,1.69,3,3,0,0,1-.87,1,2.21,2.21,0,0,1-1.15.4A6.63,6.63,0,0,1,79.45,40a18.29,18.29,0,0,1-3.16-.88,7.6,7.6,0,0,1-1.43-.71,2.27,2.27,0,0,1-.84-1,3.28,3.28,0,0,1-.26-1.47,10.73,10.73,0,0,1,.32-2.16l3.48-14.7,2.2.66Zm5.85-19.62q.78,2.43,1.43,4.59c.43,1.45.86,2.95,1.28,4.51l-2.23,1.61c-.37-1.59-.75-3.15-1.16-4.68s-.85-3.12-1.31-4.77Zm5.48,9.29q.42,2.89.75,5.73t.62,5.82L86.84,36q-.25-3-.56-5.9c-.2-1.95-.43-3.9-.7-5.87Z"/><path class="cls-1" d="M4.75,36.58l6.56,2L7.42,51.27a7.63,7.63,0,0,1-.51,1.32,2,2,0,0,1-.58.72,1.27,1.27,0,0,1-.74.25,4.15,4.15,0,0,1-1-.11l-.71-.15.3-2.82,1,.2a.59.59,0,0,0,.5-.12,2.43,2.43,0,0,0,.41-.9l.42-1.38-3.3-1.07-1.57,5L0,51.7Zm7.19-5.86c.1.38.19.81.29,1.31s.2,1,.29,1.53.19,1,.27,1.57.15,1,.22,1.44L11.14,38c0-.22,0-.46-.05-.73s-.05-.53-.08-.82l-1.34-.3L8,35.84l-1.74-.3c-.57-.1-1-.16-1.41-.2l.39-2.65a.86.86,0,0,0,.52-.15l.49-.36c.17-.14.41-.36.73-.67s.65-.65,1-1,.73-.81,1.1-1.26.68-.89,1-1.3l1.25,1.63c-.29.36-.6.73-.92,1.11l-1,1.09c-.32.35-.62.67-.91,1s-.54.52-.75.7l2.94.59-.37-2.19ZM7.21,46l.51-1.64-3.3-1-.51,1.64ZM5.63,39.42,5.12,41l3.29,1,.5-1.63Zm11,11.45c-.16.46-.33.89-.5,1.29s-.34.8-.52,1.2a9.76,9.76,0,0,1-.66,1.24,2.38,2.38,0,0,1-.66.73,1.59,1.59,0,0,1-.79.27,2.87,2.87,0,0,1-1-.13,24.12,24.12,0,0,1-2.87-.95,1.63,1.63,0,0,1-1.06-1.17A4.74,4.74,0,0,1,8.8,51l2.75-9,1.68.64-1.12,3.7,1.29-.43c.45-.15.88-.31,1.32-.48s.84-.33,1.23-.49a9.28,9.28,0,0,0,1-.49l.12,2.78c-.37.16-.8.34-1.28.52l-1.53.54c-.53.17-1.06.34-1.58.49l-1.48.42-.45,1.5a2.11,2.11,0,0,0-.14,1.13,1,1,0,0,0,.57.52,6.85,6.85,0,0,0,1.45.48,2.12,2.12,0,0,0,.57.06.73.73,0,0,0,.4-.15,1.19,1.19,0,0,0,.32-.39,7.45,7.45,0,0,0,.34-.69c.28-.63.57-1.37.87-2.24Zm-3.27-9a1.53,1.53,0,0,1-1-1.09,4.51,4.51,0,0,1,.27-2.27l2.63-8.63,1.67.6-1.12,3.7c.41-.11.83-.24,1.26-.37l1.28-.43L19.45,33a7.43,7.43,0,0,0,.92-.42l.06,2.66a9.69,9.69,0,0,1-1.14.45l-1.43.47c-.51.16-1,.32-1.53.46L14.92,37l-.37,1.22a2.38,2.38,0,0,0-.16,1q0,.27.45.45a8.92,8.92,0,0,0,1.65.51,1.72,1.72,0,0,0,.53,0,.71.71,0,0,0,.38-.15,1.51,1.51,0,0,0,.29-.38,6.14,6.14,0,0,0,.28-.61l.33-.81c.12-.29.24-.61.36-1L20,38.81l-.4,1c-.12.3-.26.62-.41,1a12.58,12.58,0,0,1-.63,1.2,2.27,2.27,0,0,1-.61.7,1.45,1.45,0,0,1-.72.28,2.58,2.58,0,0,1-.92-.09A28.86,28.86,0,0,1,13.31,41.9Z"/><path class="cls-1" d="M39.1,42.39c-.09.34-.26.91-.51,1.7s-.52,1.71-.83,2.73l-1,3.28q-.54,1.74-1,3.33c-.33,1.06-.62,2-.88,2.87s-.46,1.48-.59,1.89a9.46,9.46,0,0,1-.81,2,3,3,0,0,1-1,1.11,2.46,2.46,0,0,1-1.31.38,6.41,6.41,0,0,1-1.74-.21l-1.8-.41.2-3.27,1.79.4a8.26,8.26,0,0,0,1.21.16,1.33,1.33,0,0,0,.81-.21,1.79,1.79,0,0,0,.57-.72,10.18,10.18,0,0,0,.52-1.35c.09-.27.23-.7.41-1.29s.39-1.26.62-2,.47-1.53.73-2.36.5-1.62.73-2.37l.6-2c.18-.59.31-1,.39-1.31L30.56,43c-.5,1.5-1,2.84-1.45,4a33.34,33.34,0,0,1-1.47,3.25A20.69,20.69,0,0,1,26,52.92a18,18,0,0,1-1.93,2.18A21.85,21.85,0,0,1,21.73,57c-.86.62-1.82,1.25-2.89,1.88l-.69-3c1-.53,1.84-1,2.6-1.55a18.42,18.42,0,0,0,2.09-1.58A14.33,14.33,0,0,0,24.55,51,15.67,15.67,0,0,0,26,48.79,23.77,23.77,0,0,0,27.31,46c.42-1,.86-2.23,1.31-3.57l-5-1.53L24.44,38l5.09,1.52c.14-.46.29-.93.44-1.41s.3-1,.45-1.41l.39-1.27c.12-.39.22-.73.31-1l1.86.66c0,.17-.12.44-.23.82s-.23.8-.38,1.26-.29,1-.45,1.47-.31,1-.46,1.46Z"/><path class="cls-1" d="M52.75,62.73a8.22,8.22,0,0,0,1.35,3.11,11.82,11.82,0,0,0,3,2.78l-1.25,2.57A12.19,12.19,0,0,1,51,64.05,7.87,7.87,0,0,1,48,66.21a13.35,13.35,0,0,1-4.4.94l0-2.85a10.71,10.71,0,0,0,3.9-.64,5.4,5.4,0,0,0,2.39-1.85l-4.32-1.4.61-2.35L51,59.6a2.06,2.06,0,0,0,.1-.32c.06-.18.12-.38.18-.62s.13-.48.19-.72l-4-1.28L48,54.28l-1.45,1c-.06-.45-.13-.9-.21-1.36s-.18-.9-.29-1.33L42.52,66.12l-1.76-.58,3.41-12.87c-.58,1-1.17,1.94-1.75,2.84s-1.16,1.72-1.71,2.43l-.87-2.57c.43-.53.89-1.14,1.38-1.8s1-1.38,1.47-2.12,1-1.51,1.44-2.28.91-1.54,1.32-2.3l-2.07-.63.7-2.6,2.3.69,1.32-5,1.7.62-1.29,4.9,2,.61-.68,2.63-2-.62L46.75,50l.44-.34c.16.49.34,1.1.53,1.83s.35,1.43.47,2.08l1.67-6.4,10,3-2.4,9.66-4.09-1.3c-.06.24-.12.48-.19.7s-.12.44-.17.64l-.09.33,5.25,1.68-.59,2.39ZM52.39,46l-2.46-.74.64-2.47L53,43.5,53.68,41l1.71.62L54.77,44l2.67.79.64-2.54,1.71.63-.61,2.43,2.81.83-.63,2.51-2.81-.84-.4,1.61L56.4,48.9l.41-1.6-2.68-.8-.4,1.59L52,47.57ZM49.67,54.9,56.32,57l.38-1.51L50.06,53.4ZM51,50l-.4,1.54,6.64,2L57.58,52Z"/><path class="cls-1" d="M79.72,74.83l-.63,2.87L60,71.35l.67-2.78L69,71.31l.78-3.37-6.14-2,.64-2.66,6.13,2,.41-1.75,2.12.8-.38,1.64,6.3,2-.61,2.73-6.31-2L71.15,72Zm-16.83-14c.5-.43.93-.82,1.29-1.19a11.64,11.64,0,0,0,1-1.08,7.29,7.29,0,0,0,.71-1.12,11.72,11.72,0,0,0,.56-1.28l-2.27-.7.63-2.59,2.39.72.19-.8.75-3.12-1.85-.56.64-2.65,10,2.94-.62,2.7-1.86-.56-.92,4,2.3.69-.61,2.65-2.3-.71-1.23,5.29-2-.64,1.23-5.27-2.44-.75a18.71,18.71,0,0,1-.73,1.91,10.92,10.92,0,0,1-.9,1.61,11.18,11.18,0,0,1-1.17,1.44,15.43,15.43,0,0,1-1.54,1.4Zm6.25-6.64,2.33.71.93-4-2.33-.69-.75,3.16Zm8,7.2-2-.62,2.42-10.57,2,.7Zm-1.37.76,1.66.32a1.85,1.85,0,0,0,1.13,0c.24-.13.44-.53.59-1.21l2.57-11.43,2,.71L81,62.66a8.1,8.1,0,0,1-.51,1.68,2.46,2.46,0,0,1-.69,1,1.66,1.66,0,0,1-1,.36,6.07,6.07,0,0,1-1.43-.14l-1.67-.33Z"/></g></g></svg>