<?xml version="1.0" encoding="UTF-8"?><svg id="_层_2" xmlns="http://www.w3.org/2000/svg" viewBox="0 0 45.16 55.67"><defs><style>.cls-1{fill:#a2291f;}</style></defs><g id="_层_1-2"><g><path class="cls-1" d="M22.58,49.92c-8.4,0-15.23-6.83-15.23-15.23,0-5.73,3.27-14.24,8.76-18.58,.42-.33,1.03-.26,1.37,.16,.33,.42,.26,1.03-.16,1.37-4.95,3.92-8.02,11.9-8.02,17.05,0,7.33,5.96,13.29,13.29,13.29s13.29-5.96,13.29-13.29c0-5.15-3.06-13.13-8.02-17.05-.42-.33-.49-.94-.16-1.37,.33-.42,.94-.49,1.37-.16,5.48,4.33,8.75,12.85,8.75,18.58,0,8.4-6.83,15.23-15.23,15.23Z"/><path class="cls-1" d="M22.58,29.29c-.54,0-.97-.44-.97-.97,0-4.49-2.12-8.65-5.4-10.62-.46-.28-.61-.87-.34-1.33,.28-.46,.87-.61,1.33-.34,3.92,2.34,6.35,7.05,6.35,12.29,0,.54-.44,.97-.97,.97Z"/><path class="cls-1" d="M22.58,29.29c-.54,0-.97-.44-.97-.97,0-5.24,2.43-9.94,6.35-12.29,.46-.27,1.06-.13,1.33,.34,.28,.46,.13,1.06-.34,1.33-3.28,1.96-5.4,6.13-5.4,10.62,0,.54-.44,.97-.97,.97Z"/><path class="cls-1" d="M12.38,12.78c-1.31,0-2.67-.19-4-.68C2.78,10.05,.18,3.53,.07,3.25c-.18-.46,.01-.98,.44-1.21,.26-.14,6.47-3.42,12.07-1.36,5.6,2.06,8.2,8.58,8.31,8.86,.18,.46-.01,.98-.44,1.21-.2,.11-3.86,2.04-8.06,2.04ZM2.26,3.37c.85,1.7,3.11,5.56,6.79,6.91,3.69,1.36,7.9-.12,9.65-.87-.85-1.7-3.11-5.56-6.79-6.91h0c-3.68-1.36-7.9,.12-9.65,.87Z"/><path class="cls-1" d="M22.58,34.15c-.54,0-.97-.44-.97-.97,0-.68,.01-1.59,.03-2.63,.06-3.76,.15-9.43-.34-12.53-.49-3.05-1.19-5.51-2.19-7.73-.22-.49,0-1.07,.48-1.29,.49-.22,1.06,0,1.29,.48,1.08,2.38,1.82,5,2.34,8.23,.52,3.26,.43,9.04,.37,12.87-.02,1.03-.03,1.92-.03,2.6,0,.54-.44,.97-.97,.97Z"/><path class="cls-1" d="M32.78,12.78c-4.21,0-7.86-1.93-8.06-2.04-.43-.23-.62-.75-.44-1.21,.11-.28,2.71-6.8,8.31-8.86,5.6-2.06,11.81,1.22,12.07,1.36,.43,.23,.62,.75,.44,1.21-.11,.28-2.71,6.8-8.31,8.86-1.33,.49-2.69,.68-4,.68Zm-6.32-3.37c1.75,.75,5.97,2.22,9.65,.87,3.69-1.36,5.95-5.21,6.79-6.91-1.75-.75-5.97-2.22-9.65-.87h0c-3.7,1.36-5.95,5.21-6.79,6.91Zm6.46-7.83h0Z"/><path class="cls-1" d="M22.58,34.15c-.54,0-.97-.44-.97-.97,0-.68-.01-1.57-.03-2.6-.06-3.82-.16-9.61,.37-12.87,.52-3.23,1.26-5.84,2.34-8.23,.22-.49,.8-.71,1.29-.48,.49,.22,.71,.8,.48,1.29-1.01,2.22-1.7,4.68-2.19,7.73-.5,3.09-.4,8.77-.34,12.53,.02,1.04,.03,1.95,.03,2.63,0,.54-.44,.97-.97,.97Z"/><path class="cls-1" d="M15.62,55.67c-.21,0-.43-.07-.61-.21-1.2-.96-1.59-2.62-.95-4.04,.51-1.14,1.89-1.44,3.62-1.83,1.4-.31,2.99-.67,4.4-1.49,.46-.27,1.06-.12,1.33,.35,.27,.46,.12,1.06-.35,1.33-1.67,.98-3.49,1.38-4.96,1.71-.84,.19-2.1,.47-2.28,.73-.22,.49-.2,1.24,.39,1.71,.42,.34,.49,.95,.15,1.37-.19,.24-.47,.37-.76,.37Z"/><path class="cls-1" d="M11.64,52.35c-.41,0-.8-.27-.93-.68-.56-1.82-.09-3.28,1.38-4.21,1.08-.69,2.29-.31,3.45,.05,.27,.08,.56,.17,.85,.25,1.84,.5,3.87,.58,6.03,.22,.53-.09,1.03,.27,1.12,.8,.09,.53-.27,1.03-.8,1.12-2.43,.4-4.74,.31-6.86-.26-.32-.09-.63-.18-.92-.27-.81-.25-1.51-.47-1.83-.27-.5,.32-.95,.73-.56,1.99,.16,.51-.13,1.06-.64,1.22-.1,.03-.19,.04-.29,.04Z"/><path class="cls-1" d="M29.54,55.67c-.29,0-.57-.12-.76-.37-.34-.42-.27-1.03,.15-1.37,.59-.47,.61-1.22,.39-1.72-.17-.26-1.44-.54-2.27-.73-1.47-.33-3.29-.73-4.96-1.71-.46-.27-.62-.87-.35-1.33,.27-.46,.87-.62,1.33-.35,1.4,.82,3,1.18,4.4,1.49,1.74,.39,3.11,.69,3.62,1.83,.64,1.42,.25,3.08-.95,4.04-.18,.14-.39,.21-.61,.21Z"/><path class="cls-1" d="M33.52,52.35c-.1,0-.19-.01-.29-.04-.51-.16-.8-.7-.64-1.22,.39-1.26-.07-1.67-.57-1.99-.32-.2-1.02,.02-1.83,.27-.29,.09-.6,.19-.92,.28-2.12,.58-4.42,.67-6.86,.26-.53-.09-.89-.59-.8-1.12,.09-.53,.59-.89,1.12-.8,2.16,.35,4.18,.28,6.03-.22,.3-.08,.58-.17,.85-.25,1.17-.36,2.37-.74,3.45-.05,1.47,.93,1.94,2.39,1.38,4.21-.13,.42-.51,.68-.93,.68Z"/></g></g></svg>