<?xml version="1.0" encoding="UTF-8"?><svg id="_层_2" xmlns="http://www.w3.org/2000/svg" viewBox="0 0 39.72 32.86"><defs><style>.cls-1{fill:#b42f2d;}</style></defs><g id="_层_2-2"><g><path class="cls-1" d="M0,29.75L8.86,14.01c.53-.9,.92-1.77,1.18-2.62,.26-.85,.39-1.8,.39-2.85v-1.3c0-1.36-.3-2.41-.91-3.13-.6-.73-1.52-1.09-2.76-1.09-1.05,0-1.89,.36-2.51,1.09-.62,.73-.93,1.76-.93,3.09v1.86H0v-2.18C0,4.76,.62,3.09,1.86,1.86,3.09,.62,4.78,0,6.92,0s3.82,.62,5.06,1.86c1.24,1.24,1.86,2.89,1.86,4.97v1.72c0,1.33-.17,2.52-.51,3.57-.34,1.05-.88,2.21-1.62,3.48L3.9,29.42H13.69v3.02H0v-2.69Z"/><path class="cls-1" d="M17.91,28.31h3.62v4.13h-3.62v-4.13Z"/><path class="cls-1" d="M25.85,24.36V8.45c0-5.63,2.32-8.45,6.96-8.45s6.92,2.82,6.92,8.45v15.92c0,5.66-2.31,8.49-6.92,8.49s-6.96-2.83-6.96-8.49Zm9.72,4.13c.51-.9,.77-2.44,.77-4.64V9c0-2.2-.26-3.74-.77-4.64-.51-.9-1.43-1.35-2.76-1.35s-2.26,.45-2.78,1.35c-.53,.9-.79,2.44-.79,4.64v14.85c0,2.2,.26,3.74,.79,4.64,.53,.9,1.45,1.35,2.78,1.35s2.25-.45,2.76-1.35Z"/></g></g></svg>