<?xml version="1.0" encoding="UTF-8"?><svg id="_层_2" xmlns="http://www.w3.org/2000/svg" viewBox="0 0 58.94 49.72"><defs><style>.cls-1{fill:#a2291f;}.cls-2{fill:none;stroke:#a2291f;stroke-linecap:round;stroke-linejoin:round;stroke-width:2px;}</style></defs><g id="_层_1-2"><g><path class="cls-1" d="M15.71,12.78c-1.31,0-2.67-.19-4-.68C6.11,10.05,3.5,3.53,3.4,3.25c-.18-.46,.01-.98,.44-1.21,.26-.14,6.47-3.42,12.07-1.36,5.6,2.06,8.2,8.58,8.31,8.86,.18,.46-.01,.98-.44,1.21-.2,.11-3.86,2.04-8.06,2.04ZM5.59,3.37c.85,1.7,3.11,5.56,6.79,6.91,3.69,1.36,7.9-.12,9.65-.87-.85-1.7-3.11-5.56-6.79-6.91h0c-3.68-1.36-7.9,.12-9.65,.87Z"/><path class="cls-1" d="M25.91,34.15c-.54,0-.97-.44-.97-.97,0-.68,.01-1.59,.03-2.63,.06-3.76,.15-9.43-.34-12.53-.49-3.05-1.19-5.51-2.19-7.73-.22-.49,0-1.07,.48-1.29,.49-.22,1.06,0,1.29,.48,1.08,2.38,1.82,5,2.34,8.23,.52,3.26,.43,9.04,.37,12.87-.02,1.03-.03,1.92-.03,2.6,0,.54-.44,.97-.97,.97Z"/><path class="cls-1" d="M36.11,12.78c-4.21,0-7.86-1.93-8.06-2.04-.43-.23-.62-.75-.44-1.21,.11-.28,2.71-6.8,8.31-8.86,5.6-2.06,11.81,1.22,12.07,1.36,.43,.23,.62,.75,.44,1.21-.11,.28-2.71,6.8-8.31,8.86-1.33,.49-2.69,.68-4,.68Zm-6.32-3.37c1.75,.75,5.97,2.22,9.65,.87,3.69-1.36,5.95-5.21,6.79-6.91-1.75-.75-5.97-2.22-9.65-.87h0c-3.7,1.36-5.95,5.21-6.79,6.91Zm6.46-7.83h0Z"/><path class="cls-1" d="M25.91,34.15c-.54,0-.97-.44-.97-.97,0-.68-.01-1.57-.03-2.6-.06-3.82-.16-9.61,.37-12.87,.52-3.23,1.26-5.84,2.34-8.23,.22-.49,.8-.71,1.29-.48,.49,.22,.71,.8,.48,1.29-1.01,2.22-1.7,4.68-2.19,7.73-.5,3.09-.4,8.77-.34,12.53,.02,1.04,.03,1.95,.03,2.63,0,.54-.44,.97-.97,.97Z"/><path class="cls-2" d="M1.25,43.91H49.74s-.42-5.39-3.5-9.14c-4.11-4.99-13.47-6.51-20.32-.62,0,0-4.91-8.04-16.06-4.54C-1.3,33.12,1.25,43.91,1.25,43.91Z"/><path class="cls-1" d="M57.89,44.96h-3.07c-.58,0-1.05-.47-1.05-1.05s.47-1.05,1.05-1.05h3.07c.58,0,1.05,.47,1.05,1.05s-.47,1.05-1.05,1.05Z"/><path class="cls-1" d="M6.19,49.72H3.12c-.58,0-1.05-.47-1.05-1.05s.47-1.05,1.05-1.05h3.07c.58,0,1.05,.47,1.05,1.05s-.47,1.05-1.05,1.05Z"/><path class="cls-1" d="M12.02,41.35h-3.07c-.58,0-1.05-.47-1.05-1.05s.47-1.05,1.05-1.05h3.07c.58,0,1.05,.47,1.05,1.05s-.47,1.05-1.05,1.05Z"/></g></g></svg>