<?xml version="1.0" encoding="UTF-8"?><svg id="_层_2" xmlns="http://www.w3.org/2000/svg" viewBox="0 0 72.05 54.15"><defs><style>.cls-1{fill:#666;}</style></defs><g id="_层_1-2"><g><path class="cls-1" d="M45.54,38.99l-9.28,12.61s-.15,.05-.29,.05-.24-.03-.29-.05l-9.18-12.61h19.04m.32-2.5H26.19c-2.05,0-3.35,1.72-2.33,3.11l9.85,13.52c.5,.69,1.39,1.03,2.27,1.03s1.77-.34,2.27-1.02l9.96-13.53c1.01-1.39-.28-3.11-2.33-3.11h0Z"/><path class="cls-1" d="M69.1,2.5l-6.99,10.34c-.23,.34-.89,.68-1.72,.68H11.65c-.83,0-1.49-.34-1.72-.68L2.95,2.5H69.1m.27-2.5H2.69C.67,0-.63,1.67,.31,3.05L7.87,14.24c.74,1.09,2.2,1.78,3.79,1.78H60.4c1.59,0,3.05-.69,3.79-1.78l7.56-11.19c.94-1.39-.36-3.05-2.37-3.05h0Z"/><path class="cls-1" d="M57.27,20.63l-7.47,10.26c-.23,.32-.86,.66-1.7,.66H23.95c-.84,0-1.47-.34-1.7-.66l-7.47-10.26H57.27m.31-2.5H14.46c-2.05,0-3.35,1.72-2.33,3.11l8.1,11.12c.76,1.04,2.18,1.69,3.72,1.69h24.14c1.54,0,2.96-.64,3.72-1.69l8.1-11.12c1.01-1.39-.28-3.11-2.33-3.11h0Z"/></g></g></svg>