<?xml version="1.0" encoding="UTF-8"?><svg id="_层_2" xmlns="http://www.w3.org/2000/svg" viewBox="0 0 102.4 68.37"><defs><style>.cls-1{fill:#666;}</style></defs><g id="_层_1-2"><g><path class="cls-1" d="M19.79,56.38c-3.84,0-6.97-3.13-6.97-6.97v-2.28c0-3.85,3.13-6.97,6.97-6.97s6.97,3.13,6.97,6.97v2.28c0,3.85-3.13,6.97-6.97,6.97Zm0-13.77c-2.49,0-4.52,2.03-4.52,4.52v2.28c0,2.49,2.03,4.52,4.52,4.52s4.52-2.03,4.52-4.52v-2.28c0-2.49-2.03-4.52-4.52-4.52Z"/><path class="cls-1" d="M19.79,61.7c-2.24,0-4.05-1.82-4.05-4.06v-3.04c0-.68,.55-1.23,1.23-1.23s1.23,.55,1.23,1.23v3.04c0,.88,.72,1.6,1.6,1.6s1.6-.72,1.6-1.6v-3.04c0-.68,.55-1.23,1.23-1.23s1.23,.55,1.23,1.23v3.04c0,2.24-1.82,4.06-4.06,4.06Z"/><path class="cls-1" d="M9.98,67.98c-.07,0-.14,0-.21-.02-.67-.12-1.11-.75-1-1.42l1.4-8.04c.34-1.94,2.01-3.35,3.99-3.35h2.8c.68,0,1.23,.55,1.23,1.23s-.55,1.23-1.23,1.23h-2.8c-.78,0-1.43,.55-1.57,1.32l-1.4,8.04c-.1,.6-.62,1.02-1.21,1.02Z"/><path class="cls-1" d="M29.59,67.92c-.59,0-1.1-.42-1.21-1.02l-1.39-7.98c-.13-.76-.79-1.32-1.57-1.32h-2.8c-.68,0-1.23-.55-1.23-1.23s.55-1.23,1.23-1.23h2.8c1.97,0,3.65,1.41,3.99,3.35l1.39,7.98c.12,.67-.33,1.3-1,1.42-.07,.01-.14,.02-.21,.02Z"/><path class="cls-1" d="M70.44,46.19H36.16c-.68,0-1.23-.55-1.23-1.23s.55-1.23,1.23-1.23h34.28c.68,0,1.23,.55,1.23,1.23s-.55,1.23-1.23,1.23Z"/><path class="cls-1" d="M70.44,52.49H36.16c-.68,0-1.23-.55-1.23-1.23s.55-1.23,1.23-1.23h34.28c.68,0,1.23,.55,1.23,1.23s-.55,1.23-1.23,1.23Z"/><path class="cls-1" d="M53.3,58.78h-17.14c-.68,0-1.23-.55-1.23-1.23s.55-1.23,1.23-1.23h17.14c.68,0,1.23,.55,1.23,1.23s-.55,1.23-1.23,1.23Z"/><path class="cls-1" d="M82.61,20.23c-3.84,0-6.97-3.13-6.97-6.97v-2.28c0-3.85,3.13-6.97,6.97-6.97s6.97,3.13,6.97,6.97v2.28c0,3.85-3.13,6.97-6.97,6.97Zm0-13.77c-2.49,0-4.52,2.03-4.52,4.52v2.28c0,2.49,2.03,4.52,4.52,4.52s4.52-2.03,4.52-4.52v-2.28c0-2.49-2.03-4.52-4.52-4.52Z"/><path class="cls-1" d="M82.61,25.55c-2.24,0-4.06-1.82-4.06-4.06v-3.04c0-.68,.55-1.23,1.23-1.23s1.23,.55,1.23,1.23v3.04c0,.88,.72,1.6,1.6,1.6s1.6-.72,1.6-1.6v-3.04c0-.68,.55-1.23,1.23-1.23s1.23,.55,1.23,1.23v3.04c0,2.24-1.82,4.06-4.05,4.06Z"/><path class="cls-1" d="M72.8,31.83c-.07,0-.14,0-.21-.02-.67-.12-1.11-.75-1-1.42l1.4-8.04c.34-1.94,2.01-3.35,3.99-3.35h2.8c.68,0,1.23,.55,1.23,1.23s-.55,1.23-1.23,1.23h-2.8c-.78,0-1.43,.55-1.57,1.32l-1.4,8.04c-.1,.6-.62,1.02-1.21,1.02Z"/><path class="cls-1" d="M92.41,31.77c-.59,0-1.1-.42-1.21-1.02l-1.39-7.98c-.13-.76-.79-1.32-1.57-1.32h-2.8c-.68,0-1.23-.55-1.23-1.23s.55-1.23,1.23-1.23h2.8c1.97,0,3.65,1.41,3.98,3.35l1.39,7.98c.12,.67-.33,1.3-1,1.42-.07,.01-.14,.02-.21,.02Z"/><path class="cls-1" d="M66.24,10.04H31.96c-.68,0-1.23-.55-1.23-1.23s.55-1.23,1.23-1.23h34.28c.68,0,1.23,.55,1.23,1.23s-.55,1.23-1.23,1.23Z"/><path class="cls-1" d="M66.24,16.34H31.96c-.68,0-1.23-.55-1.23-1.23s.55-1.23,1.23-1.23h34.28c.68,0,1.23,.55,1.23,1.23s-.55,1.23-1.23,1.23Z"/><path class="cls-1" d="M49.1,22.63H31.96c-.68,0-1.23-.55-1.23-1.23s.55-1.23,1.23-1.23h17.14c.68,0,1.23,.55,1.23,1.23s-.55,1.23-1.23,1.23Z"/><path class="cls-1" d="M99.16,32.22H57.32c-.68,0-1.23-.55-1.23-1.23s.55-1.23,1.23-1.23h41.85c.43,0,.78-.35,.78-.78V3.24c0-.43-.35-.78-.78-.78H25.29c-.43,0-.78,.35-.78,.78V28.98c0,.43,.35,.78,.78,.78h25.45c.68,0,1.23,.55,1.23,1.23s-.55,1.23-1.23,1.23H25.29c-1.79,0-3.24-1.45-3.24-3.24V3.24c0-1.79,1.45-3.24,3.24-3.24H99.16c1.79,0,3.24,1.45,3.24,3.24V28.98c0,1.79-1.45,3.24-3.24,3.24Z"/><path class="cls-1" d="M77.11,68.37H3.24c-1.79,0-3.24-1.45-3.24-3.24v-25.74c0-1.79,1.45-3.24,3.24-3.24H77.11c1.79,0,3.24,1.45,3.24,3.24v13.09c0,.68-.55,1.23-1.23,1.23s-1.23-.55-1.23-1.23v-13.09c0-.43-.35-.78-.78-.78H3.24c-.43,0-.79,.35-.79,.78v25.74c0,.43,.35,.78,.79,.78H77.11c.43,0,.78-.35,.78-.78v-6.08c0-.68,.55-1.23,1.23-1.23s1.23,.55,1.23,1.23v6.08c0,1.79-1.45,3.24-3.24,3.24Z"/></g></g></svg>