<?xml version="1.0" encoding="UTF-8"?><svg id="_层_2" xmlns="http://www.w3.org/2000/svg" viewBox="0 0 25.94 32.86"><defs><style>.cls-1{fill:#b52f2d;}</style></defs><g id="_层_2-2"><g><path class="cls-1" d="M0,24.36V8.45C0,2.82,2.32,0,6.96,0s6.92,2.82,6.92,8.45v15.92c0,5.66-2.31,8.49-6.92,8.49S0,30.02,0,24.36Zm9.72,4.13c.51-.9,.77-2.44,.77-4.64V9c0-2.2-.26-3.74-.77-4.64-.51-.9-1.43-1.35-2.76-1.35s-2.26,.45-2.78,1.35c-.53,.9-.79,2.44-.79,4.64v14.85c0,2.2,.26,3.74,.79,4.64,.53,.9,1.45,1.35,2.78,1.35s2.25-.45,2.76-1.35Z"/><path class="cls-1" d="M22.83,4.36l-4.73,3.71v-3.94L22.83,.42h3.11V32.44h-3.11V4.36Z"/></g></g></svg>