<?xml version="1.0" encoding="UTF-8"?><svg id="_层_2" xmlns="http://www.w3.org/2000/svg" viewBox="0 0 102.4 68.37"><defs><style>.cls-1{fill:#943327;}</style></defs><g id="_层_1-2"><g><path class="cls-1" d="M19.79,40.15c-3.84,0-6.97,3.13-6.97,6.97v2.28c0,3.85,3.13,6.97,6.97,6.97s6.97-3.13,6.97-6.97v-2.28c0-3.85-3.13-6.97-6.97-6.97h0Zm0,13.77c-2.49,0-4.52-2.03-4.52-4.52v-2.28c0-2.49,2.03-4.52,4.52-4.52s4.52,2.03,4.52,4.52v2.28c0,2.49-2.03,4.52-4.52,4.52h0Z"/><path class="cls-1" d="M22.62,53.38c-.68,0-1.23,.55-1.23,1.23v3.04c0,.88-.72,1.6-1.6,1.6s-1.6-.72-1.6-1.6v-3.04c0-.68-.55-1.23-1.23-1.23s-1.23,.55-1.23,1.23v3.04c0,2.24,1.82,4.06,4.05,4.06s4.06-1.82,4.06-4.06v-3.04c0-.68-.55-1.23-1.23-1.23h0Z"/><path class="cls-1" d="M16.96,55.15h-2.8c-1.97,0-3.65,1.41-3.99,3.35l-1.4,8.04c-.12,.67,.33,1.3,1,1.42,.07,.01,.14,.02,.21,.02,.59,0,1.1-.42,1.21-1.02l1.4-8.04c.13-.76,.79-1.32,1.57-1.32h2.8c.68,0,1.23-.55,1.23-1.23s-.55-1.23-1.23-1.23h0Z"/><path class="cls-1" d="M25.42,55.15h-2.8c-.68,0-1.23,.55-1.23,1.23s.55,1.23,1.23,1.23h2.8c.78,0,1.43,.55,1.57,1.32l1.39,7.98c.1,.6,.62,1.02,1.21,1.02,.07,0,.14,0,.21-.02,.67-.12,1.11-.75,1-1.42l-1.39-7.98c-.34-1.94-2.01-3.35-3.99-3.35h0Z"/><path class="cls-1" d="M70.44,43.74H36.16c-.68,0-1.23,.55-1.23,1.23s.55,1.23,1.23,1.23h34.28c.68,0,1.23-.55,1.23-1.23s-.55-1.23-1.23-1.23h0Z"/><path class="cls-1" d="M70.44,50.03H36.16c-.68,0-1.23,.55-1.23,1.23s.55,1.23,1.23,1.23h34.28c.68,0,1.23-.55,1.23-1.23s-.55-1.23-1.23-1.23h0Z"/><path class="cls-1" d="M53.3,56.33h-17.14c-.68,0-1.23,.55-1.23,1.23s.55,1.23,1.23,1.23h17.14c.68,0,1.23-.55,1.23-1.23s-.55-1.23-1.23-1.23h0Z"/><path class="cls-1" d="M82.61,4c-3.84,0-6.97,3.13-6.97,6.97v2.28c0,3.85,3.13,6.97,6.97,6.97s6.97-3.13,6.97-6.97v-2.28c0-3.85-3.13-6.97-6.97-6.97h0Zm0,13.77c-2.49,0-4.52-2.03-4.52-4.52v-2.28c0-2.49,2.03-4.52,4.52-4.52s4.52,2.03,4.52,4.52v2.28c0,2.49-2.03,4.52-4.52,4.52h0Z"/><path class="cls-1" d="M85.44,17.23c-.68,0-1.23,.55-1.23,1.23v3.04c0,.88-.72,1.6-1.6,1.6s-1.6-.72-1.6-1.6v-3.04c0-.68-.55-1.23-1.23-1.23s-1.23,.55-1.23,1.23v3.04c0,2.24,1.82,4.06,4.06,4.06s4.05-1.82,4.05-4.06v-3.04c0-.68-.55-1.23-1.23-1.23h0Z"/><path class="cls-1" d="M79.78,19h-2.8c-1.97,0-3.65,1.41-3.99,3.35l-1.4,8.04c-.12,.67,.33,1.3,1,1.42,.07,.01,.14,.02,.21,.02,.59,0,1.1-.42,1.21-1.02l1.4-8.04c.13-.76,.79-1.32,1.57-1.32h2.8c.68,0,1.23-.55,1.23-1.23s-.55-1.23-1.23-1.23h0Z"/><path class="cls-1" d="M88.24,19h-2.8c-.68,0-1.23,.55-1.23,1.23s.55,1.23,1.23,1.23h2.8c.77,0,1.43,.55,1.57,1.32l1.39,7.98c.1,.6,.62,1.02,1.21,1.02,.07,0,.14,0,.21-.02,.67-.12,1.11-.75,1-1.42l-1.39-7.98c-.34-1.94-2.01-3.35-3.98-3.35h0Z"/><path class="cls-1" d="M66.24,7.59H31.96c-.68,0-1.23,.55-1.23,1.23s.55,1.23,1.23,1.23h34.28c.68,0,1.23-.55,1.23-1.23s-.55-1.23-1.23-1.23h0Z"/><path class="cls-1" d="M66.24,13.88H31.96c-.68,0-1.23,.55-1.23,1.23s.55,1.23,1.23,1.23h34.28c.68,0,1.23-.55,1.23-1.23s-.55-1.23-1.23-1.23h0Z"/><path class="cls-1" d="M49.1,20.18H31.96c-.68,0-1.23,.55-1.23,1.23s.55,1.23,1.23,1.23h17.14c.68,0,1.23-.55,1.23-1.23s-.55-1.23-1.23-1.23h0Z"/><path class="cls-1" d="M99.16,0H25.29c-1.79,0-3.24,1.45-3.24,3.24V28.98c0,1.79,1.45,3.24,3.24,3.24h25.45c.68,0,1.23-.55,1.23-1.23s-.55-1.23-1.23-1.23H25.29c-.43,0-.78-.35-.78-.78V3.24c0-.43,.35-.78,.78-.78H99.16c.43,0,.78,.35,.78,.78V28.98c0,.43-.35,.78-.78,.78H57.32c-.68,0-1.23,.55-1.23,1.23s.55,1.23,1.23,1.23h41.85c1.79,0,3.24-1.45,3.24-3.24V3.24c0-1.79-1.45-3.24-3.24-3.24h0Z"/><path class="cls-1" d="M77.11,36.15H3.24c-1.79,0-3.24,1.45-3.24,3.24v25.74c0,1.79,1.45,3.24,3.24,3.24H77.11c1.79,0,3.24-1.45,3.24-3.24v-6.08c0-.68-.55-1.23-1.23-1.23s-1.23,.55-1.23,1.23v6.08c0,.43-.35,.78-.78,.78H3.24c-.43,0-.79-.35-.79-.78v-25.74c0-.43,.35-.78,.79-.78H77.11c.43,0,.78,.35,.78,.78v13.09c0,.68,.55,1.23,1.23,1.23s1.23-.55,1.23-1.23v-13.09c0-1.79-1.45-3.24-3.24-3.24h0Z"/></g></g></svg>