<?xml version="1.0" encoding="UTF-8"?><svg id="_层_2" xmlns="http://www.w3.org/2000/svg" viewBox="0 0 65.17 68.36"><defs><style>.cls-1{fill:#943327;}</style></defs><g id="_层_1-2"><g><path class="cls-1" d="M20.78,19.59H6.5c-.95,0-1.71,.77-1.71,1.71v3.43c0,.95,.77,1.71,1.71,1.71h14.28c.95,0,1.71-.77,1.71-1.71v-3.43c0-.95-.77-1.71-1.71-1.71Zm-.29,4.85H6.79v-2.85h13.7v2.85Z"/><path class="cls-1" d="M20.78,28.46H6.5c-.95,0-1.71,.77-1.71,1.71v3.43c0,.95,.77,1.71,1.71,1.71h14.28c.95,0,1.71-.77,1.71-1.71v-3.43c0-.95-.77-1.71-1.71-1.71Zm-.29,4.85H6.79v-2.85h13.7v2.85Z"/><path class="cls-1" d="M20.78,37.33H6.5c-.95,0-1.71,.77-1.71,1.71v3.43c0,.95,.77,1.71,1.71,1.71h14.28c.95,0,1.71-.77,1.71-1.71v-3.43c0-.95-.77-1.71-1.71-1.71Zm-.29,4.85H6.79v-2.85h13.7v2.85Z"/><path class="cls-1" d="M20.78,46.21H6.5c-.95,0-1.71,.77-1.71,1.71v3.43c0,.95,.77,1.71,1.71,1.71h14.28c.95,0,1.71-.77,1.71-1.71v-3.43c0-.95-.77-1.71-1.71-1.71Zm-.29,4.85H6.79v-2.85h13.7v2.85Z"/><path class="cls-1" d="M65.17,36.46c0-8.06-5.69-14.78-13.26-16.39V10.07c0-3.07-2.5-5.57-5.57-5.57h-12.35V1.95c0-1.08-.87-1.95-1.95-1.95h-12c-1.08,0-1.95,.87-1.95,1.95v2.55H5.57C2.5,4.5,0,7,0,10.07V62.79c0,3.07,2.5,5.57,5.57,5.57H46.34c3.07,0,5.57-2.5,5.57-5.57v-9.94c7.58-1.61,13.26-8.33,13.26-16.39ZM20.09,2h11.9v2.5h-11.9V2ZM2,10.07c0-1.97,1.6-3.57,3.57-3.57H46.34c1.97,0,3.57,1.6,3.57,3.57v5.44s-.01,0-.02,0H2v-5.44Zm44.34,56.29H5.57c-1.97,0-3.57-1.6-3.57-3.57v-5.37H49.91v5.37c0,1.97-1.6,3.57-3.57,3.57Zm3.57-10.93s-.01,0-.02,0H2V17.5H49.91v2.28c-.49-.04-.99-.08-1.5-.08-9.26,0-16.76,7.5-16.76,16.76s7.5,16.76,16.76,16.76c.51,0,1-.03,1.5-.08v2.28Zm-1.5-4.2c-8.14,0-14.76-6.62-14.76-14.76s6.62-14.76,14.76-14.76,14.76,6.62,14.76,14.76-6.62,14.76-14.76,14.76Z"/><path class="cls-1" d="M57.35,28.75c-.36-.42-.99-.46-1.41-.1-.42,.36-.46,.99-.1,1.41,1.54,1.78,2.38,4.05,2.38,6.41,0,5.4-4.4,9.8-9.8,9.8s-9.8-4.4-9.8-9.8c0-4.51,3.06-8.3,7.21-9.44l-.07,.07c-.39,.39-.39,1.02,0,1.41,.2,.2,.45,.29,.71,.29s.51-.1,.71-.29l2.14-2.14c.2-.2,.31-.48,.29-.76-.02-.28-.15-.55-.38-.73l-2.34-1.86c-.43-.35-1.06-.27-1.41,.16-.34,.43-.27,1.06,.16,1.4l.41,.32c-5.37,1.1-9.42,5.87-9.42,11.56,0,6.51,5.29,11.8,11.8,11.8s11.8-5.29,11.8-11.8c0-2.83-1.02-5.57-2.87-7.71Z"/></g></g></svg>