<svg xmlns="http://www.w3.org/2000/svg" viewBox="0 0 61.61 50.54"><defs><style>.cls-1{fill:#666;}</style></defs><g id="图层_2" data-name="图层 2"><g id="图层_1-2" data-name="图层 1"><path class="cls-1" d="M59.11,2.5v9.78H2.5V2.5H59.11M59.44,0H2.17A2.17,2.17,0,0,0,0,2.17V12.61a2.17,2.17,0,0,0,2.17,2.17H59.44a2.17,2.17,0,0,0,2.17-2.17V2.17A2.17,2.17,0,0,0,59.44,0Z"/><path class="cls-1" d="M59.11,20.38v9.78H2.5V20.38H59.11m.33-2.5H2.17A2.17,2.17,0,0,0,0,20.05V30.49a2.17,2.17,0,0,0,2.17,2.17H59.44a2.17,2.17,0,0,0,2.17-2.17V20.05a2.17,2.17,0,0,0-2.17-2.17Z"/><path class="cls-1" d="M59.11,38.26V48H2.5V38.26H59.11m.33-2.5H2.17A2.18,2.18,0,0,0,0,37.94V48.37a2.17,2.17,0,0,0,2.17,2.17H59.44a2.17,2.17,0,0,0,2.17-2.17V37.94a2.18,2.18,0,0,0-2.17-2.18Z"/></g></g></svg>