<svg xmlns="http://www.w3.org/2000/svg" viewBox="0 0 70.96 70.97"><defs><style>.cls-1{fill:#943327;}</style></defs><g id="图层_2" data-name="图层 2"><g id="图层_1-2" data-name="图层 1"><g id="Outline"><g id="Hosting-server-cloud"><path class="cls-1" d="M23.65,21.3h14.2v2.36H23.65Z"/><path class="cls-1" d="M40.21,21.3h2.37v2.36H40.21Z"/><path class="cls-1" d="M44.94,21.3h2.37v2.36H44.94Z"/><path class="cls-1" d="M23.65,30.76h14.2v2.36H23.65Z"/><path class="cls-1" d="M40.21,30.76h2.37v2.36H40.21Z"/><path class="cls-1" d="M44.94,30.76h2.37v2.36H44.94Z"/><path class="cls-1" d="M23.65,40.22h14.2v2.36H23.65Z"/><path class="cls-1" d="M40.21,40.22h2.37v2.36H40.21Z"/><path class="cls-1" d="M44.94,40.22h2.37v2.36H44.94Z"/><path class="cls-1" d="M66.23,48.5A4.73,4.73,0,0,0,61.65,52H48.49V47.31A3.56,3.56,0,0,0,52,43.77V40.22h7.09a11.83,11.83,0,0,0,0-23.66,13.81,13.81,0,0,0-1.92.16,22.47,22.47,0,0,0-41.55-4.81,14.19,14.19,0,1,0-1.46,28.31h4.73v3.55a3.56,3.56,0,0,0,3.55,3.54V52H9.31a4.74,4.74,0,1,0,0,2.37H23.65a1.18,1.18,0,0,0,1.19-1.18V47.31H27.2v9.46H17.74A1.18,1.18,0,0,0,16.56,58v3.69a4.73,4.73,0,1,0,2.36,0V59.14h9.46A1.18,1.18,0,0,0,29.57,58V47.31H34.3v12a4.73,4.73,0,1,0,2.36,0v-12h4.73V58a1.18,1.18,0,0,0,1.19,1.18H52v2.51a4.73,4.73,0,1,0,2.36,0V58a1.18,1.18,0,0,0-1.18-1.19H43.76V47.31h2.36v5.92a1.18,1.18,0,0,0,1.19,1.18H61.65a4.73,4.73,0,1,0,4.58-5.91ZM4.73,55.59A2.37,2.37,0,1,1,7.1,53.23,2.36,2.36,0,0,1,4.73,55.59ZM20.11,66.24a2.37,2.37,0,1,1-2.37-2.37A2.37,2.37,0,0,1,20.11,66.24Zm17.74-2.37a2.37,2.37,0,1,1-2.37-2.36A2.37,2.37,0,0,1,37.85,63.87Zm17.73,2.37a2.37,2.37,0,1,1-2.36-2.37A2.36,2.36,0,0,1,55.58,66.24ZM21.29,24.84V20.11a1.18,1.18,0,0,1,1.18-1.18h26a1.18,1.18,0,0,1,1.18,1.18v4.73A1.18,1.18,0,0,1,48.49,26h-26A1.18,1.18,0,0,1,21.29,24.84Zm0,9.46V29.57a1.18,1.18,0,0,1,1.18-1.18h26a1.18,1.18,0,0,1,1.18,1.18V34.3a1.18,1.18,0,0,1-1.18,1.19h-26A1.18,1.18,0,0,1,21.29,34.3ZM2.37,26A11.83,11.83,0,0,1,14.19,14.2a11.46,11.46,0,0,1,1.94.16,1.19,1.19,0,0,0,1.26-.65,20.1,20.1,0,0,1,37.77,4.65,1.18,1.18,0,0,0,1.4.92l.08,0a9.46,9.46,0,1,1,2.49,18.59h-7.3a3.45,3.45,0,0,0-.7-1.18A3.56,3.56,0,0,0,52,34.3V29.57a3.55,3.55,0,0,0-.91-2.36A3.56,3.56,0,0,0,52,24.84V20.11a3.56,3.56,0,0,0-3.55-3.55h-26a3.56,3.56,0,0,0-3.55,3.55v4.73a3.56,3.56,0,0,0,.91,2.37,3.55,3.55,0,0,0-.91,2.36V34.3a3.56,3.56,0,0,0,.91,2.37,3.45,3.45,0,0,0-.7,1.18H14.19A11.83,11.83,0,0,1,2.37,26ZM21.29,43.77V39a1.18,1.18,0,0,1,1.18-1.18h26A1.18,1.18,0,0,1,49.67,39v4.74A1.18,1.18,0,0,1,48.49,45h-26A1.18,1.18,0,0,1,21.29,43.77ZM66.23,55.59a2.37,2.37,0,1,1,2.36-2.36A2.37,2.37,0,0,1,66.23,55.59Z"/></g></g></g></g></svg>