<svg xmlns="http://www.w3.org/2000/svg" viewBox="0 0 75.69 68.17"><defs><style>.cls-1{fill:#8d8d8d;}</style></defs><g id="图层_2" data-name="图层 2"><g id="图层_1-2" data-name="图层 1"><path class="cls-1" d="M71,.15H36.42a1.11,1.11,0,1,0,0,2.22H71a2.51,2.51,0,0,1,2.5,2.51V52.54A2.5,2.5,0,0,1,71,55H36.42a1.11,1.11,0,1,0,0,2.22H46v3.88H36.42a1.11,1.11,0,1,0,0,2.22h9.92L47.48,66H24.06a1.11,1.11,0,0,0,0,2.22H51.94a1.11,1.11,0,0,0,0-2.22h-2L48.18,62V57.26H71a4.73,4.73,0,0,0,4.73-4.72V4.88A4.73,4.73,0,0,0,71,.15Z"/><path class="cls-1" d="M36.42,46.42a1.12,1.12,0,1,0,0,2.23H70.13a1.11,1.11,0,0,0,1.11-1.11V5.71A1.11,1.11,0,0,0,70.13,4.6H66.65a1.11,1.11,0,1,0,0,2.22H69v39.6Z"/><path class="cls-1" d="M61.91,4.6H36.42a1.11,1.11,0,1,0,0,2.22H61.91a1.11,1.11,0,1,0,0-2.22Z"/><circle class="cls-1" cx="37.89" cy="51.75" r="1.48"/><path class="cls-1" d="M24.88,58.39a2.06,2.06,0,0,0,2.06,2.06h4.52a1.12,1.12,0,1,0,0-2.23H27.1V55a1.12,1.12,0,0,0-.92-1.1,23.61,23.61,0,0,1-9.86-4.08,1.12,1.12,0,0,0-1.43.12l-2.26,2.27L8.22,47.82l2.26-2.27a1.1,1.1,0,0,0,.12-1.43,23.84,23.84,0,0,1-4.08-9.85,1.11,1.11,0,0,0-1.1-.93H2.23V27.11h3.2a1.11,1.11,0,0,0,1.09-.93,23.88,23.88,0,0,1,4.08-9.86,1.1,1.1,0,0,0-.12-1.43L8.22,12.63l4.41-4.41,2.26,2.26a1.1,1.1,0,0,0,1.43.12,23.88,23.88,0,0,1,9.86-4.08,1.11,1.11,0,0,0,.93-1.09V2.23h4.35a1.12,1.12,0,1,0,0-2.23H26.94a2.06,2.06,0,0,0-2.06,2.06V4.5a26.24,26.24,0,0,0-9.06,3.76L14.09,6.53a2.08,2.08,0,0,0-2.92,0L6.53,11.17a2.08,2.08,0,0,0,0,2.92l1.73,1.72A26.37,26.37,0,0,0,4.5,24.88H2.06A2.06,2.06,0,0,0,0,26.94v6.57a2.06,2.06,0,0,0,2.06,2.06H4.5a26.32,26.32,0,0,0,3.76,9.06L6.53,46.36a2.06,2.06,0,0,0,0,2.91l4.64,4.65a2.08,2.08,0,0,0,2.92,0l1.72-1.73a26.35,26.35,0,0,0,9.07,3.75v2.45Z"/><path class="cls-1" d="M30.22,12.12a1.11,1.11,0,1,0,0-2.22A20.33,20.33,0,0,0,13.44,41.69a1.12,1.12,0,0,0,.92.48,1.11,1.11,0,0,0,.92-1.74,17.93,17.93,0,0,1-3.16-10.21,18.12,18.12,0,0,1,18.1-18.1Z"/><path class="cls-1" d="M16.81,45.5a20.35,20.35,0,0,0,13.41,5,1.12,1.12,0,1,0,0-2.23,18.07,18.07,0,0,1-11.94-4.5,1.12,1.12,0,0,0-1.47,1.68Z"/><path class="cls-1" d="M62.3,15.13V12.46a2,2,0,0,0-2-2H57.64a2,2,0,0,0-2,2v.22H46.12a1.11,1.11,0,0,0-.79.33l-5,5H24.06a1.12,1.12,0,0,0,0,2.23H40.83a1.11,1.11,0,0,0,.78-.33l5-5h9.07v.22a2,2,0,0,0,2,2h2.67A2,2,0,0,0,62.3,15.13Zm-2.23-.24H57.88V12.7h2.19Z"/><path class="cls-1" d="M57.06,28.94h2.17a2,2,0,0,0,2-2V24.79a2,2,0,0,0-2-2H57.06a2,2,0,0,0-2,1.82h-5a1.11,1.11,0,0,0-.79.33l-3.44,3.43H25.25a1.12,1.12,0,0,0,0,2.23H46.33a1.11,1.11,0,0,0,.79-.33l3.44-3.43h4.52V27a2,2,0,0,0,2,2ZM57.3,25H59v1.68H57.3Z"/><path class="cls-1" d="M62.41,36.43H60.25a2,2,0,0,0-2,2H53.75L50.32,35a1.12,1.12,0,0,0-.79-.32H28.92a1.11,1.11,0,1,0,0,2.22H49.07l3.43,3.44a1.1,1.1,0,0,0,.79.32h5a2,2,0,0,0,2,2h2.16a2,2,0,0,0,2-2V38.42a2,2,0,0,0-2-2Zm-.24,3.91H60.49V38.66h1.68Z"/><path class="cls-1" d="M41.58,25.47a1.11,1.11,0,1,0,0-2.22H26.37a1.11,1.11,0,0,0,0,2.22Z"/></g></g></svg>