<svg xmlns="http://www.w3.org/2000/svg" viewBox="0 0 75.69 75.69"><defs><style>.cls-1{fill:#8d8d8d;}</style></defs><g id="图层_2" data-name="图层 2"><g id="图层_1-2" data-name="图层 1"><path class="cls-1" d="M75.69,26a1.11,1.11,0,0,0-1.11-1.1H66.21V21.18h8.37a1.11,1.11,0,0,0,0-2.22H66.21v-.28a3.45,3.45,0,0,0-1-2.46L59.47,10.5a3.45,3.45,0,0,0-2.46-1h-.28V1.11a1.11,1.11,0,1,0-2.22,0V9.48H50.8V1.11a1.11,1.11,0,1,0-2.21,0V9.48H44.88V1.11a1.11,1.11,0,0,0-2.22,0V9.48H39V1.11a1.11,1.11,0,1,0-2.21,0V9.48H33V1.11a1.11,1.11,0,0,0-2.22,0V9.48H27.1V1.11a1.11,1.11,0,1,0-2.21,0V9.48H21.18V1.11a1.11,1.11,0,1,0-2.22,0V9.48h-.28a3.45,3.45,0,0,0-2.46,1L10.5,16.22a3.45,3.45,0,0,0-1,2.46V19H1.11a1.11,1.11,0,1,0,0,2.22H9.48v3.71H1.11a1.11,1.11,0,1,0,0,2.21H9.48v3.71H1.11a1.11,1.11,0,0,0,0,2.22H9.48v3.71H1.11a1.11,1.11,0,1,0,0,2.21H9.48v3.71H1.11a1.11,1.11,0,0,0,0,2.22H9.48v3.71H1.11a1.11,1.11,0,1,0,0,2.21H9.48v3.71H1.11a1.11,1.11,0,1,0,0,2.22H9.48V57a3.45,3.45,0,0,0,1,2.46l5.72,5.72a3.45,3.45,0,0,0,2.46,1H19v8.37a1.11,1.11,0,0,0,2.22,0V66.21h3.71v8.37a1.11,1.11,0,1,0,2.21,0V66.21h3.71v8.37a1.11,1.11,0,1,0,2.22,0V66.21h3.71v8.37a1.11,1.11,0,1,0,2.21,0V66.21h3.71v8.37a1.11,1.11,0,1,0,2.22,0V66.21h3.71v8.37a1.11,1.11,0,1,0,2.21,0V66.21h3.71v8.37a1.11,1.11,0,0,0,2.22,0V66.21H57a3.45,3.45,0,0,0,2.46-1l5.72-5.72a3.45,3.45,0,0,0,1-2.46v-.28h8.37a1.11,1.11,0,0,0,0-2.22H66.21V50.8h8.37a1.11,1.11,0,1,0,0-2.21H66.21V44.88h8.37a1.11,1.11,0,0,0,0-2.22H66.21V39h8.37a1.11,1.11,0,1,0,0-2.21H66.21V33h8.37a1.11,1.11,0,0,0,0-2.22H66.21V27.1h8.37A1.11,1.11,0,0,0,75.69,26ZM64,57h0a1.24,1.24,0,0,1-.37.89L57.9,63.62A1.24,1.24,0,0,1,57,64H18.68a1.24,1.24,0,0,1-.89-.37L12.07,57.9A1.24,1.24,0,0,1,11.7,57V18.68a1.24,1.24,0,0,1,.37-.89l5.72-5.72a1.24,1.24,0,0,1,.89-.37H57a1.24,1.24,0,0,1,.89.37l5.72,5.72a1.24,1.24,0,0,1,.37.89V57Z"/><path class="cls-1" d="M54.43,17.78a1.11,1.11,0,0,0,0,2.21,1.27,1.27,0,0,1,1.27,1.26v3.64H47.32a.08.08,0,0,1-.07-.08V20h2.44a1.11,1.11,0,1,0,0-2.21H21.25a3.48,3.48,0,0,0-3.47,3.47V54.43a3.48,3.48,0,0,0,3.47,3.48,1.11,1.11,0,1,0,0-2.21A1.27,1.27,0,0,1,20,54.43V21.25A1.27,1.27,0,0,1,21.25,20H39.11v1.47a1.3,1.3,0,0,1-.37.89L35.38,25.7a1.22,1.22,0,0,1-.89.37H31.66a3.48,3.48,0,1,0,0,2.22h2.83a3.43,3.43,0,0,0,2.46-1l3.35-3.35a3.45,3.45,0,0,0,1-2.46V20H45v4.82a2.3,2.3,0,0,0,2.29,2.29H55.7v3.71h-11a3.48,3.48,0,1,0,0,2.22h11v3.71H48.31a3.46,3.46,0,0,0-2.46,1l-3.36,3.36a1.26,1.26,0,0,1-.89.37h-4a3.48,3.48,0,1,0,0,2.21h4a3.43,3.43,0,0,0,2.46-1l3.35-3.35a1.26,1.26,0,0,1,.9-.37H55.7v3.71h-5a3.43,3.43,0,0,0-2.46,1l-6.91,6.91a3.43,3.43,0,0,0-1,2.46V55.7H34.21V53.05a3.43,3.43,0,0,0-1-2.46l-5.72-5.73A1.22,1.22,0,0,1,27.1,44V40a3.48,3.48,0,1,0-2.21,0v4a3.46,3.46,0,0,0,1,2.46l5.73,5.72a1.31,1.31,0,0,1,.37.9V55.7H26a1.11,1.11,0,0,0,0,2.21H54.43a3.48,3.48,0,0,0,3.48-3.48V21.25A3.48,3.48,0,0,0,54.43,17.78ZM28.36,28.44a1.26,1.26,0,1,1,1.27-1.26A1.27,1.27,0,0,1,28.36,28.44Zm13,4.74a1.26,1.26,0,1,1,1.26-1.26A1.26,1.26,0,0,1,41.4,33.18ZM34.29,43.85a1.27,1.27,0,1,1,1.26-1.27A1.26,1.26,0,0,1,34.29,43.85ZM26,37.92a1.26,1.26,0,1,1,1.27-1.26A1.27,1.27,0,0,1,26,37.92ZM55.7,54.43a1.27,1.27,0,0,1-1.27,1.27H42.51V53.05a1.26,1.26,0,0,1,.37-.9l6.9-6.9a1.26,1.26,0,0,1,.9-.37h5Z"/></g></g></svg>