<?xml version="1.0" encoding="UTF-8"?>
<svg xmlns="http://www.w3.org/2000/svg" version="1.1" viewBox="0 0 150 150">
  <defs>
    <style>
      .cls-1 {
        fill: #a02e24;
      }
    </style>
  </defs>
  <!-- Generator: Adobe Illustrator 28.6.0, SVG Export Plug-In . SVG Version: 1.2.0 Build 709)  -->
  <g>
    <g id="_图层_1" data-name="图层_1">
      <g>
        <path class="cls-1" d="M101.71,126.4h-53.59c-2.23,0-4.04-1.81-4.04-4.04v-19.6c0-2.22,1.81-4.04,4.04-4.04h7.99v-4.71h-24.72c-2.45,0-4.44-1.99-4.44-4.44V28.04c0-2.45,1.99-4.44,4.44-4.44h86.79c2.45,0,4.44,1.99,4.44,4.44v62.09c0,2.45-1.99,4.44-4.44,4.44h-24.78v4.29h8.31c2.23,0,4.04,1.81,4.04,4.04v19.45c0,2.23-1.81,4.04-4.04,4.04ZM48.12,102.19c-.32,0-.57.25-.57.57v19.6c0,.32.26.57.57.57h53.59c.32,0,.57-.26.57-.57v-19.45c0-.32-.26-.57-.57-.57h-9.29c-1.37,0-2.49-1.11-2.49-2.49v-6.25c0-1.37,1.11-2.49,2.49-2.49h25.76c.54,0,.98-.44.98-.98V28.04c0-.54-.44-.98-.98-.98H31.39c-.54,0-.98.44-.98.98v61.53c0,.54.44.98.98.98h25.7c1.37,0,2.49,1.11,2.49,2.48v6.67c0,1.37-1.11,2.49-2.49,2.49h-8.97Z"/>
        <path class="cls-1" d="M54.02,68.76c-5.57,0-10.11-4.54-10.11-10.11s4.54-10.11,10.11-10.11,10.11,4.53,10.11,10.11-4.54,10.11-10.11,10.11ZM54.02,52c-3.66,0-6.64,2.98-6.64,6.64s2.98,6.64,6.64,6.64,6.64-2.98,6.64-6.64-2.98-6.64-6.64-6.64Z"/>
        <path class="cls-1" d="M96.03,68.76c-5.57,0-10.11-4.54-10.11-10.11s4.53-10.11,10.11-10.11,10.11,4.53,10.11,10.11-4.54,10.11-10.11,10.11ZM96.03,52c-3.66,0-6.64,2.98-6.64,6.64s2.98,6.64,6.64,6.64,6.64-2.98,6.64-6.64-2.98-6.64-6.64-6.64Z"/>
        <path class="cls-1" d="M22.1,76.52h-1.73c-9.86,0-17.88-8.02-17.88-17.88s8.02-17.88,17.88-17.88h1.73v35.75h0ZM18.64,44.34c-7.13.86-12.68,6.95-12.68,14.31s5.55,13.45,12.68,14.31v-28.62Z"/>
        <path class="cls-1" d="M129.63,76.52h-1.73v-35.75h1.73c9.86,0,17.88,8.02,17.88,17.88s-8.02,17.88-17.88,17.88h0ZM131.36,44.34v28.62c7.13-.86,12.68-6.95,12.68-14.31s-5.55-13.45-12.68-14.31Z"/>
      </g>
    </g>
  </g>
</svg>