<?xml version="1.0" encoding="UTF-8"?>
<svg xmlns="http://www.w3.org/2000/svg" xmlns:xlink="http://www.w3.org/1999/xlink" version="1.1" viewBox="0 0 150 150">
  <defs>
    <style>
      .cls-1 {
        fill: none;
      }

      .cls-2 {
        clip-path: url(#clippath-1);
      }

      .cls-3 {
        clip-path: url(#clippath-3);
      }

      .cls-4 {
        clip-path: url(#clippath-4);
      }

      .cls-5 {
        clip-path: url(#clippath-2);
      }

      .cls-6 {
        fill: #666;
      }

      .cls-7 {
        clip-path: url(#clippath);
      }
    </style>
    <clipPath id="clippath">
      <rect class="cls-1" x="8.05" y="40.05" width="44.55" height="14.45"/>
    </clipPath>
    <clipPath id="clippath-1">
      <rect class="cls-1" x="6.32" y="21.73" width="15.82" height="36.63"/>
    </clipPath>
    <clipPath id="clippath-2">
      <rect class="cls-1" x="1.3" y="38.99" width="41.66" height="13.51"/>
    </clipPath>
    <clipPath id="clippath-3">
      <rect class="cls-1" x="39.43" y="21.73" width="15.82" height="36.63"/>
    </clipPath>
    <clipPath id="clippath-4">
      <rect class="cls-1" x="18.6" y="38.99" width="41.66" height="13.51"/>
    </clipPath>
  </defs>
  <!-- Generator: Adobe Illustrator 28.6.0, SVG Export Plug-In . SVG Version: 1.2.0 Build 709)  -->
  <g>
    <g id="_图层_1" data-name="图层_1">
      <g id="_图层_1-2" data-name="_图层_1">
        <g id="_图层_1-2">
          <g>
            <g>
              <path class="cls-6" d="M92.18,126.78c-.25-1.55-1.71-2.65-3.27-2.4-.81.12-1.61-.26-2.04-1.01-.42-.71-.36-1.59.16-2.24.97-1.23.77-3.04-.45-4.02-1.29-1.04-2.73-1.87-4.28-2.46-1.47-.55-3.12.18-3.7,1.63-.17.42-.48.78-.87,1-.5.29-1.1.35-1.66.16-.55-.19-.99-.61-1.2-1.14-.59-1.46-2.25-2.18-3.72-1.62-1.54.59-2.97,1.42-4.25,2.46-.59.48-.97,1.18-1.05,1.94-.08.75.14,1.5.61,2.09.51.65.57,1.52.16,2.24-.41.71-1.2,1.11-2.03.99-1.56-.23-3,.86-3.25,2.4-.26,1.64-.26,3.29,0,4.93.25,1.55,1.74,2.61,3.26,2.4.82-.12,1.61.26,2.03.98.41.72.35,1.6-.16,2.25-.97,1.23-.77,3.03.45,4.03,1.29,1.04,2.72,1.87,4.27,2.46.33.13.68.19,1.03.19.4,0,.8-.08,1.18-.25.69-.31,1.23-.87,1.51-1.57.31-.77,1.04-1.26,1.86-1.26h0c.82,0,1.55.49,1.86,1.26.59,1.46,2.26,2.19,3.72,1.62.75-.29,1.5-.64,2.21-1.05h0c.71-.41,1.39-.88,2.03-1.4,1.23-.99,1.43-2.8.45-4.04-.51-.65-.57-1.52-.16-2.24.41-.71,1.21-1.11,2.01-.98.76.1,1.51-.08,2.11-.52.61-.44,1.04-1.12,1.16-1.88.26-1.64.26-3.3,0-4.93l.02-.02h0ZM89.69,131.31c-.02.1-.07.18-.15.24-.08.06-.17.08-.28.07-1.84-.27-3.63.61-4.55,2.22-.93,1.61-.79,3.59.36,5.05.13.16.1.4-.06.53-.54.43-1.11.83-1.7,1.17-.61.35-1.23.65-1.86.89-.19.07-.41-.02-.49-.21-.69-1.72-2.34-2.83-4.18-2.83h0c-1.85,0-3.5,1.11-4.19,2.84-.03.09-.11.16-.2.21-.09.04-.18.04-.27,0-1.3-.49-2.51-1.18-3.58-2.06-.16-.13-.19-.36-.06-.52,1.15-1.46,1.3-3.45.36-5.06-.82-1.42-2.3-2.26-3.9-2.26-.22,0-.44,0-.67.05-.19.03-.39-.11-.41-.31-.22-1.37-.22-2.76,0-4.13.03-.2.22-.35.42-.31,1.84.28,3.63-.61,4.56-2.22s.79-3.59-.36-5.05c-.06-.08-.09-.18-.08-.28s.06-.19.13-.25c1.08-.88,2.28-1.57,3.57-2.07.18-.07.41.01.49.22.49,1.21,1.48,2.15,2.72,2.58s2.6.3,3.73-.36c.88-.51,1.57-1.3,1.94-2.24.07-.19.29-.29.47-.21,1.3.49,2.51,1.18,3.59,2.06.15.13.18.36.06.51-1.16,1.47-1.3,3.46-.36,5.07.92,1.62,2.71,2.5,4.57,2.22.21-.03.39.12.41.31.22,1.37.22,2.76,0,4.13h-.03Z"/>
              <path class="cls-6" d="M74.78,124.77c-2.47,1.43-3.32,4.59-1.89,7.06.96,1.66,2.7,2.58,4.48,2.58.88,0,1.76-.22,2.58-.69,1.19-.69,2.05-1.8,2.41-3.14s.18-2.73-.52-3.92c-1.43-2.47-4.59-3.32-7.06-1.89h0ZM79.93,129.94c-.18.69-.62,1.26-1.24,1.61h0c-1.27.73-2.9.3-3.63-.97-.73-1.27-.3-2.9.97-3.63.42-.24.87-.35,1.32-.35.92,0,1.81.48,2.3,1.33.36.61.45,1.33.26,2.02h.02,0Z"/>
            </g>
            <path class="cls-6" d="M97.24,79.22c0-3.88-1.1-7.49-2.99-10.58l11.36-11.36-1.78-1.78-11.03,11.03c-3.51-4.42-8.8-7.33-14.78-7.68v-14.18h-2.51v14.19c-5.96.38-11.23,3.3-14.72,7.72l-10.5-11.24-1.83,1.72,10.88,11.64c-1.86,3.08-2.95,6.67-2.95,10.52,0,4.21,1.28,8.13,3.47,11.38l-11.3,11.3,1.78,1.78,11.07-11.07c3.48,4,8.49,6.62,14.11,6.98v13.86h2.51v-13.86c5.88-.35,11.11-3.16,14.62-7.46l10.71,11.46,1.83-1.72-11.06-11.84c1.97-3.14,3.12-6.84,3.12-10.81h-.01ZM92.23,70.15c1.48,2.51,2.36,5.4,2.46,8.5h-5.61c-.1-2.44-.43-4.73-.91-6.82,1.76-.61,3.13-1.22,4.05-1.67h.01ZM90.79,68.04c-.79.37-1.9.83-3.25,1.29-.69-2.34-1.49-4.34-2.2-5.87,2.11,1.15,3.95,2.71,5.45,4.57h0ZM78.06,61.37c1.28.09,2.52.31,3.71.65.64,1.11,2.19,4,3.37,8.05-2.05.56-4.45,1.02-7.08,1.18v-9.88ZM78.06,73.84c2.87-.16,5.49-.66,7.72-1.27.41,1.87.69,3.91.78,6.08h-8.51v-4.81s.01,0,.01,0ZM78.06,81.16h8.53c-.06,1.62-.28,3.3-.63,5.02-2.73-.77-5.38-1.13-7.89-1.18v-3.84h-.01ZM75.55,61.37v9.93c-2.17-.04-4.45-.34-6.78-.94,1.23-4.35,2.92-7.42,3.53-8.46,1.05-.27,2.14-.46,3.25-.53ZM75.55,81.16v3.87c-2.78.15-5.31.63-7.49,1.21-.36-1.74-.59-3.44-.65-5.09h8.14ZM67.43,78.65c.08-2.05.34-4,.72-5.79,2.56.67,5.04.97,7.4,1.02v4.77s-8.12,0-8.12,0ZM68.78,63.23c-.76,1.62-1.66,3.8-2.4,6.4-1.18-.42-2.37-.95-3.56-1.57,1.61-2.01,3.64-3.67,5.97-4.84h-.01,0ZM61.37,70.17c1.47.78,2.93,1.43,4.38,1.94-.44,2.01-.75,4.21-.84,6.54h-6c.1-3.09.98-5.98,2.45-8.48,0,0,0,0,0,0ZM61.58,88.63c-1.37-2.22-2.29-4.75-2.58-7.46h5.9c.06,1.88.3,3.83.73,5.83-1.72.59-3.1,1.18-4.04,1.64h-.01ZM63.07,90.71c.8-.36,1.89-.8,3.18-1.24.56,1.86,1.32,3.75,2.3,5.64-2.11-1.1-3.97-2.59-5.48-4.4ZM68.7,88.73c2-.53,4.31-.96,6.85-1.12v9.47c-1.11-.08-2.2-.26-3.24-.53-1.68-2.62-2.83-5.24-3.6-7.82h-.01ZM81.77,96.43c-1.19.34-2.43.56-3.7.65v-9.52c2.31.04,4.76.38,7.26,1.07-.76,2.57-1.9,5.18-3.56,7.8ZM85.61,94.81c.91-1.81,1.62-3.6,2.15-5.38.93.35,1.87.77,2.81,1.25-1.38,1.66-3.07,3.06-4.96,4.13ZM92.04,88.62c-1.22-.64-2.44-1.19-3.65-1.65.43-1.99.66-3.93.72-5.81h5.51c-.29,2.71-1.21,5.24-2.58,7.45h0Z"/>
            <path class="cls-6" d="M133.45,99.74h-25.47c-.93,0-1.69.74-1.69,1.65v18.47c0,.91.76,1.65,1.69,1.65h5.7c.61,0,1.18-.32,1.48-.84l3.5-6.05,3.19,2.53c.28.22.63.3.97.23l.57-.2,4.14-7.82c.06,0,.11.03.17.03,1.33,0,2.42-1.05,2.42-2.33s-1.08-2.33-2.42-2.33-2.42,1.05-2.42,2.33c0,.56.23,1.05.57,1.45l-3.51,6.64-3.18-2.53c-.26-.21-.59-.29-.91-.24l-.55.16-4,7.09h-5.51v-18h25.09v18h-12.21l-1.08.13v6.09h-6.33v1.88h14.05v-1.88h-5.84v-4.33h11.59c.93,0,1.69-.74,1.69-1.65v-18.47c0-.91-.76-1.65-1.69-1.65h0,0ZM127.7,106.6c.29,0,.53.2.53.45,0,.49-1.07.49-1.07,0,0-.24.25-.45.53-.45h.01Z"/>
            <path class="cls-6" d="M30.33,43.33c-4.19,0-7.6-3.41-7.6-7.6s3.41-7.6,7.6-7.6,7.6,3.41,7.6,7.6-3.41,7.6-7.6,7.6ZM30.33,30c-3.15,0-5.72,2.57-5.72,5.72s2.57,5.72,5.72,5.72,5.72-2.57,5.72-5.72-2.57-5.72-5.72-5.72Z"/>
            <g>
              <g class="cls-7">
                <path class="cls-6" d="M30.65,66.95c-6.86,0-12.45-5.59-12.45-12.45s5.59-12.45,12.45-12.45,12.45,5.59,12.45,12.45-5.59,12.45-12.45,12.45ZM30.65,43.93c-5.83,0-10.57,4.74-10.57,10.57s4.74,10.57,10.57,10.57,10.57-4.74,10.57-10.57-4.74-10.57-10.57-10.57Z"/>
              </g>
              <rect class="cls-6" x="19.4" y="52.61" width="23" height="1.88"/>
            </g>
            <g class="cls-2">
              <g>
                <path class="cls-6" d="M22.13,42.12c-3.95,0-7.17-3.22-7.17-7.17s3.22-7.17,7.17-7.17,7.17,3.22,7.17,7.17-3.22,7.17-7.17,7.17ZM22.13,29.66c-2.92,0-5.29,2.37-5.29,5.29s2.37,5.29,5.29,5.29,5.29-2.37,5.29-5.29-2.37-5.29-5.29-5.29Z"/>
                <g>
                  <g class="cls-5">
                    <path class="cls-6" d="M22.44,64.2c-6.45,0-11.7-5.25-11.7-11.7s5.25-11.7,11.7-11.7,11.7,5.25,11.7,11.7-5.25,11.7-11.7,11.7ZM22.44,42.68c-5.41,0-9.82,4.41-9.82,9.82s4.41,9.82,9.82,9.82,9.82-4.41,9.82-9.82-4.41-9.82-9.82-9.82Z"/>
                  </g>
                  <rect class="cls-6" x="11.91" y="50.62" width="5.5" height="1.88"/>
                </g>
              </g>
            </g>
            <g class="cls-3">
              <g>
                <path class="cls-6" d="M39.43,42.12c-3.95,0-7.17-3.22-7.17-7.17s3.22-7.17,7.17-7.17,7.17,3.22,7.17,7.17-3.22,7.17-7.17,7.17ZM39.43,29.66c-2.92,0-5.29,2.37-5.29,5.29s2.37,5.29,5.29,5.29,5.29-2.37,5.29-5.29-2.37-5.29-5.29-5.29Z"/>
                <g>
                  <g class="cls-4">
                    <path class="cls-6" d="M39.13,64.2c-6.45,0-11.7-5.25-11.7-11.7s5.25-11.7,11.7-11.7,11.7,5.25,11.7,11.7-5.25,11.7-11.7,11.7ZM39.13,42.68c-5.41,0-9.82,4.41-9.82,9.82s4.41,9.82,9.82,9.82,9.82-4.41,9.82-9.82-4.41-9.82-9.82-9.82Z"/>
                  </g>
                  <rect class="cls-6" x="44.15" y="50.62" width="5.5" height="1.88"/>
                </g>
              </g>
            </g>
            <g>
              <path class="cls-6" d="M50.19,108.11l-16.9-9.64-17.68,9.99,17.7,9.27s16.88-9.62,16.88-9.62ZM20.86,108.38l12.42-7.02,11.83,6.75-11.86,6.76-12.4-6.49h.01Z"/>
              <polygon class="cls-6" points="32.71 122.01 16.86 113.65 15.69 115.87 32.74 124.86 50.22 115.2 49 113 32.71 122.01"/>
              <polygon class="cls-6" points="32.71 130.11 16.86 121.75 15.69 123.98 32.74 132.97 50.22 123.3 49 121.1 32.71 130.11"/>
            </g>
            <g>
              <path class="cls-6" d="M112.19,41.85c.03-.43-.27-.79-.72-.85-.19-.03-.39,0-.58-.03-2.02-.28-3.47-1.34-4.15-3.27-.67-1.91-.28-3.67,1.14-5.11,1.43-1.44,3.18-1.82,5.13-1.19.79.25,1.07.14,1.41-.63,1.15-2.74,3.83-4.54,6.78-4.55,2.98-.01,5.68,1.76,6.85,4.51.35.82.61.94,1.45.65,2.39-.81,5,.31,6.07,2.59,1.06,2.29.23,5.01-1.93,6.31-.77.46-1.61.7-2.52.71-.51,0-.84.36-.83.82,0,.47.35.8.85.79.32,0,.64-.03.96-.07,3.66-.51,6.23-4.21,5.4-7.82-.82-3.62-4.15-5.78-7.81-5.05-.25.04-.37-.01-.5-.25-.52-1-1.21-1.85-2.06-2.6-4.12-3.58-10.51-2.69-13.47,1.91-.2.31-.31.78-.59.92-.27.14-.71-.06-1.06-.11h-.04c-3.89-.32-7.13,2.64-7.17,6.52.04.37.06.74.12,1.11.45,3.07,3.37,5.53,6.46,5.45.46,0,.79-.31.81-.75h0Z"/>
              <path class="cls-6" d="M122.41,51.08c-.34-.13-.4-.28-.4-.61.02-1.82,0-3.64,0-5.47s0-3.74-.02-5.6c0-.48-.34-.82-.78-.83-.44,0-.79.33-.83.79v11.24c0,.27-.07.4-.34.49-1.5.56-2.35,2.12-2.04,3.68.31,1.53,1.66,2.63,3.26,2.62,1.56,0,2.92-1.15,3.18-2.67.27-1.57-.57-3.11-2.04-3.64h0ZM121.27,55.76c-.93,0-1.67-.71-1.67-1.63s.71-1.64,1.65-1.65c.9,0,1.63.73,1.63,1.63s-.72,1.64-1.61,1.65Z"/>
              <path class="cls-6" d="M133.85,51.05c-.22-.08-.32-.18-.31-.43.02-.72,0-1.43,0-2.15,0-1.49-1.06-2.54-2.55-2.55h-2.65c-1.22,0-1.37-.15-1.37-1.37v-5c0-.33-.04-.64-.34-.85-.26-.19-.54-.22-.83-.07-.33.17-.45.44-.45.79v5.57c.02,1.54,1.03,2.54,2.57,2.55h3c.66,0,1,.33,1,.99s-.02,1.31,0,1.96c0,.34-.08.48-.41.61-1.57.59-2.42,2.35-1.94,3.96.5,1.64,2.15,2.63,3.81,2.26,1.44-.3,2.5-1.53,2.59-3,.08-1.42-.78-2.75-2.16-3.26h.04ZM132.75,55.77c-.93,0-1.66-.73-1.66-1.65s.73-1.63,1.63-1.63,1.67.73,1.67,1.64-.75,1.64-1.64,1.64Z"/>
              <path class="cls-6" d="M116.29,38.54c-.53,0-.8.4-.8,1.14v5.27c0,.68-.29.98-.98.98h-3.08c-1.43,0-2.5,1.06-2.51,2.51v2.12c0,.31-.08.43-.38.54-1.58.59-2.42,2.34-1.94,3.98.48,1.62,2.15,2.61,3.79,2.25,1.42-.31,2.5-1.5,2.59-2.88.11-1.54-.71-2.84-2.13-3.38-.24-.09-.35-.19-.34-.46.02-.68,0-1.38,0-2.08,0-.66.34-.99,1-.99h2.93c1.65,0,2.64-1,2.65-2.67v-2.58c0-.87,0-1.75-.02-2.6,0-.76-.28-1.16-.82-1.15h.04ZM111.4,54.09c0,.92-.72,1.66-1.64,1.66s-1.67-.76-1.66-1.66.75-1.62,1.65-1.62,1.63.72,1.65,1.62Z"/>
            </g>
            <g>
              <path class="cls-6" d="M76.98,42.45c-10.58,0-19.18-8.6-19.18-19.18s8.61-19.17,19.18-19.17,19.18,8.6,19.18,19.18-8.6,19.18-19.18,19.18h0ZM76.98,6.61c-9.19,0-16.67,7.48-16.67,16.67s7.48,16.67,16.67,16.67,16.67-7.48,16.67-16.67-7.48-16.67-16.67-16.67Z"/>
              <g>
                <path class="cls-6" d="M71.7,25.27l-1.6,4.41h-1.39l4.91-13.57h1.68l5.12,13.57h-1.49l-1.65-4.41h-5.58ZM76.89,24.04c-1.41-3.82-2.16-5.74-2.44-6.71h-.02c-.33,1.08-1.17,3.44-2.31,6.71h4.77Z"/>
                <path class="cls-6" d="M84.07,16.11v13.57h-1.39v-13.57h1.39Z"/>
              </g>
            </g>
          </g>
        </g>
      </g>
    </g>
  </g>
</svg>