<svg xmlns="http://www.w3.org/2000/svg" xmlns:xlink="http://www.w3.org/1999/xlink" fill="none" version="1.1" width="23.016759872436523" height="23.000041961669922" viewBox="0 0 23.016759872436523 23.000041961669922"><g><path d="M3.13216,8.91105C3.13177,8.72186,3.27854,8.56497,3.46734,8.55276L12.5402,8.55276C12.7165,8.58431,12.8449,8.73769,12.8449,8.91683C12.8449,9.09597,12.7165,9.24936,12.5402,9.2809L3.46734,9.2809C3.27399,9.26852,3.12552,9.10468,3.13216,8.91105ZM11.604,19.3131L3.46734,19.3131C3.26946,19.3131,3.10904,19.4735,3.10904,19.6714C3.10904,19.8692,3.26946,20.0296,3.46734,20.0296L11.5578,20.0296C11.7557,20.0296,11.9161,19.8692,11.9161,19.6714C11.9161,19.4735,11.7557,19.3131,11.5578,19.3131L11.604,19.3131ZM3.46734,6.5995L10.009,6.5995C10.2069,6.5995,10.3673,6.43909,10.3673,6.24121C10.3673,6.04333,10.2069,5.88291,10.009,5.88291L3.46734,5.88291C3.26946,5.88291,3.10905,6.04333,3.10905,6.24121C3.10905,6.43909,3.26946,6.5995,3.46734,6.5995ZM22.7804,21.8211L21.8673,22.7688C21.7154,22.916,21.5125,22.9988,21.301,23C21.0979,23.002,20.9024,22.923,20.7578,22.7804L18.3769,20.4688C18.309,20.5518,18.2066,20.5987,18.0995,20.596L16.0538,20.596L16.0538,22.6417C16.0538,22.8396,15.8934,23,15.6955,23L0.358291,23C0.160413,23,0,22.8396,0,22.6417L0,2.76231C-2.3589e-8,2.56443,0.160413,2.40402,0.358291,2.40402L2.40402,2.40402L2.40402,0.358291C2.40402,0.160412,2.56443,0,2.76231,0L15.6146,0C15.7098,-0.000489255,15.8013,0.0369388,15.8688,0.10402L18.3538,2.58894C18.4209,2.65651,18.4583,2.748,18.4578,2.84322L18.4578,12.0894C19.3015,13.655,19.2531,15.5503,18.3307,17.0709L19.3477,18.0648C19.4471,18.0242,19.5526,18.0008,19.6598,17.9955C19.8657,17.9965,20.0638,18.0749,20.2146,18.2151L22.7688,20.6884C23.0994,21.0028,23.0994,21.5299,22.7688,21.8442L22.7804,21.8211ZM17.903,17.6834C17.809,17.8005,17.7087,17.9124,17.6025,18.0186L18.4925,18.897L18.8045,18.5734L17.903,17.6834ZM18.3422,14.4935C18.3486,12.1223,16.4293,10.1961,14.0581,10.194C11.687,10.1919,9.76422,12.1146,9.76635,14.4858C9.76848,16.8569,11.6947,18.7762,14.0658,18.7698C16.425,18.7635,18.3359,16.8526,18.3422,14.4935ZM13.5688,4.88894L14.8286,4.88894L13.5688,3.62915L13.5688,4.88894ZM15.9729,2.48492L17.2327,2.48492L15.9729,1.22513L15.9729,2.48492ZM3.1206,2.40402L13.2106,2.40402C13.3058,2.40353,13.3973,2.44096,13.4648,2.50804L15.9497,4.99296C16.0168,5.06053,16.0543,5.15202,16.0538,5.24724L16.0538,9.87035C16.6913,10.1326,17.2663,10.5265,17.7412,11.0261L17.7412,3.20151L15.6146,3.20151C15.4167,3.20151,15.2563,3.0411,15.2563,2.84322L15.2563,0.716583L3.1206,0.716583L3.1206,2.40402ZM15.3372,20.2377L15.3372,19.3246C14.9219,19.4317,14.4947,19.4861,14.0658,19.4864C12.4166,19.4954,10.8689,18.6913,9.92814,17.3367L3.46734,17.3367C3.26946,17.3367,3.10905,17.1763,3.10905,16.9784C3.10905,16.7805,3.26946,16.6201,3.46734,16.6201L9.52362,16.6201C9.23888,16.0029,9.08164,15.3347,9.06131,14.6553L3.46734,14.6553C3.26946,14.6553,3.10905,14.4949,3.10905,14.297C3.06477,14.0728,3.23886,13.865,3.46734,13.8693L9.09598,13.8693C9.17632,13.1793,9.40076,12.5138,9.75477,11.9161L3.46734,11.9161C3.26946,11.9161,3.10905,11.7557,3.10905,11.5578C3.10905,11.3599,3.26946,11.1995,3.46734,11.1995L10.2749,11.1995C11.2231,10.0922,12.608,9.45468,14.0658,9.45427C14.4947,9.45462,14.9219,9.50899,15.3372,9.61608L15.3372,5.60553L13.2106,5.60553C13.0127,5.60553,12.8523,5.44511,12.8523,5.24724L12.8523,3.1206L0.716583,3.1206L0.716583,22.2834L15.3372,22.2834L15.3372,20.2377ZM17.7412,19.8794L17.7412,19.1628L17.0593,18.4925C16.7485,18.7248,16.4109,18.9188,16.0538,19.0704L16.0538,19.8794L17.7412,19.8794ZM22.2603,21.2317L19.7176,18.7583L18.8045,19.706C18.781,19.7324,18.781,19.7722,18.8045,19.7985L21.3472,22.2719C21.3704,22.3027,21.4166,22.3027,21.4397,22.2719L22.3643,21.3241L22.2603,21.2317ZM17.7528,14.4935C17.7528,16.5376,16.0945,18.1941,14.0504,18.1919C12.0063,18.1898,10.3515,16.5299,10.3558,14.4857C10.36,12.4416,12.0217,10.7886,14.0658,10.795C16.1066,10.795,17.7592,12.4527,17.7528,14.4935ZM17.0362,14.4935C17.0362,12.853,15.7063,11.5231,14.0658,11.5231C12.4254,11.5231,11.0955,12.853,11.0955,14.4935C11.0955,16.1339,12.4254,17.4638,14.0658,17.4638C15.7037,17.4575,17.0298,16.1313,17.0362,14.4935Z" fill="#898989" fill-opacity="1"/></g></svg>