<svg xmlns="http://www.w3.org/2000/svg" xmlns:xlink="http://www.w3.org/1999/xlink" fill="none" version="1.1" width="22.95550537109375" height="23.000244140625" viewBox="0 0 22.95550537109375 23.000244140625"><g><g><g><path d="M4.37300670715332,9.032961571273804C4.191096707153321,9.027101571273803,4.04497670715332,8.878821571273804,4.03919670715332,8.694231571273804L4.03919670715332,4.381021571273804C4.02702670715332,3.8242115712738034,3.5754447071533204,3.3810825712738035,3.02661370715332,3.387407571273804C2.84469970715332,3.381542571273804,2.6985764071533205,3.2332685712738036,2.6927967071533203,3.0486745712738035C2.6927967071533203,2.8615975712738035,2.8422517071533204,2.7099411438738037,3.02661370715332,2.7099411438738037C3.94413670715332,2.7036518012738036,4.694616707153321,3.4500545712738035,4.70682670715332,4.381021571273804L4.70682670715332,8.716811571273805C4.69509670715332,8.895021571273805,4.549016707153321,9.033361571273804,4.37300670715332,9.032961571273804Z" fill="#9F291F" fill-opacity="1"/></g></g><g><g><path d="M3.33824,21.63373504219055C3.15847,21.60513504219055,3.0376,21.43133504219055,3.07118,21.24983504219055L3.33824,19.352935042190552L0.289374,14.215535042190552C0.1035,13.868735042190552,0.00416835,13.481135042190552,0.0000659754,13.086435042190551L0.0000659754,3.014725042190552C-0.00401325,2.550385042190552,0.181228,2.104977042190552,0.511919,1.7839950421905517C0.836016,1.4641780421905517,1.2728,1.2893312221905517,1.72479,1.2984766581905518C2.62934,1.3578094421905518,3.33428,2.1175260421905517,3.33824,3.037305042190552L3.33824,11.449235042190551C3.34481,11.638935042190552,3.19144,11.794635042190551,3.00442,11.787935042190552C2.82006,11.787935042190552,2.6706,11.636235042190552,2.6706,11.449235042190551L2.6706,3.037305042190552C2.67737,2.474365042190552,2.24542,2.0061700421905515,1.69141,1.9759430421905517C1.11749,1.9631430421905518,0.645446,2.431955042190552,0.645446,3.014725042190552L0.645446,13.075135042190551C0.64452,13.358735042190553,0.713363,13.638235042190551,0.845736,13.888035042190552L3.97249,19.11583504219055C4.00064,19.192335042190553,4.00064,19.276535042190552,3.97249,19.352935042190552L3.67205,21.35153504219055C3.64462,21.51623504219055,3.50289,21.636135042190553,3.33824,21.63373504219055Z" fill="#9F291F" fill-opacity="1"/></g></g><g><g><path d="M11.505580352172851,0.677488C12.814550352172851,0.677488,13.875690352172851,1.75425,13.875690352172851,3.08249C13.875690352172851,4.41074,12.814560352172851,5.4875,11.505580352172851,5.4875C10.19661035217285,5.4875,9.135482352172852,4.41074,9.135481352172851,3.08249C9.129280352172852,1.75165,10.194050352172852,0.671195,11.505580352172851,0.677488ZM11.505580352172851,0.0000211258C9.826450352172852,-0.00621976,8.460832942172852,1.37108,8.456729372172852,3.07494C8.452626332172851,4.77881,9.811590352172852,6.16286,11.490730352172852,6.16495C13.169890352172851,6.16702,14.53219035217285,4.78635,14.53219035217285,3.08249C14.53220035217285,1.38449,13.178930352172852,0.00624063,11.505580352172851,0.0000211258Z" fill="#9F291F" fill-opacity="1"/></g></g><g><g><path d="M18.62700150402832,9.032838401107789C18.44263950402832,9.032838401107789,18.29318519572832,8.881188401107789,18.29318519572832,8.694108401107787L18.29318519572832,4.380898401107788C18.28606894402832,3.413965401107788,19.07686550402832,2.637239901107788,20.02903850402832,2.675944521107788C20.21339850402832,2.675944521107788,20.36284850402832,2.827600401107788,20.36284850402832,3.014677401107788C20.37552850402832,3.212355401107788,20.22416850402832,3.381311401107788,20.02903850402832,3.387284401107788C19.46979850402832,3.387285401107788,19.01645350402832,3.847308401107788,19.016455504028322,4.414778401107788L19.016455504028322,8.716688401107788C18.99917050402832,8.915448401107788,18.82189250402832,9.059358401107788,18.62700150402832,9.032838401107789Z" fill="#9F291F" fill-opacity="1"/></g></g><g><g><path d="M19.650678787719727,21.63373516139984C19.490233787719728,21.63063516139984,19.35470378771973,21.51203516139984,19.327987787719728,21.35153516139984L18.971916787719728,19.35293516139984C18.937617487719727,19.277735161399843,18.937617487719727,19.191035161399842,18.971916787719728,19.11583516139984L22.098671787719727,13.86553516139984C22.224911787719726,13.621835161399842,22.289891787719725,13.35033516139984,22.287831787719725,13.07513516139984L22.287831787719725,3.0147251613998414C22.287971787719727,2.4320851613998413,21.815921787719727,1.9632771613998412,21.241871787719727,1.9759431613998413C20.687861787719726,2.006170161399841,20.255911787719725,2.4743651613998416,20.262671787719725,3.0373051613998414L20.262671787719725,11.44923516139984C20.262671787719725,11.636235161399842,20.113221787719727,11.787935161399842,19.928859787719727,11.787935161399842C19.741844787719728,11.79463516139984,19.588474787719726,11.638935161399841,19.595043787719728,11.44923516139984L19.595043787719728,3.0373051613998414C19.599727787719726,2.109312161399841,20.317421787719727,1.3463632613998413,21.230741787719726,1.2984766433998414C21.682731787719728,1.2893314813998413,22.119521787719727,1.4641781613998412,22.443611787719725,1.7839941613998413C22.774301787719725,2.104978161399841,22.959551787719725,2.5503851613998414,22.955471787719727,3.0147251613998414L22.955471787719727,13.07513516139984C22.953021787719727,13.468635161399842,22.857631787719725,13.855835161399842,22.677291787719728,14.204235161399842L19.606168787719728,19.35293516139984L19.939985787719728,21.23853516139984C19.973571787719727,21.42003516139984,19.852701787719727,21.59383516139984,19.672931787719726,21.622435161399842L19.650678787719727,21.63373516139984Z" fill="#9F291F" fill-opacity="1"/></g></g><g><g><path d="M21.253011654052735,23.000081524658203L12.173190654052734,23.000081524658203C11.988827654052734,23.000081524658203,11.839372877552734,22.8483815246582,11.839372877552734,22.661281524658204L11.839372877552734,17.185111524658204C11.836373994052733,16.3703415246582,12.157302654052735,15.588771524658203,12.729551654052734,15.017221524658204L17.414121654052735,10.263658524658203C17.882501654052735,9.767288124658203,18.598771654052733,9.604784524658204,19.230871654052734,9.851482524658204C19.862981654052735,10.098180524658202,20.287331654052736,10.705845524658203,20.307201654052733,11.392771524658203C20.312871654052735,11.855171524658203,20.131961654052734,12.299831524658202,19.806471654052736,12.623501524658202L15.110781654052735,17.399641524658204C14.975051654052734,17.524581524658203,14.768041654052734,17.524581524658203,14.632311654052735,17.399641524658204C14.497631654052734,17.266651524658204,14.497631654052734,17.047111524658202,14.632311654052735,16.914121524658203L19.339131654052736,12.137981524658203C19.535531654052733,11.946401524658203,19.644391654052733,11.680461524658202,19.639561654052734,11.404061524658204C19.630281654052734,10.985431524658203,19.374211654052736,10.613389524658203,18.990071654052734,10.460431524658203C18.605921654052736,10.307472524658204,18.168841654052734,10.403509524658203,17.881461654052735,10.704012524658204L13.196891654052735,15.457571524658203C12.754628654052734,15.906911524658202,12.506456654052734,16.516171524658205,12.507007654052735,17.151241524658204L12.507007654052735,20.922481524658203L21.008221654052733,20.922481524658203C21.170411654052735,20.920881524658203,21.308541654052732,21.041781524658205,21.330911654052734,21.204781524658202L21.575701654052736,22.582281524658203C21.592901654052735,22.678081524658204,21.568571654052732,22.7768815246582,21.508941654052734,22.853281524658204C21.450601654052733,22.939681524658205,21.356111654052732,22.993881524658203,21.253011654052735,23.000081524658203ZM12.507007654052735,22.322581524658204L20.852431654052737,22.322581524658204L20.730031654052734,21.633781524658204L12.507007654052735,21.633781524658204L12.507007654052735,22.322581524658204Z" fill="#9F291F" fill-opacity="1"/></g></g><g><g><path d="M14.8660051171875,8.197301265869141C15.4431351171875,8.198531265869141,15.9564151171875,8.569906265869141,16.1455951171875,9.12317626586914C13.502845117187501,11.53042626586914,9.4971851171875,11.53042626586914,6.8543911171875,9.12317626586914C7.0436151171875,8.569906265869141,7.5568851171875,8.19853226586914,8.1340251171875,8.197301265869141L14.8660051171875,8.197301265869141ZM14.8660051171875,7.519834098869141L8.189655117187499,7.519834098869141C7.1357051171875,7.489887065869141,6.2354461171875,8.28553626586914,6.1199951171875,9.34899626586914C9.0918751171875,12.36263626586914,13.908155117187501,12.36263626586914,16.879995117187498,9.34899626586914C16.7664951171875,8.30735726586914,15.8987751171875,7.519245624869141,14.8660051171875,7.519834098869141Z" fill="#9F291F" fill-opacity="1"/></g></g><g><g><path d="M10.826777318115234,23.000090368652344L1.7469533181152344,23.000090368652344C1.6480393181152344,22.997790368652346,1.5548353181152343,22.952590368652345,1.4910270181152343,22.875890368652342C1.4247496881152344,22.793990368652345,1.4000455181152345,22.685390368652342,1.4242635381152344,22.582290368652345L1.6690623181152344,21.216090368652345C1.6914263181152345,21.05309036865234,1.8295623181152343,20.932190368652343,1.9917523181152343,20.933790368652346L10.492957318115234,20.933790368652346L10.492957318115234,17.185140368652345C10.493517318115234,16.550080368652345,10.245337318115235,15.940820368652343,9.803077318115234,15.491480368652343L5.118507318115235,10.737917368652344C4.833747318115234,10.420831368652344,4.386177318115235,10.313992368652343,3.9919673181152344,10.468998368652343C3.5977573181152342,10.624004368652344,3.3379973181152343,11.008970368652344,3.3381473181152344,11.437970368652344C3.3333173181152347,11.714360368652343,3.4421873181152343,11.980310368652344,3.6385873181152344,12.171890368652344L8.367657318115235,16.936740368652345C8.502337318115234,17.069730368652344,8.502337318115234,17.289270368652343,8.367657318115235,17.422260368652346C8.231927318115234,17.547190368652345,8.024917318115234,17.547190368652345,7.889187318115234,17.422260368652346L3.1934973181152344,12.657410368652343C2.868007318115234,12.333730368652343,2.6870973181152342,11.889080368652344,2.6927673181152345,11.426670368652344C2.7126373181152346,10.739752368652344,3.1369973181152346,10.132088368652344,3.7690973181152345,9.885390368652343C4.401197318115234,9.638693368652344,5.117467318115235,9.801195868652345,5.585847318115234,10.297564368652344L10.270417318115234,15.017250368652345C10.842667318115234,15.588800368652343,11.163597318115235,16.370370368652345,11.160597318115235,17.185140368652345L11.160597318115235,22.661290368652345C11.167167318115235,22.851090368652343,11.013797318115234,23.006690368652343,10.826777318115234,23.000090368652344ZM2.1475333181152343,22.322590368652342L10.492957318115234,22.322590368652342L10.492957318115234,21.633890368652345L2.2254243181152344,21.633890368652345L2.1475333181152343,22.322590368652342Z" fill="#9F291F" fill-opacity="1"/></g></g></g></svg>