<svg xmlns="http://www.w3.org/2000/svg" xmlns:xlink="http://www.w3.org/1999/xlink" fill="none" version="1.1" width="27" height="19.00146484375" viewBox="0 0 27 19.00146484375"><g><g><path d="M25.2621,3.49474L1.73788,3.49474C0.778077,3.49474,0,2.71241,0,1.74737C0,0.782323,0.778077,0,1.73788,0L25.2621,0C26.2219,0,27,0.782323,27,1.74737C27,2.71241,26.2219,3.49474,25.2621,3.49474ZM1.73788,0.778947C1.20594,0.778947,0.774719,1.21252,0.774719,1.74737C0.774719,2.28221,1.20594,2.71579,1.73788,2.71579L25.2621,2.71579C25.7941,2.71579,26.2253,2.28221,26.2253,1.74737C26.2253,1.21252,25.7941,0.778947,25.2621,0.778947L1.73788,0.778947Z" fill="#898989" fill-opacity="1"/></g><g><path d="M23.91163056640625,19.0001546875L3.14075056640625,19.0001546875C2.50260956640625,19.0299546875,1.96017266640625,18.536254687499998,1.92633056640625,17.8948546875L1.92633056640625,3.1580286875C1.92633069120825,2.9429276875,2.09975756640625,2.7685546875,2.31368956640625,2.7685546875L24.68633056640625,2.7685546875C24.89863056640625,2.7684718684,25.06913056640625,2.9446426875,25.06323056640625,3.1580286875L25.06323056640625,17.8948546875C25.04053056640625,18.5161546875,24.52993056640625,19.0062546875,23.91163056640625,19.0001546875ZM2.70104956640625,3.4948706874999997L2.70104956640625,17.8948546875C2.7009675664062502,18.1083546875,2.87618256640625,18.279754687500002,3.08841056640625,18.2738546875L23.91163056640625,18.2738546875C24.12153056640625,18.2738546875,24.29333056640625,18.1058546875,24.29893056640625,17.8948546875L24.29893056640625,3.4948706874999997L2.70104956640625,3.4948706874999997Z" fill="#898989" fill-opacity="1"/></g><g><path d="M8.103140751953125,9.3051521875L4.627379751953125,9.3051521875C4.413447751953125,9.3051521875,4.240020751953125,9.1307821875,4.240020751953125,8.9156721875L4.240020751953125,5.4314661875C4.240020751953125,5.2163651875,4.413447751953125,5.0419921875,4.627379751953125,5.0419921875L8.103140751953125,5.0419921875C8.315450751953126,5.0419103723,8.485930751953125,5.2180811875,8.480030751953125,5.4314661875L8.480030751953125,8.9156721875C8.485930751953125,9.1290621875,8.315450751953126,9.3052321875,8.103140751953125,9.3051521875ZM5.014739751953125,8.526202187500001L7.715790751953125,8.526202187500001L7.715790751953125,5.8209401875L5.014739751953125,5.8209401875L5.014739751953125,8.526202187500001Z" fill="#898989" fill-opacity="1"/></g><g><rect x="10.416839599609375" y="5.821044921875" width="6.846839904785156" height="0.7789474129676819" rx="0" fill="#898989" fill-opacity="1"/></g><g><rect x="10.416839599609375" y="8.1474609375" width="12.343156814575195" height="0.7789474129676819" rx="0" fill="#898989" fill-opacity="1"/></g><g><path d="M8.103161435546875,15.8843615625L4.627399435546875,15.8843615625C4.415786435546875,15.8788415625,4.245538825546875,15.7076615625,4.240040034546875,15.4948915625L4.240040034546875,12.0001535625C4.228176835546875,11.7751615625,4.403383435546875,11.5847151925,4.627399435546875,11.5791015625L8.103161435546875,11.5791015625C8.313001435546875,11.5848055425,8.480131435546875,11.7575195625,8.480051435546875,11.9685755625L8.480051435546875,15.4633115625C8.498181435546876,15.6865015625,8.325821435546874,15.879051562499999,8.103161435546875,15.8843615625ZM5.014758435546875,15.1054215625L7.715801435546875,15.1054215625L7.715801435546875,12.3896285625L5.014758435546875,12.3896285625L5.014758435546875,15.1054215625Z" fill="#898989" fill-opacity="1"/></g><g><rect x="10.416839599609375" y="12.3896484375" width="6.846839904785156" height="0.7789474129676819" rx="0" fill="#898989" fill-opacity="1"/></g><g><rect x="10.416839599609375" y="14.7158203125" width="12.343156814575195" height="0.7789474129676819" rx="0" fill="#898989" fill-opacity="1"/></g></g></svg>