<svg xmlns="http://www.w3.org/2000/svg" xmlns:xlink="http://www.w3.org/1999/xlink" fill="none" version="1.1" width="21.00274658203125" height="21" viewBox="0 0 21.00274658203125 21"><g><g><path d="M8.53967,0L1.15724,0C0.518116,-7.61901e-8,0,0.518116,0,1.15724L0,8.53967C3.0476e-7,9.1788,0.518116,9.69691,1.15724,9.69691L8.53967,9.69691C9.1788,9.69691,9.69691,9.1788,9.69691,8.53967L9.69691,1.15724C9.69691,0.518116,9.1788,0,8.53967,0ZM9.03848,8.53967C9.03848,8.81516,8.81516,9.03848,8.53967,9.03848L1.15724,9.03848C0.881758,9.03848,0.658432,8.81516,0.658432,8.53967L0.658432,1.15724C0.658432,0.881758,0.881758,0.658432,1.15724,0.658432L8.53967,0.658432C8.81516,0.658432,9.03848,0.881758,9.03848,1.15724L9.03848,8.53967ZM19.8328,9.69691C20.4735,9.69694,20.9945,9.18041,21,8.53967L21,1.15724C20.9945,0.516529,20.4736,0,19.8328,0L12.4603,0C11.8212,-7.61901e-8,11.3031,0.518116,11.3031,1.15724L11.3031,8.53967C11.3031,9.1788,11.8212,9.69691,12.4603,9.69691L12.7097,9.69691L12.7097,13.1886L12.61,13.1886C12.2705,13.1871,11.9442,13.3198,11.7021,13.5577C11.4581,13.8015,11.3185,14.1307,11.3131,14.4755L11.3131,17.219C11.3032,17.7909,11.514,18.3447,11.9017,18.7653L13.7971,20.8903C13.8605,20.9611,13.9515,21.0012,14.0466,21L19.2841,21C19.4146,20.9987,19.532,20.9204,19.5834,20.8005L20.7805,18.1767C20.9224,17.8808,20.9973,17.5572,21,17.229L21,13.6974C21.0469,13.0028,20.4889,12.4171,19.7929,12.4304C19.5431,12.4319,19.2984,12.5008,19.0846,12.6299C18.9154,12.0989,18.4145,11.7446,17.8575,11.762C17.5041,11.7591,17.1637,11.8953,16.9097,12.1411C16.6526,11.8649,16.2893,11.7124,15.9121,11.7221C15.6937,11.7218,15.4784,11.7731,15.2836,11.8717L15.2836,9.69691L19.8328,9.69691ZM12.4603,9.03848C12.181,9.04412,11.9515,8.81915,11.9515,8.53967L11.9515,1.15724C11.9515,0.877815,12.181,0.652844,12.4603,0.658432L19.8328,0.658432C20.1121,0.652789,20.3416,0.87776,20.3416,1.15724L20.3416,8.53967C20.3416,8.8191,20.1122,9.04407,19.8328,9.03848L15.3036,9.03848L15.3036,8.97862C15.3036,8.26624,14.729,7.68719,14.0166,7.68171C13.2981,7.67612,12.7141,8.26005,12.7197,8.97862L12.7197,9.06841L12.4603,9.03848ZM15.962,12.3805C16.319,12.3554,16.6156,12.652,16.5905,13.009L16.5905,13.4879C16.5905,13.6697,16.7379,13.8171,16.9197,13.8171C17.1015,13.8171,17.2489,13.6697,17.2489,13.4879L17.2489,13.0489C17.223,12.6876,17.5265,12.3888,17.8874,12.4204C18.2457,12.396,18.5447,12.6903,18.5259,13.0489L18.5259,13.5078Q18.5259,13.5078,18.5259,13.5677C18.5259,13.6276,18.5259,13.6475,18.5259,13.6874C18.5259,13.8692,18.6733,14.0166,18.8551,14.0166C19.0369,14.0166,19.1843,13.8692,19.1843,13.6874C19.1893,13.339,19.4851,13.066,19.8328,13.0888C19.9625,13.0888,20.3815,13.0888,20.3815,13.6974L20.3815,17.229C20.382,17.4634,20.3309,17.695,20.2318,17.9074L19.1145,20.3416L14.2261,20.3416L12.4304,18.3463C12.1327,18.0471,11.9674,17.6411,11.9715,17.219L11.9715,14.4755C11.9768,14.1252,12.2596,13.8424,12.61,13.8371L12.7097,13.8371L12.7097,15.8323C12.7041,16.0125,12.8487,16.1616,13.029,16.1615C13.2093,16.1616,13.3539,16.0125,13.3482,15.8323L13.3482,13.5178L13.3482,8.97862C13.337,8.62593,13.614,8.33104,13.9667,8.32019C14.3154,8.3256,14.5953,8.60986,14.5953,8.95867L14.5953,12.9492L14.5953,13.458C14.5953,13.6398,14.7426,13.7872,14.9245,13.7872C15.1041,13.782,15.2485,13.6376,15.2537,13.458L15.2537,12.9691C15.2349,12.616,15.5294,12.3261,15.8822,12.3506L15.962,12.3805ZM8.57957,11.3031L1.15724,11.3031C0.518116,11.3031,0,11.8212,0,12.4603L0,19.8328C-0.0000229957,20.4735,0.516506,20.9945,1.15724,21L8.53967,21C9.18038,20.9945,9.69691,20.4736,9.69691,19.8328L9.69691,12.4603C9.69691,11.8212,9.1788,11.3031,8.53967,11.3031L8.57957,11.3031ZM9.07839,19.8328C9.08403,20.1121,8.85906,20.3416,8.57957,20.3416L1.15724,20.3416C0.877814,20.3416,0.652843,20.1122,0.658432,19.8328L0.658432,12.4603C0.652789,12.181,0.87776,11.9515,1.15724,11.9515L8.53967,11.9515C8.8191,11.9515,9.04407,12.181,9.03848,12.4603L9.07839,19.8328ZM7.68171,17.7477C6.99573,18.2985,6.14698,18.6071,5.26746,18.6257C4.45946,18.7007,3.65158,18.4811,2.99287,18.0071C2.29294,17.4884,1.98707,16.5907,2.2247,15.7525C2.54653,14.6926,3.45273,13.9147,4.54917,13.7572C5.33879,13.5919,6.16044,13.8019,6.77387,14.3259C7.2032,14.7538,7.3936,15.3661,7.28266,15.962C7.21747,16.5106,6.90998,17.0011,6.44466,17.2988C6.365,17.3473,6.26493,17.3473,6.18527,17.2988C6.11695,17.2392,6.08321,17.1492,6.09549,17.0594L6.51449,14.715C6.54457,14.5359,6.42408,14.3664,6.24513,14.3359C6.07054,14.3106,5.90572,14.4234,5.86603,14.5953L5.86603,14.685C5.69732,14.5151,5.48776,14.3915,5.25748,14.3259C4.58833,14.1529,3.88456,14.4361,3.52161,15.0242C2.97268,15.6952,2.87468,16.6282,3.27221,17.3986C3.5091,17.7499,3.90595,17.9596,4.32969,17.9572C4.44562,17.972,4.56294,17.972,4.67886,17.9572C4.99131,17.8907,5.28464,17.7543,5.53682,17.5582C5.60057,17.6841,5.6928,17.7934,5.80618,17.8774C6.08311,18.0813,6.45354,18.1047,6.75392,17.9373C7.44507,17.5456,7.90271,16.8424,7.981,16.0518C8.1434,15.2391,7.89313,14.3986,7.31259,13.8071C6.55248,13.1297,5.51481,12.8554,4.51924,13.0689C3.15257,13.2716,2.03398,14.2612,1.66603,15.5929C1.37507,16.6794,1.76915,17.834,2.66366,18.5159C3.37726,19.0379,4.244,19.3081,5.12779,19.2841L5.31734,19.2841C6.33598,19.2684,7.32112,18.9178,8.12066,18.2865C8.22914,18.1643,8.23167,17.9812,8.12661,17.8561C8.02155,17.731,7.84067,17.7019,7.70166,17.7876L7.68171,17.7477ZM4.5791,17.2489C4.31225,17.3354,4.01993,17.2433,3.85083,17.0195C3.60436,16.479,3.69388,15.8446,4.08029,15.3934C4.26106,15.1142,4.55776,14.931,4.88836,14.8945C4.95786,14.8848,5.02837,14.8848,5.09786,14.8945C5.50877,15.0398,5.75087,15.4646,5.66651,15.8922L5.5867,16.3211C5.43886,16.7736,5.05668,17.1099,4.58907,17.1991L4.5791,17.2489ZM7.50214,5.98575L6.33492,5.38717C6.11113,5.24461,5.81448,5.3066,5.66651,5.52684L5.44703,5.88599C5.11477,5.67839,4.8069,5.4341,4.52922,5.15772C4.25284,4.88004,4.00855,4.57217,3.80095,4.23991L4.1601,3.9905C4.38405,3.84971,4.44728,3.55165,4.29976,3.33207L3.70119,2.19477C3.62105,2.02907,3.47702,1.90304,3.30214,1.84561C3.14142,1.79487,2.96656,1.81672,2.82328,1.90546L2.74347,1.99525C2.44756,2.11905,2.18949,2.31862,1.99525,2.57387C1.79047,3.04707,1.76216,3.57801,1.91544,4.07031C2.17553,4.94912,2.65237,5.74843,3.30214,6.39477C3.94663,7.04472,4.74689,7.5187,5.6266,7.7715C5.84954,7.84118,6.08141,7.87815,6.31496,7.88124C6.59502,7.88904,6.87265,7.82735,7.12304,7.70166C7.38983,7.52195,7.60345,7.27388,7.74157,6.98337L7.74157,6.91354C7.82554,6.76861,7.84713,6.59582,7.80143,6.43468C7.76802,6.25009,7.65968,6.08758,7.50214,5.98575ZM7.17292,6.61425C7.08643,6.80209,6.96449,6.97146,6.81378,7.11306C6.49145,7.22965,6.13847,7.22965,5.81615,7.11306C5.04064,6.90013,4.33294,6.49131,3.76105,5.92589C3.19125,5.35796,2.77578,4.65405,2.55392,3.88076C2.43648,3.55859,2.43648,3.20531,2.55392,2.88314C2.69366,2.73468,2.85932,2.61298,3.04276,2.52399L3.10261,2.52399L3.65131,3.59145L3.362,3.77102C3.11443,3.91833,3.02294,4.23201,3.15249,4.48931C3.39006,4.91953,3.68918,5.31275,4.04038,5.65653C4.38416,6.00773,4.77738,6.30685,5.2076,6.54442C5.48394,6.71204,5.84457,6.6057,5.98575,6.31496L6.13539,5.98575L7.20285,6.53444L7.17292,6.61425ZM13.7173,7.14299L18.5858,7.14299C18.8998,7.14299,19.1544,6.8884,19.1544,6.57435L19.1544,3.11259C19.16,2.79469,18.9038,2.53397,18.5858,2.53397L13.7173,2.53397C13.3978,2.53397,13.1387,2.79302,13.1387,3.11259L13.1387,6.58432C13.1441,6.89994,13.4016,7.15297,13.7173,7.15297L13.7173,7.14299ZM15.2537,4.83848L13.7971,6.11544L13.7971,3.58147L15.2537,4.83848ZM14.3458,6.49454L15.7625,5.27743L15.9321,5.43705C15.9939,5.48806,16.0714,5.51624,16.1515,5.51686C16.2284,5.51477,16.3023,5.48663,16.361,5.43705L16.5406,5.27743L17.9572,6.50451L14.3458,6.50451L14.3458,6.49454ZM17.0394,4.83848L18.5059,3.5715L18.5059,6.11544L17.0394,4.83848ZM17.9572,3.1924L16.1615,4.74869L14.3458,3.1924L17.9572,3.1924Z" fill="#9F291F" fill-opacity="1"/></g></g></svg>