<svg xmlns="http://www.w3.org/2000/svg" xmlns:xlink="http://www.w3.org/1999/xlink" fill="none" version="1.1" width="23.000030517578125" height="23.042724609375" viewBox="0 0 23.000030517578125 23.042724609375"><g><g><path d="M20.706420068359375,12.6468L20.706420068359375,11.8859C20.915320068359375,11.8801,21.081620068359374,11.709,21.081620068359374,11.5001L21.081620068359374,9.19577C21.081620068359374,8.98859,20.913620068359375,8.82065,20.706420068359375,8.82065L18.627220068359374,8.82065L18.552220068359375,8.57414C18.388520068359377,7.91274,18.124620068359373,7.28025,17.769820068359376,6.69856L17.619820068359374,6.43062L19.088120068359373,4.93015C19.238220068359375,4.78307,19.238220068359375,4.54136,19.088120068359373,4.39427L17.459020068359376,2.7652C17.311920068359374,2.61508,17.070220068359376,2.61508,16.923120068359374,2.7652L15.454820068359375,4.2871L15.197620068359376,4.13705C14.615920068359374,3.78223,13.983420068359376,3.51839,13.322020068359375,3.35466L13.032620068359375,3.21534L13.032620068359375,1.14684C13.026820068359376,0.937943,12.855820068359375,0.771639,12.646820068359375,0.77172L10.353250068359374,0.77172C10.144280068359375,0.771639,9.973220068359375,0.937943,9.967420068359376,1.14684L9.967420068359376,3.21534L9.645890068359375,3.29036C8.988320068359375,3.46551,8.357420068359374,3.72868,7.770310068359375,4.07275L7.502370068359375,4.2871L6.076920068359375,2.7652C5.929840068359375,2.61508,5.688130068359375,2.61508,5.541040068359375,2.7652L3.911960068359375,4.38356C3.836370068359375,4.45652,3.793790068359375,4.55715,3.794070068359375,4.66221C3.796650068359375,4.76355,3.839000068359375,4.8598,3.911960068359375,4.93015L5.358840068359375,6.43062L5.208800068359375,6.68784C4.864920068359375,7.27633,4.608580068359375,7.91177,4.447850068359375,8.57414L4.372820068359375,8.86352L2.3043200683593748,8.86352C2.095348068359375,8.86344,1.924293068359375,9.02974,1.918488068359375,9.23864L1.918488068359375,11.5429C1.918488068359375,11.756,2.091232068359375,11.9288,2.3043200683593748,11.9288L2.3043200683593748,12.6897C1.666817068359375,12.6957,1.146820068359375,12.1805,1.146820068359375,11.5429L1.146820068359375,9.19577C1.146791960259375,8.5582,1.6667890683593751,8.04302,2.3043200683593748,8.04898L3.783350068359375,8.04898C3.943990068359375,7.52062,4.159520068359376,7.01054,4.426410068359375,6.52708L3.354650068359375,5.45532C2.909090068359375,5.00787,2.909090068359375,4.28441,3.354650068359375,3.83696L4.994440068359375,2.2186C5.447900068359375,1.77752,6.170060068359375,1.77752,6.623520068359375,2.2186L7.695280068359375,3.29036C8.176880068359374,3.02238,8.687480068359374,2.81023,9.217180068359376,2.65802L9.217180068359376,1.14684C9.222880068359375,0.520017,9.726510068359374,0.0116341,10.353250068359374,0.0000516335L12.646820068359375,0.0000516335C13.284320068359374,-0.00593393,13.804320068359376,0.509248,13.804320068359376,1.14684L13.804320068359376,2.63658C14.334020068359376,2.78879,14.844620068359376,3.00094,15.326220068359374,3.26892L16.398020068359376,2.19716C16.847820068359376,1.75739,17.566520068359374,1.75739,18.016320068359374,2.19716L19.645420068359375,3.82624C20.091020068359374,4.27369,20.091020068359374,4.99715,19.645420068359375,5.4446L18.573620068359375,6.51636C18.832820068359375,7.00218,19.044620068359375,7.51184,19.206020068359376,8.03826L20.695720068359375,8.03826C21.329120068359376,8.03826,21.842520068359374,8.5517,21.842520068359374,9.18505L21.842520068359374,11.4893C21.848520068359374,12.1227,21.339820068359376,12.6409,20.706420068359375,12.6468Z" fill="#9F291F" fill-opacity="1"/></g><g><path d="M16.86943212890625,10.353297890625L16.07638212890625,10.353297890625C16.07638212890625,7.813967890624999,14.017852128906249,5.755438890625,11.47852212890625,5.755438890625C8.93919212890625,5.755438890625,6.88066612890625,7.813967890624999,6.88066512890625,10.353297890625L6.13043212890625,10.353297890625C6.13145372890625,7.394427890625,8.53037212890625,4.996337890625,11.48924212890625,4.996337890625C14.44810212890625,4.996337890625,16.84703212890625,7.394427890625,16.848032128906247,10.353297890625L16.86943212890625,10.353297890625Z" fill="#9F291F" fill-opacity="1"/></g><g><path d="M11.499999228515625,13.418384453125C10.227379228515625,13.418384453125,9.195709228515625,12.386724453125,9.195709228515625,11.114104453125C9.195709228515625,9.841474453125,10.227369228515625,8.809814453125,11.499999228515625,8.809814453125C12.772619228515625,8.809814453125,13.804279228515625,9.841474453125,13.804279228515625,11.114104453125C13.804279228515625,12.386724453125,12.772619228515625,13.418384453125,11.499999228515625,13.418384453125ZM11.499999228515625,9.581482453125C10.653559228515626,9.581482453125,9.967378228515624,10.267654453125001,9.967378228515624,11.114104453125C9.967378228515624,11.960544453125,10.653559228515626,12.646724453125,11.499999228515625,12.646724453125C12.346439228515624,12.646724453125,13.032619228515625,11.960544453125,13.032619228515625,11.114104453125C13.032619228515625,10.267654453125001,12.346439228515624,9.581480453125,11.499999228515625,9.581482453125Z" fill="#9F291F" fill-opacity="1"/></g><g><path d="M18.016242646484375,15.004654375000001C16.756522646484374,14.980864375,15.749473076484374,13.949704375,15.755489221384375,12.689774374999999C15.761504346484376,11.429834375,16.778352646484375,10.408342875,18.038252646484374,10.396586586C19.298142646484376,10.384830275,20.333882646484376,11.387173375,20.363402646484374,12.646774375C20.400602646484373,13.959864375,19.329492646484375,15.035864375,18.016242646484375,15.004654375000001ZM18.016242646484375,11.167744375C17.169802646484374,11.167744375,16.483626646484375,11.853924375,16.483626646484375,12.700364375C16.483626646484375,13.546804375,17.169802646484374,14.232984375000001,18.016242646484375,14.232984375000001C18.862682646484373,14.232984375000001,19.548862646484373,13.546804375,19.548862646484373,12.700364375C19.579202646484376,11.833074375,18.884062646484374,11.113625375,18.016242646484375,11.114155375L18.016242646484375,11.167744375Z" fill="#9F291F" fill-opacity="1"/></g><g><path d="M4.9837237109375,15.00457609375C3.7181437109375,15.00423609375,2.6897047409375,13.98327609375,2.6801211702375,12.71773609375C2.6705381109375,11.45220609375,3.6834037109375,10.41578319375,4.9488237109375,10.39627512975C6.214243710937501,10.37676709375,7.2585737109375,11.38147209375,7.2880037109375,12.64669609375C7.3180937109375,13.94019609375,6.2775637109375,15.00492609375,4.9837237109375,15.00457609375ZM4.9837237109375,11.16766909375C4.1304137109375,11.16819009375,3.4418537109375,11.86553609375,3.4521477109375,12.71877609375C3.4624427109375002,13.57202609375,4.1676237109375,14.25254609375,5.0206937109375005,14.23248609375C5.873763710937499,14.21241609375,6.5461737109375004,13.49948609375,6.5163337109375,12.64669609375C6.5163337109375,11.80025609375,5.8301637109375,11.11407909375,4.9837237109375,11.11408009375L4.9837237109375,11.16766909375Z" fill="#9F291F" fill-opacity="1"/></g><g><path d="M21.4888,15.93697046875C20.9191,15.54257046875,20.2418,15.33303046875,19.5489,15.33678046875L16.4837,15.33678046875C16.2983,15.32065046875,16.1118,15.32065046875,15.9264,15.33678046875C15.6781,14.96016046875,15.3619,14.63305446875,14.9939,14.37219446875L14.8117,14.25430146875C14.2745,13.93144446875,13.6594,13.76100969275,13.0326,13.76129077335L9.96738,13.76129077335C8.79616,13.75434347875,7.70342,14.34927946875,7.07363,15.33678046875C6.8882,15.32065046875,6.70173,15.32065046875,6.51631,15.33678046875L3.45107,15.33678046875C2.75817,15.33303046875,2.0809,15.54257046875,1.51118,15.93697046875C0.56687,16.57877046875,0.00111286,17.64608046875,0,18.78785046875L0,20.36334046875C0.00409891,21.40960046875,0.61445,22.358570468750003,1.56477,22.79624046875C1.90083,22.952520468750002,2.26596,23.036510468750002,2.63653,23.04274046875L6.51631,23.04274046875L6.51631,22.28180046875L3.06524,22.28180046875L3.06524,18.01618046875L2.30429,18.01618046875L2.30429,22.196050468750002C2.15964,22.16744046875,2.01919,22.120620468749998,1.8863,22.05672046875C1.21901,21.75477046875,0.785154,21.09565046875,0.771668,20.36334046875L0.771668,18.78785046875C0.769695,17.90052046875,1.20715,17.06976046875,1.93989,16.56931046875C2.38153,16.25467046875,2.90885,16.08263046875,3.45107,16.07629046875L6.66636,16.07629046875C6.53479,16.44447046875,6.46596,16.83212046875,6.46272,17.22308046875L6.46272,21.04927046875C6.46272,22.108800468749997,7.32164,22.967720468750002,8.38118,22.967720468750002L9.58155,22.967720468750002L9.58155,16.86940046875L8.8206,16.86940046875L8.8206,22.22821046875L8.43476,22.22821046875C7.80141,22.22821046875,7.28798,21.71477046875,7.28798,21.08142046875L7.28798,17.25523046875C7.28203,15.77127046875,8.48338,14.56511246875,9.96738,14.56511146875L13.0326,14.56511146875C13.528,14.56709046875,14.0134,14.70419846875,14.4366,14.96166046875L14.5438,15.03669046875C15.2778,15.53729046875,15.7186,16.36683046875,15.7227,17.25523046875L15.7227,21.08142046875C15.7227,21.72069046875,15.2045,22.23893046875,14.5652,22.238920468750003L14.1794,22.238920468750003L14.1794,16.88012046875L13.4185,16.88012046875L13.4185,23.01059046875L14.5652,23.01059046875C15.6248,23.01059046875,16.4837,22.151670468749998,16.4837,21.09214046875L16.4837,17.25523046875C16.4878,16.85408046875,16.4225,16.45523046875,16.2908,16.07629046875L19.5061,16.07629046875C20.0463,16.07428046875,20.574,16.23896046875,21.0172,16.54787046875C21.7526,17.04720046875,22.1939,17.87754046875,22.1962,18.76642046875L22.1962,20.36334046875C22.192,21.11211046875,21.7526,21.79005046875,21.0708,22.099600468749998C20.941,22.16187046875,20.8043,22.208640468749998,20.6636,22.238920468750003L20.6636,18.05905046875L19.9348,18.05905046875L19.9348,22.28180046875L16.4837,22.28180046875L16.4837,23.04274046875L20.3635,23.04274046875C20.7345,23.04053046875,21.1005,22.95635046875,21.4352,22.79624046875C22.3911,22.36495046875,23.004,21.411980468750002,23,20.36334046875L23,18.78785046875C22.9989,17.64608046875,22.4331,16.57877046875,21.4888,15.93697046875Z" fill="#9F291F" fill-opacity="1"/></g><g><path d="M9.967376708984375,22.239013671875L13.032616708984374,22.239013671875L13.032616708984374,22.999963671875L9.967376708984375,22.999963671875L9.967376708984375,22.239013671875Z" fill="#9F291F" fill-opacity="1"/></g></g></svg>