<?xml version="1.0" encoding="UTF-8"?><svg id="_层_2" xmlns="http://www.w3.org/2000/svg" viewBox="0 0 30.38 278.18"><defs><style>.cls-1{fill:#fff;}.cls-2{opacity:.65;}</style></defs><g id="_层_2-2"><g class="cls-2"><path class="cls-1" d="M30.33,1.82h-14.21V22.32h14.21v1.82H.04v-1.82H14.34V1.82H.04V0H30.33V1.82Z"/><path class="cls-1" d="M1.78,46.06c0,6.59,3.9,10.44,10.66,10.44H30.33v1.82H12.44c-7.89,0-12.44-4.51-12.44-12.26s4.55-12.26,12.44-12.26H30.33v1.82H12.44c-6.76,0-10.66,3.86-10.66,10.44Z"/><path class="cls-1" d="M8.67,85.88v-17.72L.04,64.26v-1.99l30.29,13.74v1.95L.04,91.82v-1.99l8.62-3.94Zm1.82-.82l17.77-8.1-17.77-8.02v16.12Z"/><path class="cls-1" d="M28.64,122.84c0-7.67-5.98-13.87-13.39-13.87s-13.48,6.2-13.48,13.87c0,3.6,1.39,6.98,3.68,9.53l-1.26,1.13c-2.6-2.82-4.2-6.67-4.2-10.7,0-8.62,6.8-15.64,15.21-15.64s15.17,7.02,15.17,15.64c0,4.07-1.56,7.84-4.07,10.66l-1.39-1.08c2.34-2.51,3.73-5.94,3.73-9.53Z"/><path class="cls-1" d="M8.67,159.54v-17.72L.04,137.92v-1.99l30.29,13.74v1.95L.04,165.48v-1.99l8.62-3.94Zm1.82-.82l17.77-8.1-17.77-8.02v16.12Z"/><path class="cls-1" d="M20.37,193.34c-6.5,0-10.23-4.2-10.23-11.66v-8.84H.04v-1.82H30.33v10.66c0,7.45-3.64,11.66-9.97,11.66Zm-.04-1.73c5.33,0,8.23-3.64,8.23-9.97v-8.8H11.92v8.8c0,6.33,2.99,9.97,8.41,9.97Z"/><path class="cls-1" d="M30.33,201.61H.04v-1.82H30.33v1.82Z"/><path class="cls-1" d="M30.33,229.6h-1.78v-10.23H.04v-1.82H28.56v-10.23h1.78v22.27Z"/><path class="cls-1" d="M8.67,251.4v-17.72L.04,229.78v-1.99l30.29,13.74v1.95L.04,257.34v-1.99l8.62-3.94Zm1.82-.82l17.77-8.1-17.77-8.02v16.12Z"/><path class="cls-1" d="M30.33,264.7H1.82v13.48H.04v-15.3H30.33v1.82Z"/></g></g></svg>