<svg xmlns="http://www.w3.org/2000/svg" xmlns:xlink="http://www.w3.org/1999/xlink" fill="none" version="1.1" width="105" height="20" viewBox="0 0 105 20"><g><path d="M10.4479,4.40267L10.4479,9.736L2.58854,9.736L2.58854,4.40267L2.04688,4.40267L2.04688,15.736L2.58854,15.736L2.58854,10.236L10.4479,10.236L10.4479,15.736L10.9896,15.736L10.9896,4.40267L10.4479,4.40267ZM19.349,15.736C22.0677,15.736,23.7344,14.1318,23.7344,10.9287L23.7344,4.40267L23.2083,4.40267L23.2083,10.9131C23.2083,13.8245,21.7969,15.2412,19.349,15.2412C16.8854,15.2412,15.4948,13.8245,15.4948,10.9131L15.4948,4.40267L14.9479,4.40267L14.9479,10.9287C14.9479,14.1318,16.6302,15.736,19.349,15.736ZM36.0833,15.736L36.6719,15.736L31.4896,4.40267L30.9583,4.40267L25.776,15.736L26.3698,15.736L27.8698,12.4027L34.5781,12.4027L36.0833,15.736ZM28.0781,11.9391L31.2344,5.02767L34.3698,11.9391L28.0781,11.9391ZM43.3542,15.736C44.875,15.736,46.2656,15.2412,47.2396,14.2152L46.9062,13.861C45.9115,14.835,44.6979,15.2412,43.3698,15.2412C40.375,15.2412,38.1198,12.9652,38.1198,9.986C38.1198,7.00683,40.375,4.90267,43.3698,4.90267C44.6979,4.90267,45.9115,5.22558,46.9062,6.09538L47.2396,5.736C46.2656,4.90267,44.875,4.40267,43.3542,4.40267C40.0573,4.40267,37.5781,6.68392,37.5781,9.986C37.5781,13.2881,40.0573,15.736,43.3542,15.736ZM58.4167,15.736L59.0052,15.736L53.8229,4.40267L53.2917,4.40267L48.1094,15.736L48.7031,15.736L50.2031,12.4027L56.9115,12.4027L58.4167,15.736ZM50.4115,11.9391L53.5677,5.02767L56.7031,11.9391L50.4115,11.9391ZM64.9323,4.40267L61.0469,4.40267L61.0469,15.736L61.5885,15.736L61.5885,11.9027L64.9323,11.9027C67.7188,11.9027,69.3802,10.5173,69.3802,8.14746C69.3802,5.78808,67.7188,4.40267,64.9323,4.40267ZM64.9635,11.4027L61.5885,11.4027L61.5885,4.90267L64.9635,4.90267C67.4792,4.90267,68.8542,6.07975,68.8542,8.14746C68.8542,10.2256,67.4792,11.4027,64.9635,11.4027ZM72.3802,15.736L72.9219,15.736L72.9219,4.40267L72.3802,4.40267L72.3802,15.736ZM79.1719,15.736L79.7031,15.736L79.7031,4.90267L83.8125,4.90267L83.8125,4.40267L75.0625,4.40267L75.0625,4.90267L79.1719,4.90267L79.1719,15.736ZM94.4167,15.736L95.0052,15.736L89.8229,4.40267L89.2917,4.40267L84.1094,15.736L84.7031,15.736L86.2031,12.4027L92.9115,12.4027L94.4167,15.736ZM86.4115,11.9391L89.5677,5.02767L92.7031,11.9391L86.4115,11.9391ZM97.0469,15.736L104.151,15.736L104.151,15.2412L97.5885,15.2412L97.5885,4.40267L97.0469,4.40267L97.0469,15.736Z" fill="#FFFFFF" fill-opacity="0.30000001192092896"/></g></svg>