<?xml version="1.0" encoding="utf-8"?>
<!-- Generator: Adobe Illustrator 26.3.1, SVG Export Plug-In . SVG Version: 6.00 Build 0)  -->
<svg version="1.1" id="图层_1" xmlns="http://www.w3.org/2000/svg" xmlns:xlink="http://www.w3.org/1999/xlink" x="0px" y="0px"
	 viewBox="0 0 25.76 24.76" style="enable-background:new 0 0 25.76 24.76;" xml:space="preserve">
<style type="text/css">
	.st0{fill:none;stroke:#CE2928;stroke-width:0.7728;stroke-linejoin:round;stroke-miterlimit:2;}
</style>
<g>
	<g>
		<g>
			<line class="st0" x1="24.19" y1="17.59" x2="20.62" y2="13.96"/>
			<path class="st0" d="M13.15,18.94c0.14,0.12,0.27,0.25,0.4,0.39l4.22,4.44"/>
		</g>
	</g>
	<g>
		<g>
			<g>
				<path class="st0" d="M5.67,13.8c-0.16,0.26-0.42,0.61-0.64,0.84l-3.21,2.96"/>
				<path class="st0" d="M18.98,15.65c0.05-0.05,0.1-0.1,0.15-0.15l4.12-4.27c0.57-0.59,0.55-1.52-0.04-2.09l0,0
					c-0.59-0.57-1.52-0.55-2.09,0.04c0,0,0.11-0.1,0.11-0.1l-0.11,0.1c0,0,0.78-0.8,0.78-0.8c0.57-0.59,0.55-1.52-0.04-2.09l0,0
					c-0.59-0.57-1.52-0.55-2.09,0.04L19.23,6.9c0,0,0,0,0,0c0,0,0,0,0,0l1.04-1.08c0.57-0.59,0.55-1.52-0.04-2.09l0,0
					c-0.59-0.57-1.52-0.55-2.09,0.04l-0.93,0.96l0,0c0,0,0,0,0,0l0.4-0.42c0.57-0.59,0.55-1.52-0.04-2.09l0,0
					c-0.59-0.57-1.56-0.57-2.09,0.04"/>
				<path class="st0" d="M8.57,23.76l4.18-4.44c0.96-1,2.17-1.73,3.51-2.11l0,0c0.52-0.15,1.02-0.36,1.48-0.63"/>
			</g>
		</g>
	</g>
	<g>
		<g>
			<path class="st0" d="M6.23,6.66c-0.57-0.59-1.5-0.6-2.09-0.04l0,0c-0.59,0.57-0.6,1.5-0.04,2.09l2.45,2.54
				c0.57,0.59,1.5,0.6,2.09,0.04l0,0c0.59-0.57,0.6-1.5,0.04-2.09"/>
		</g>
		<g>
			<path class="st0" d="M9.04,5.34L7.85,4.1c-0.57-0.59-1.5-0.6-2.09-0.04l0,0c-0.59,0.57-0.6,1.5-0.04,2.09L8.7,9.23
				c0.57,0.59,1.5,0.6,2.09,0.04l0,0c0.59-0.57,0.6-1.5,0.04-2.09l-0.69-0.72"/>
		</g>
		<g>
			<path class="st0" d="M10.83,7.18c0.57,0.59,1.5,0.6,2.09,0.04l0,0c0.59-0.57,0.6-1.5,0.04-2.09l-0.16-0.17"/>
			<path class="st0" d="M11.15,3.27L10.5,2.59C9.93,2.01,9,1.99,8.41,2.56l0,0c-0.59,0.57-0.6,1.5-0.04,2.09"/>
		</g>
		<path class="st0" d="M4.88,9.52c-0.57-0.59-1.5-0.6-2.09-0.04l0,0c-0.59,0.57-0.6,1.5-0.04,2.09l1.7,1.76
			c0.57,0.59,1.5,0.6,2.09,0.04l0,0c0.59-0.57,0.6-1.5,0.04-2.09"/>
		<g>
			<path class="st0" d="M15.51,2.26l-1.68-0.79c-0.35-0.16-0.76-0.09-1.03,0.18l-2.16,2.15c-0.23,0.23-0.23,0.6-0.01,0.83l0,0
				c0.72,0.74,1.9,0.74,2.62,0C14.26,3.56,15.51,2.26,15.51,2.26z"/>
		</g>
	</g>
</g>
</svg>
