<svg xmlns="http://www.w3.org/2000/svg" xmlns:xlink="http://www.w3.org/1999/xlink" fill="none" version="1.1" width="50" height="53" viewBox="0 0 50 53"><defs><clipPath id="master_svg0_1017_6613"><rect x="0" y="0" width="50" height="53" rx="0"/></clipPath></defs><g clip-path="url(#master_svg0_1017_6613)"><g><path d="M45.1655,53.00000009765625L4.83449,53.00000009765625C2.34703,53.15390009765625,0.197205,51.23870009765625,0,48.69300009765625L0,18.90145009765625C0.0346042,18.31150609765625,0.512111,17.85154344765625,1.08885,17.85260648225625L16.8554,17.85260648225625C17.4519,17.86447759765625,17.9327,18.35714709765625,17.9443,18.96840009765625C17.9443,19.58463009765625,17.4568,20.08419009765625,16.8554,20.08419009765625L2.1777,20.08419009765625L2.1777,48.69300009765625C2.1777,49.808800097656245,3.39721,50.76840009765625,4.83449,50.76840009765625L45.1655,50.76840009765625C46.6028,50.76840009765625,47.8223,49.808800097656245,47.8223,48.69300009765625L47.8223,20.08419009765625L33.8632,20.08419009765625C33.2619,20.08419009765625,32.7744,19.58463009765625,32.7744,18.96840009765625C32.786,18.35714709765625,33.2668,17.86447759765625,33.8632,17.85260648225625L48.9111,17.85260648225625C49.5125,17.85260648225625,50,18.35216309765625,50,18.96840009765625L50,48.69300009765625C49.8028,51.23870009765625,47.653,53.15390009765625,45.1655,53.00000009765625Z" fill="#923327" fill-opacity="1"/></g><g><path d="M25.000959375,44.7655501953125C24.399604375,44.7655501953125,23.912109375,44.2659501953125,23.912109375,43.6497501953125L23.912109375,1.8522401953125C23.912109375,1.2360061953125001,24.399604375,0.7364501953125,25.000959375,0.7364501953125C25.602309375,0.7364501953125,26.089809375,1.2360061953125001,26.089809375,1.8522401953125L26.089809375,43.6497501953125C26.089809375,44.2659501953125,25.602309375,44.7655501953125,25.000959375,44.7655501953125Z" fill="#923327" fill-opacity="1"/></g><g><path d="M13.979995625,13.6350041015625C13.697683625,13.6586041015625,13.417237625,13.5708041015625,13.196021625,13.3896041015625C12.781013625,12.9557041015625,12.781013625,12.2613041015625,13.196021625,11.8275041015625L24.345865625000002,0.3348291015625C24.758765625000002,-0.1160038984375,25.457365625,-0.1160038984375,25.870265625000002,0.3348291015625L36.758765624999995,11.4927041015625C37.188165624999996,11.9292041015625,37.188165624999996,12.6407041015625,36.758765624999995,13.0771041015625C36.335365625,13.5024041015625,35.657765624999996,13.5024041015625,35.234365624999995,13.0771041015625L25.108065625000002,2.7003041015625L14.742185625,13.3896041015625C14.528725625,13.5694041015625,14.255495625,13.6574041015625,13.979995625,13.6350041015625Z" fill="#923327" fill-opacity="1"/></g></g></svg>