<?xml version="1.0" encoding="UTF-8"?><svg id="_层_2" xmlns="http://www.w3.org/2000/svg" viewBox="0 0 67.11 24.58"><defs><style>.cls-1{fill:#fff;}.cls-2{fill:#8e291f;}</style></defs><g id="_层_2-2"><g><rect class="cls-2" y="0" width="67.11" height="24.58" rx="7.54" ry="7.54"/><g><path class="cls-1" d="M41.81,13.26l-1.06-.04v1h-8.71v.97h2.67l-.51,.65c.18,.11,.39,.25,.63,.41s.49,.33,.74,.51c.25,.18,.5,.37,.75,.57,.25,.2,.47,.39,.67,.58l.46-1c-.39-.33-.82-.64-1.27-.94-.45-.3-.85-.56-1.21-.77h5.77v1.32c0,.2-.01,.36-.04,.5-.03,.14-.08,.24-.17,.32-.08,.08-.21,.14-.37,.18-.16,.04-.38,.07-.64,.08l-1.03,.06,.38,1.03,.82-.06c.42-.03,.77-.07,1.05-.13,.28-.06,.49-.16,.65-.3,.16-.14,.26-.31,.32-.54,.06-.22,.09-.5,.09-.85v-1.62h2.65v-.97h-2.65v-.96Z"/><path class="cls-1" d="M33.92,12.39c.15,.13,.34,.22,.58,.27,.24,.05,.54,.08,.9,.09,2.08,.08,4.17,.08,6.26,0,.33,0,.61-.03,.83-.07,.23-.04,.41-.09,.55-.15s.25-.13,.32-.2c.08-.07,.13-.16,.15-.25,.07-.19,.12-.35,.16-.49,.04-.14,.08-.32,.11-.53l-1.13-.54c-.02,.15-.04,.3-.07,.46s-.07,.3-.11,.43c-.04,.12-.15,.21-.32,.27-.18,.06-.5,.09-.96,.11-1.83,.08-3.66,.08-5.49,0-.24,0-.44-.03-.58-.06-.15-.03-.26-.08-.34-.14-.08-.07-.14-.16-.17-.28s-.04-.28-.04-.48v-.69h7.88v-3.49h-8.94v4.41c0,.34,.03,.61,.09,.83,.06,.22,.16,.39,.31,.51Zm.66-4.79h6.8v1.58h-6.8v-1.58Z"/><path class="cls-1" d="M58.2,8.02h-2.82c-.05-.15-.1-.32-.15-.52-.06-.2-.12-.39-.18-.59-.06-.2-.12-.38-.18-.55-.06-.17-.1-.3-.14-.39l-1.04,.2c.04,.08,.08,.2,.13,.34,.05,.15,.1,.31,.16,.48,.06,.17,.11,.35,.17,.53,.06,.18,.11,.35,.15,.51h-2.72v1.01h6.62v-1.01Z"/><path class="cls-1" d="M49.01,15.46c.08,.2,.14,.38,.18,.53l.77-.48c-.05-.13-.11-.29-.2-.48-.08-.19-.17-.38-.26-.58-.09-.2-.18-.38-.28-.56s-.18-.33-.25-.45l-.73,.38c.07,.12,.15,.27,.24,.46s.19,.38,.27,.58c.09,.2,.17,.4,.25,.61Z"/><path class="cls-1" d="M49.5,6.7c.08-.25,.13-.46,.17-.63l-.99-.15c-.04,.19-.1,.42-.18,.71-.08,.29-.17,.55-.27,.78h-1.2v4.52h-1.25v.99h1.25c0,.74-.04,1.37-.08,1.87s-.11,.96-.19,1.34c-.08,.39-.2,.75-.33,1.08-.14,.33-.3,.68-.5,1.06l.87,.49c.21-.38,.38-.74,.52-1.09,.14-.35,.26-.74,.34-1.18,.09-.43,.16-.93,.2-1.5,.05-.57,.08-1.26,.08-2.08h2.21v3.79c0,.14-.01,.26-.04,.36s-.07,.18-.13,.24c-.06,.06-.15,.11-.27,.14-.12,.03-.28,.05-.47,.06l-.77,.06,.3,.99,.63-.04c.33-.02,.6-.06,.82-.11,.22-.06,.39-.14,.51-.25,.13-.11,.22-.26,.27-.44,.05-.18,.08-.41,.08-.68V7.4h-1.84c.08-.22,.16-.45,.24-.7Zm.68,1.66v3.56h-2.21v-3.56h2.21Z"/><path class="cls-1" d="M48.75,10.34c.08,.2,.16,.4,.24,.6s.13,.37,.17,.52l.77-.44c-.05-.13-.11-.29-.18-.48-.08-.19-.16-.38-.25-.58-.09-.2-.18-.38-.28-.56-.09-.18-.17-.32-.24-.44l-.75,.35c.07,.12,.15,.27,.24,.45s.18,.37,.27,.57Z"/><path class="cls-1" d="M57.62,15.17c0,.23,0,.49-.02,.75s-.05,.53-.09,.78c-.04,.26-.09,.44-.16,.52-.07,.08-.15,.13-.25,.13h-.3c-.13,0-.22-.04-.27-.13s-.07-.24-.07-.48v-5.97h-3.84v2.1c0,.76-.02,1.39-.05,1.88s-.1,.92-.2,1.29c-.1,.37-.25,.7-.45,1.01s-.46,.66-.79,1.06l.83,.69c.33-.41,.6-.8,.8-1.16,.21-.36,.37-.75,.48-1.18s.19-.9,.23-1.43,.06-1.17,.06-1.92v-1.35h1.96v5.28c0,.51,.1,.85,.29,1.04,.19,.19,.46,.28,.81,.28h.63c.34,0,.58-.06,.74-.19,.15-.13,.27-.37,.34-.73,.07-.32,.11-.66,.15-1.01,.03-.36,.05-.67,.05-.94l-.89-.32Z"/><path class="cls-1" d="M15.45,4.32c-6.71,0-6.97,6.21-5.52,9.29,1.7,3.62,5.52,6.66,5.52,6.66,0,0,3.82-3.04,5.52-6.66,1.45-3.08,1.19-9.29-5.52-9.29Zm0,11.18c-2.65,0-4.8-2.15-4.8-4.8s2.15-4.8,4.8-4.8,4.8,2.15,4.8,4.8-2.15,4.8-4.8,4.8Z"/><path class="cls-1" d="M15.45,7.04c-2.02,0-3.66,1.64-3.66,3.66s1.64,3.66,3.66,3.66,3.66-1.64,3.66-3.66-1.64-3.66-3.66-3.66Z"/></g></g></g></svg>