<svg xmlns="http://www.w3.org/2000/svg" xmlns:xlink="http://www.w3.org/1999/xlink" fill="none" version="1.1" width="51" height="57" viewBox="0 0 51 57"><defs><clipPath id="master_svg0_1017_5721"><rect x="0" y="0" width="51" height="57" rx="0"/></clipPath></defs><g clip-path="url(#master_svg0_1017_5721)"><g><path d="M45.0758,57L5.81692,57C2.60921,56.9885,0.0117741,54.447,0,51.3084L0,5.6916C0.011771,2.553,2.60921,0.0115175,5.81692,0L34.8371,0L51,15.8147L51,51.3084C50.9884,54.4883,48.3253,57.0468,45.0758,57ZM5.81692,2.10022C3.79466,2.11169,2.15819,3.71291,2.14647,5.6916L2.14647,51.3084C2.15819,53.2871,3.79466,54.8883,5.81692,54.8998L45.0758,54.8998C47.1064,54.8998,48.7559,53.2953,48.7677,51.3084L48.7677,16.6758L33.9356,2.10022L5.81692,2.10022Z" fill="#923327" fill-opacity="1"/></g><g><path d="M49.92705,16.25570986328125L38.40057,16.25570986328125C36.16714,16.279209863281253,34.34375,14.51400986328125,34.34375,12.32830986328125L34.34375,1.05010986328125L49.92705,16.25570986328125Z" fill="#923327" fill-opacity="1"/></g><g><path d="M8.2216796875,24.61458843421875L12.7292596875,24.61458843421875C13.5949496875,24.59999307421875,14.459419687499999,24.68457667421875,15.3050096875,24.86661507421875C15.923569687499999,25.00042007421875,16.4987196875,25.28179907421875,16.9792596875,25.68570607421875C17.4054396875,26.07018607421875,17.7107196875,26.56560607421875,17.8593096875,27.11385607421875C18.0473196875,27.79828607421875,18.1340596875,28.50555607421875,18.116879687500003,29.21407607421875C18.1327896875,29.92540607421875,18.0313196875,30.63458607421875,17.8163796875,31.31429607421875C17.6458496875,31.88514607421875,17.3104396875,32.39565607421875,16.850469687500002,32.78444607421875C16.3682096875,33.18152607421875,15.7930396875,33.45569607421875,15.176229687500001,33.58253607421875C14.373959687500001,33.76288607421875,13.552319687499999,33.84750607421875,12.7292596875,33.83455607421875L10.8832996875,33.83455607421875L10.8832996875,38.287076074218746L8.2216796875,38.287076074218746L8.2216796875,24.61458843421875ZM12.5146096875,31.79734607421875C12.9900796875,31.80499607421875,13.4650096875,31.76274607421875,13.9312796875,31.67132607421875C14.2696296875,31.62067607421875,14.5881596875,31.48296607421875,14.8542596875,31.272286074218748C15.0977196875,31.05767607421875,15.2759696875,30.78152607421875,15.3694096875,30.47420607421875C15.482499687499999,30.06366607421875,15.5331296875,29.63905607421875,15.519659687499999,29.21407607421875C15.559829687499999,28.49713607421875,15.2775096875,27.79887607421875,14.7469296875,27.30286607421875C14.0486796875,26.87630607421875,13.2271396875,26.68456607421875,12.4072896875,26.75681607421875L10.8832996875,26.75681607421875L10.8832996875,31.83934607421875L12.5146096875,31.79734607421875Z" fill="#923327" fill-opacity="1"/></g><g><path d="M25.3503146875,24.614553988296876C26.2867646875,24.606147704296873,27.2216646875,24.690589154296877,28.1407146875,24.866580154296877C28.9333346875,25.027355154296874,29.6716346875,25.381328154296874,30.2871846875,25.895693154296875C30.9361046875,26.460893154296876,31.4179046875,27.186233154296875,31.6824046875,27.995913154296876C32.0519046875,29.128943154296877,32.2260046875,30.314283154296874,32.1975046875,31.503273154296874C32.2272046875,32.628823154296875,32.060204687500004,33.75106315429687,31.7038046875,34.821583154296874C31.428504687500002,35.626183154296875,30.948404687500002,36.348983154296874,30.3086446875,36.92188315429688C29.700844687500002,37.468883154296876,28.9630346875,37.85868315429688,28.1621846875,38.055983154296875C27.2492346875,38.27508315429687,26.3117346875,38.38098315429687,25.3717746875,38.37098315429687L20.7998046875,38.37098315429687L20.7998046875,24.614553988296876L25.3503146875,24.614553988296876ZM25.2215246875,36.12378315429687C25.8306746875,36.13058315429687,26.4377346875,36.052783154296876,27.0245546875,35.89278315429688C27.5290046875,35.772583154296875,27.9896246875,35.51818315429688,28.3553646875,35.157683154296876C28.7389146875,34.75958315429688,29.018704687499998,34.276903154296875,29.171014687499998,33.750513154296875C29.3649446875,33.016763154296875,29.4587746875,32.261123154296875,29.4500646875,31.503273154296874C29.4679946875,30.715953154296876,29.3667246875,29.930353154296874,29.1495546875,29.172033154296876C29.0115946875,28.627603154296875,28.7303846875,28.127993154296874,28.3338946875,27.722883154296873C27.960054687499998,27.377363154296877,27.5018346875,27.131493154296876,27.0030846875,27.008803154296874C26.4192046875,26.875673154296877,25.8210046875,26.812203154296874,25.2215246875,26.819783154296875L23.4399546875,26.819783154296875L23.4399546875,36.12378315429687L25.2215246875,36.12378315429687Z" fill="#923327" fill-opacity="1"/></g><g><path d="M37.7778453125,26.86180298828125L37.7778453125,30.49518298828125L43.0366853125,30.49518298828125L43.0366853125,32.74242298828125L37.7778453125,32.74242298828125L37.7778453125,38.34996298828125L35.1376953125,38.34996298828125L35.1376953125,24.61456298828125L43.4445153125,24.61456298828125L43.4445153125,26.86180298828125L37.7778453125,26.86180298828125Z" fill="#923327" fill-opacity="1"/></g></g></svg>