<?xml version="1.0" encoding="utf-8"?>
<!-- Generator: Adobe Illustrator 26.3.1, SVG Export Plug-In . SVG Version: 6.00 Build 0)  -->
<svg version="1.1" id="图层_1" xmlns="http://www.w3.org/2000/svg" xmlns:xlink="http://www.w3.org/1999/xlink" x="0px" y="0px"
	 viewBox="0 0 25.76 24.76" style="enable-background:new 0 0 25.76 24.76;" xml:space="preserve">
<style type="text/css">
	.st0{fill:none;stroke:#CE2928;stroke-width:0.7728;stroke-linecap:round;stroke-linejoin:round;stroke-miterlimit:1.8462;}
	.st1{fill:none;stroke:#CE2928;stroke-width:0.7728;stroke-linejoin:round;stroke-miterlimit:1.8462;}
</style>
<g>
	<path class="st0" d="M21.38,10.97c0.12-0.81,0.08-1.63-0.12-2.43C21,7.49,20.46,6.5,19.64,5.68c-0.82-0.82-1.81-1.36-2.86-1.62
		c-0.79-0.2-1.62-0.24-2.43-0.12"/>
	<path class="st0" d="M17.77,10.58c0.13-0.86-0.14-1.78-0.8-2.44c-0.67-0.66-1.58-0.93-2.44-0.8"/>
	<path class="st1" d="M8.35,5.35c0.35,0,0.66,0.19,0.83,0.49l1.16,2.1c0.15,0.27,0.16,0.61,0.02,0.89l-1.12,2.24
		c0,0,0.32,1.67,1.68,3.03c1.36,1.36,3.02,1.68,3.02,1.68l2.24-1.12c0.28-0.14,0.61-0.13,0.89,0.02l2.1,1.17
		c0.3,0.17,0.49,0.49,0.49,0.83v2.41c0,1.23-1.14,2.12-2.31,1.72c-2.39-0.81-6.1-2.34-8.45-4.7c-2.35-2.35-3.89-6.06-4.7-8.45
		C3.82,6.49,4.71,5.35,5.94,5.35H8.35z"/>
</g>
</svg>
