<?xml version="1.0" encoding="UTF-8"?><svg id="_层_2" xmlns="http://www.w3.org/2000/svg" viewBox="0 0 45.56 50.69"><defs><style>.cls-1{fill:#a8291f;}</style></defs><g id="_层_2-2"><g><path class="cls-1" d="M16.87,21.4c.54,0,.99-.44,.99-.99,0-.35-.18-.66-.46-.83-.15-.1-.33-.15-.53-.15-.54,0-.99,.44-.99,.99,0,.26,.1,.49,.26,.67,.18,.2,.44,.32,.72,.32Z"/><path class="cls-1" d="M22.78,8.7c.61,0,1.1-.49,1.1-1.1V1.1c0-.61-.49-1.1-1.1-1.1s-1.1,.49-1.1,1.1V7.6c0,.61,.49,1.1,1.1,1.1Z"/><path class="cls-1" d="M22.78,41.98c-.61,0-1.1,.49-1.1,1.1v6.5c0,.61,.49,1.1,1.1,1.1s1.1-.49,1.1-1.1v-6.5c0-.61-.49-1.1-1.1-1.1Z"/><path class="cls-1" d="M7.49,13.58c.21,.21,.5,.32,.78,.32s.56-.11,.78-.32c.43-.43,.43-1.13,0-1.56L4.86,7.84c-.43-.43-1.13-.43-1.56,0-.43,.43-.43,1.13,0,1.56l4.18,4.18Z"/><path class="cls-1" d="M38.07,38.09c-.43-.43-1.13-.43-1.56,0-.43,.43-.43,1.13,0,1.56l4.18,4.18c.21,.21,.5,.32,.78,.32s.56-.11,.78-.32c.43-.43,.43-1.13,0-1.56l-4.18-4.18Z"/><path class="cls-1" d="M37.3,13.9c.28,0,.56-.11,.78-.32l4.18-4.18c.43-.43,.43-1.13,0-1.56-.43-.43-1.13-.43-1.56,0l-4.18,4.18c-.43,.43-.43,1.13,0,1.56,.21,.21,.5,.32,.78,.32Z"/><path class="cls-1" d="M7.49,38.09l-4.18,4.18c-.43,.43-.43,1.13,0,1.56,.21,.21,.5,.32,.78,.32s.56-.11,.78-.32l4.18-4.18c.43-.43,.43-1.13,0-1.56-.43-.43-1.13-.43-1.56,0Z"/><path class="cls-1" d="M45.37,24.73c-.37-.54-9.1-13.3-22.59-13.3S.55,24.19,.19,24.73c-.25,.37-.25,.86,0,1.23,.37,.54,9.1,13.3,22.59,13.3s22.23-12.75,22.59-13.3c.25-.37,.25-.86,0-1.23Zm-22.59,12.33c-10.7,0-18.42-9.22-20.32-11.71,1.89-2.49,9.62-11.71,20.32-11.71s18.43,9.22,20.32,11.71c-1.89,2.49-9.6,11.71-20.32,11.71Z"/><path class="cls-1" d="M22.78,16.36l-.54,.02c-.05,0-.11,0-.19,.01l-.65,.08s-.1,.01-.11,.02l-1.72,.47c-.57,.22-.81,.84-.59,1.41,.22,.57,.9,.83,1.46,.61,.01,0,.18-.06,.19-.07,0,0,.12-.04,.12-.04l.91-.22s.11-.02,.13-.02c.03,0,.14-.02,.16-.02l-.14-1.09,.25,1.08-.07-1.1,.2,1.09-.08-1.1,.19,1.09s.14,0,.15,0h.31c3.74,0,6.78,3.04,6.78,6.78,0,1.13-.28,2.25-.82,3.23-.05,.09-.1,.19-.17,.29l-.08,.14c-.05,.08-.11,.17-.18,.27-.12,.17-.25,.34-.4,.5-.11,.12-.22,.24-.33,.36-.1,.1-.21,.2-.33,.3-.47,.41-.99,.76-1.56,1.03-.09,.04-.19,.09-.27,.12-.2,.09-.41,.16-.63,.23-.21,.07-.43,.12-.65,.17-.44,.09-.9,.14-1.37,.14-3.74,0-6.78-3.04-6.78-6.78l.02-.53-1.1-.08,1.11-.03,.04-.31,.02-.12,.03-.15-1.08-.21-1.09-.16c-.01,.08-.03,.16-.03,.18l-.08,.72v.11l-.03,.59c0,4.95,4.03,8.98,8.98,8.98,.61,0,1.22-.06,1.81-.18,.29-.06,.58-.13,.86-.22,.28-.09,.55-.19,.83-.3,.13-.05,.25-.11,.37-.17,.74-.36,1.44-.81,2.05-1.36,.15-.13,.29-.26,.43-.4,.15-.15,.3-.31,.44-.47,.19-.21,.36-.44,.55-.71,.08-.11,.15-.22,.22-.33l.12-.18c.07-.12,.15-.25,.21-.37,.71-1.31,1.09-2.79,1.09-4.28,0-4.95-4.03-8.98-8.98-8.98Z"/><path class="cls-1" d="M26.84,25.34c0-2.24-1.82-4.06-4.06-4.06s-4.06,1.82-4.06,4.06,1.82,4.06,4.06,4.06,4.06-1.82,4.06-4.06Zm-5.91,0c0-1.02,.83-1.86,1.86-1.86s1.86,.83,1.86,1.86-.83,1.86-1.86,1.86-1.86-.83-1.86-1.86Z"/></g></g></svg>