<?xml version="1.0" encoding="UTF-8"?><svg id="_层_2" xmlns="http://www.w3.org/2000/svg" viewBox="0 0 39.21 39.21"><defs><style>.cls-1{fill:#a8291f;}</style></defs><g id="_层_2-2"><g><path class="cls-1" d="M13.55,17h12.1c.66,0,1.27-.3,1.67-.82s.55-1.18,.39-1.82l-.9-3.63c-.43-1.74-1.73-3.07-3.37-3.59,.49-.73,.77-1.61,.77-2.55,0-2.54-2.07-4.61-4.61-4.61s-4.61,2.07-4.61,4.61c0,.94,.28,1.82,.77,2.55-1.64,.52-2.94,1.85-3.37,3.59l-.9,3.63c-.16,.64-.02,1.3,.39,1.82s1.01,.82,1.67,.82h0ZM19.61,2.3c1.27,0,2.31,1.04,2.31,2.31s-1.04,2.31-2.31,2.31-2.31-1.04-2.31-2.31,1.04-2.31,2.31-2.31Zm-4.98,9c.31-1.22,1.4-2.08,2.66-2.08h4.63c1.26,0,2.36,.86,2.66,2.08l.85,3.41H13.78l.85-3.41Z"/><path class="cls-1" d="M39.18,11.65c0-1.75-1.32-3.24-3.05-3.47-1-.13-2.01,.18-2.76,.84-.76,.67-1.19,1.62-1.19,2.63v5.58c-.07,0-.14,0-.22,0-.91,0-1.76,.35-2.4,.99l-3.01,3.01s-.07,.04-.11,.04c-.02,0-.04,0-.06,0l-1.35-.08c-1.12-.12-2.22,.27-3.02,1.07l-1.86,1.86c-.19,.19-.37,.4-.53,.61-.16-.22-.34-.42-.53-.61l-1.86-1.86c-.8-.8-1.9-1.19-3.02-1.07l-1.35,.08s-.04,0-.06,0c-.04,0-.08,0-.11-.04l-3.01-3.01c-.64-.64-1.49-.99-2.4-.99-.07,0-.15,0-.22,0v-5.58c0-1.01-.43-1.97-1.19-2.63-.76-.67-1.77-.97-2.76-.84C1.34,8.41,.03,9.9,.03,11.65L0,24.32c0,1.32,.53,2.61,1.46,3.55l7.34,7.34v2.09c0,1.06,.86,1.91,1.91,1.91h8.12c.27,0,.53-.06,.77-.16,.23,.1,.49,.16,.77,.16h8.12c1.06,0,1.91-.86,1.91-1.91v-2.09l7.34-7.34c.93-.93,1.47-2.23,1.46-3.55l-.03-12.66Zm-3.06,14.58l-7.68,7.68c-.22,.22-.34,.51-.34,.81v2.18h-7.35v-8.73c0-.92,.36-1.79,1.01-2.44l1.86-1.86c.31-.31,.73-.46,1.17-.41,.02,0,.04,0,.06,0l1.35,.08c.73,.07,1.44-.18,1.96-.7l3.01-3.01c.43-.43,1.12-.43,1.55,0,.43,.43,.43,1.12,0,1.55l-4.29,4.29c-.45,.45-.45,1.18,0,1.62s1.18,.45,1.62,0l4.29-4.29c.64-.64,.99-1.49,.99-2.4,0-.85-.31-1.66-.88-2.28v-6.69c0-.35,.15-.67,.41-.91,.26-.23,.6-.33,.95-.29,.6,.08,1.05,.59,1.05,1.19l.03,12.66c0,.71-.29,1.41-.79,1.92h0Zm-33.03,0c-.5-.5-.79-1.2-.79-1.92l.03-12.66c0-.6,.45-1.12,1.05-1.19,.35-.05,.69,.06,.95,.29,.26,.23,.41,.55,.41,.91v6.69c-.57,.63-.88,1.43-.88,2.28,0,.91,.35,1.76,.99,2.4l4.29,4.29c.45,.45,1.18,.45,1.62,0s.45-1.18,0-1.62l-4.29-4.29c-.43-.43-.43-1.12,0-1.55,.43-.43,1.12-.43,1.55,0l3.01,3.01c.52,.52,1.23,.77,1.96,.7l1.35-.08s.04,0,.06,0c.43-.05,.86,.1,1.17,.41l1.86,1.86c.65,.65,1.01,1.52,1.01,2.44v8.73h-7.35v-2.18c0-.3-.12-.6-.34-.81l-7.68-7.68Z"/></g></g></svg>