<svg xmlns="http://www.w3.org/2000/svg" xmlns:xlink="http://www.w3.org/1999/xlink" fill="none" version="1.1" width="18.996238477453744" height="18.996238477453744" viewBox="0 0 18.996238477453744 18.996238477453744"><g transform="matrix(0,0.9999009966850281,-0.9999009966850281,0,18.996238477453744,-18.994357786872477)"><path d="M35.85573847745374,12.7486Q35.87203847745374,12.7769,35.88653847745374,12.8063Q35.901038477453746,12.8357,35.91353847745374,12.8659Q35.926038477453744,12.8962,35.93663847745374,12.9272Q35.94713847745375,12.9582,35.955638477453746,12.9898Q35.96403847745374,13.0214,35.97043847745374,13.0535Q35.97683847745374,13.0856,35.98113847745374,13.1181Q35.98543847745374,13.1505,35.98753847745374,13.1832Q35.989638477453745,13.2159,35.989638477453745,13.2486Q35.989638477453745,13.2813,35.98753847745374,13.314Q35.98543847745374,13.3467,35.98113847745374,13.3791Q35.97683847745374,13.4116,35.97043847745374,13.4437Q35.96403847745374,13.4758,35.955638477453746,13.5074Q35.94713847745375,13.539,35.93663847745374,13.57Q35.926038477453744,13.601,35.91353847745374,13.6313Q35.901038477453746,13.6615,35.88653847745374,13.6909Q35.87203847745374,13.7202,35.85573847745374,13.7486Q35.839338477453744,13.7769,35.821138477453744,13.8042Q35.80293847745374,13.8314,35.783038477453744,13.8574Q35.763138477453744,13.8833,35.741538477453744,13.9079Q35.719938477453745,13.9325,35.69673847745375,13.9557Q35.67363847745374,13.9788,35.64903847745374,14.0004Q35.624438477453744,14.022,35.59843847745374,14.0419Q35.572438477453744,14.0619,35.54523847745374,14.0801Q35.51803847745374,14.0982,35.489638477453745,14.1146Q35.461338477453744,14.131,35.43193847745374,14.1455Q35.40263847745375,14.1599,35.372338477453745,14.1725Q35.342138477453744,14.185,35.311138477453746,14.1955Q35.28013847745375,14.206,35.24853847745375,14.2145Q35.21683847745375,14.223,35.18473847745375,14.2294Q35.15263847745375,14.2358,35.12023847745374,14.24Q35.08773847745374,14.2443,35.05503847745375,14.2464Q35.02243847745375,14.2486,34.989638477453745,14.2486L22.000918477453745,14.2486Q21.935378477453746,14.2486,21.870398477453744,14.24Q21.805418477453745,14.2315,21.742098477453744,14.2145Q21.678788477453743,14.1976,21.618238477453744,14.1725Q21.557688477453745,14.1474,21.500918477453745,14.1146Q21.444158477453744,14.0818,21.392158477453744,14.0419Q21.340158477453745,14.002,21.293818477453744,13.9557Q21.247468477453744,13.9094,21.207568477453744,13.8574Q21.167668477453745,13.8054,21.134898477453746,13.7486Q21.102128477453743,13.6918,21.077038477453744,13.6313Q21.051958477453745,13.5707,21.034998477453744,13.5074Q21.018028477453743,13.4441,21.009478477453744,13.3791Q21.000918477453745,13.3141,21.000918477453745,13.2486Q21.000918477453745,13.183,21.009478477453744,13.1181Q21.018028477453743,13.0531,21.034998477453744,12.9898Q21.051958477453745,12.9265,21.077038477453744,12.8659Q21.102128477453743,12.8054,21.134898477453746,12.7486L27.629268477453742,1.5Q27.662048477453745,1.44324,27.701948477453744,1.39124Q27.741848477453743,1.33924,27.788188477453744,1.29289Q27.834538477453744,1.24655,27.886538477453744,1.20665Q27.938538477453744,1.16675,27.995298477453744,1.13397Q28.052058477453745,1.1012,28.112618477453744,1.07612Q28.173168477453743,1.05104,28.236478477453744,1.03407Q28.299788477453745,1.01711,28.364778477453743,1.00856Q28.429758477453746,1,28.495298477453744,1Q28.560838477453743,1,28.625828477453744,1.00856Q28.690808477453743,1.01711,28.754118477453744,1.03407Q28.817428477453745,1.05104,28.877978477453745,1.07612Q28.938538477453744,1.1012,28.995298477453744,1.13397Q29.052038477453742,1.16675,29.10403847745374,1.20665Q29.156038477453745,1.24655,29.202438477453747,1.29289Q29.248738477453742,1.33924,29.288638477453745,1.39124Q29.328538477453744,1.44324,29.361338477453742,1.5L35.85573847745374,12.7486Z" fill="#999999" fill-opacity="1"/></g></svg>