<?xml version="1.0" encoding="UTF-8"?><svg id="_层_2" xmlns="http://www.w3.org/2000/svg" viewBox="0 0 108.9 33.06"><defs><style>.cls-1{fill:#a8291f;}</style></defs><g id="_层_2-2"><g><g><polygon class="cls-1" points="9.93 27.73 0 33.06 0 0 9.93 5.34 9.93 27.73"/><polygon class="cls-1" points="12.82 27.73 22.76 33.06 22.76 0 12.82 5.34 12.82 27.73"/></g><g><g><rect class="cls-1" x="55.94" y="7.41" width="3.21" height="18.24"/><polygon class="cls-1" points="50.8 8.63 53.78 8.63 54.61 22.32 51.63 22.32 50.8 8.63"/><polygon class="cls-1" points="69.08 8.63 66.11 8.63 65.28 22.32 68.25 22.32 69.08 8.63"/><rect class="cls-1" x="60.74" y="7.41" width="3.21" height="18.24"/><rect class="cls-1" x="50.8" y="23.84" width="18.28" height="1.81"/></g><polygon class="cls-1" points="78.98 14.9 82.48 14.9 74.16 25.65 70.66 25.65 78.98 14.9"/><polygon class="cls-1" points="80.63 14.9 77.13 14.9 85.45 25.65 88.94 25.65 80.63 14.9"/><rect class="cls-1" x="78.18" y="7.41" width="3.21" height="9.3"/><rect class="cls-1" x="70.66" y="14.9" width="18.28" height="1.81"/><rect class="cls-1" x="71.46" y="7.41" width="16.67" height="1.81"/><rect class="cls-1" x="32.78" y="11.46" width="3.21" height="6.89"/><polygon class="cls-1" points="33.23 7.41 36.73 7.41 34.44 12.91 30.94 12.91 33.23 7.41"/><rect class="cls-1" x="38.47" y="18.93" width="3.21" height="6.72"/><rect class="cls-1" x="30.94" y="20.5" width="18.28" height="1.81"/><path class="cls-1" d="M43.91,16.54V7.41h-3.21v8.7c0,1.24,1,2.24,2.24,2.24h6.28v-1.81h-5.31Z"/><polygon class="cls-1" points="37.18 13.56 49.22 8.63 49.22 10.63 37.18 15.56 37.18 13.56"/><g><polygon class="cls-1" points="104.74 7.41 101.24 7.41 105 25.65 108.5 25.65 104.74 7.41"/><path class="cls-1" d="M105.81,7.41v1.84h-12.95c-1.24,0-2.24,1-2.24,2.24v14.15h3.21V11.07h12.43c1.24,0,2.24-1,2.24-2.24v-1.41h-2.69Z"/><path class="cls-1" d="M90.62,13.59v1.81h6.15v8.44h-1.25v1.81h2.22c1.24,0,2.24-1.01,2.24-2.24v-7.58c0-1.24-1-2.24-2.24-2.24h-7.12Z"/><polygon class="cls-1" points="101 22.21 108.9 13.59 108.9 17.02 101 25.65 101 22.21"/></g></g></g></g></svg>