<svg id="图层_1" data-name="图层 1" xmlns="http://www.w3.org/2000/svg" viewBox="0 0 623.62 155.91"><defs><style>.cls-1{fill:#d02928;}</style></defs><rect class="cls-1" x="142.97" y="60.25" width="11.76" height="41.92"/><rect class="cls-1" x="142.97" y="78.1" width="40.19" height="5.84"/><rect class="cls-1" x="171.41" y="60.25" width="11.76" height="41.92"/><rect class="cls-1" x="253.12" y="60.25" width="11.76" height="41.92"/><rect class="cls-1" x="238.9" y="60.25" width="40.19" height="5.84"/><polygon class="cls-1" points="208.77 120.05 197.66 120.05 223.06 78.1 234.17 78.1 208.77 120.05"/><polygon class="cls-1" points="214.92 95.22 203.81 78.1 192.7 78.1 210.09 104.9 214.92 95.22"/><path class="cls-1" d="M67.7,120.11,35.29,137.53a.94.94,0,0,1-1.38-.82v-111a.93.93,0,0,1,1.38-.82L67.7,42.31a.91.91,0,0,1,.5.82v76.16A.93.93,0,0,1,67.7,120.11Z"/><path class="cls-1" d="M78.66,120.11l32.42,17.42a.94.94,0,0,0,1.38-.82v-111a.93.93,0,0,0-1.38-.82L78.66,42.31a.92.92,0,0,0-.49.82v76.16A.94.94,0,0,0,78.66,120.11Z"/><rect class="cls-1" x="398.47" y="60.25" width="11.64" height="41.5"/><rect class="cls-1" x="449.55" y="60.25" width="11.64" height="41.5"/><rect class="cls-1" x="486.56" y="60.25" width="11.64" height="41.5"/><rect class="cls-1" x="472.48" y="60.25" width="39.79" height="5.78"/><path class="cls-1" d="M398.47,60.25V66h28.15v16H398.47v5.78h33.75a6,6,0,0,0,6-6V66.29a6,6,0,0,0-6-6Z"/><path class="cls-1" d="M341,66V60.25H312.59a6,6,0,0,0-6,6V95.71a6,6,0,0,0,6,6H341V96h-22.8V66Z"/><path class="cls-1" d="M578,96V60.25H566.41V95.71a6,6,0,0,0,6,6h28.39V96Z"/><rect class="cls-1" x="354.54" y="89.13" width="31.41" height="5.78"/><polygon class="cls-1" points="357.6 101.75 345.96 101.75 360.62 60.25 372.26 60.25 357.6 101.75"/><polygon class="cls-1" points="382.89 101.75 394.53 101.75 379.87 60.25 368.23 60.25 382.89 101.75"/><rect class="cls-1" x="522.74" y="89.13" width="31.41" height="5.78"/><polygon class="cls-1" points="525.8 101.75 514.16 101.75 528.83 60.25 540.47 60.25 525.8 101.75"/><polygon class="cls-1" points="551.1 101.75 562.74 101.75 548.07 60.25 536.43 60.25 551.1 101.75"/></svg>