<svg id="图层_1" data-name="图层 1" xmlns="http://www.w3.org/2000/svg" viewBox="0 0 340.16 368.5"><defs><style>.cls-1{fill:#d02928;}.cls-2{fill:#fff;}</style></defs><path class="cls-1" d="M161.28,165.56l-54.43,29.25a1.08,1.08,0,0,1-1.58-.95V9.12a1.08,1.08,0,0,1,1.58-.95l54.43,29.25a1.07,1.07,0,0,1,.56.95V164.61A1.07,1.07,0,0,1,161.28,165.56Z"/><path class="cls-1" d="M178.88,165.56l54.43,29.25a1.08,1.08,0,0,0,1.58-.95V9.12a1.08,1.08,0,0,0-1.58-.95L178.88,37.42a1.08,1.08,0,0,0-.57.95V164.61A1.08,1.08,0,0,0,178.88,165.56Z"/><rect class="cls-2" x="119.23" y="242.28" width="11.68" height="66.31"/><polygon class="cls-2" points="100.57 246.69 111.39 246.69 114.41 296.47 103.59 296.47 100.57 246.69"/><polygon class="cls-2" points="167.03 246.69 156.22 246.69 153.2 296.47 164.02 296.47 167.03 246.69"/><rect class="cls-2" x="136.69" y="242.28" width="11.68" height="66.31"/><rect class="cls-2" x="100.57" y="302.01" width="66.47" height="6.59"/><polygon class="cls-2" points="203.03 269.51 215.74 269.51 185.5 308.59 172.79 308.59 203.03 269.51"/><polygon class="cls-2" points="209.02 269.51 196.31 269.51 226.55 308.59 239.26 308.59 209.02 269.51"/><rect class="cls-2" x="200.13" y="242.28" width="11.68" height="33.82"/><rect class="cls-2" x="172.79" y="269.51" width="66.47" height="6.59"/><rect class="cls-2" x="175.67" y="242.28" width="60.61" height="6.59"/><rect class="cls-2" x="35.03" y="256.99" width="11.68" height="25.06"/><polygon class="cls-2" points="36.67 242.28 49.38 242.28 41.06 262.25 28.35 262.25 36.67 242.28"/><rect class="cls-2" x="55.74" y="284.15" width="11.68" height="24.45"/><rect class="cls-2" x="28.35" y="289.88" width="66.47" height="6.59"/><path class="cls-2" d="M75.51,275.47V242.28H63.83V273.9A8.16,8.16,0,0,0,72,282.06H94.81v-6.59Z"/><polygon class="cls-2" points="51.03 264.62 94.81 246.69 94.81 253.98 51.03 271.9 51.03 264.62"/><polygon class="cls-2" points="296.7 242.28 283.99 242.28 297.66 308.59 310.37 308.59 296.7 242.28"/><path class="cls-2" d="M300.6,242.28V249H253.5a8.17,8.17,0,0,0-8.16,8.16v51.46H257v-53h45.2a8.15,8.15,0,0,0,8.15-8.15v-5.13Z"/><path class="cls-2" d="M245.34,264.72v6.59h22.35V302h-4.54v6.58h8.07a8.16,8.16,0,0,0,8.15-8.16V272.88a8.15,8.15,0,0,0-8.15-8.16Z"/><polygon class="cls-2" points="283.12 296.09 311.81 264.72 311.81 277.23 283.12 308.59 283.12 296.09"/><rect class="cls-2" x="28.35" y="324.16" width="7.28" height="25.95"/><rect class="cls-2" x="28.35" y="335.21" width="24.88" height="3.61"/><rect class="cls-2" x="45.95" y="324.16" width="7.28" height="25.95"/><rect class="cls-2" x="96.54" y="324.16" width="7.28" height="25.95"/><rect class="cls-2" x="87.74" y="324.16" width="24.88" height="3.61"/><polygon class="cls-2" points="69.08 361.18 62.2 361.18 77.93 335.21 84.81 335.21 69.08 361.18"/><polygon class="cls-2" points="72.89 345.81 66.01 335.21 59.13 335.21 69.9 351.8 72.89 345.81"/><rect class="cls-2" x="186.52" y="324.16" width="7.21" height="25.7"/><rect class="cls-2" x="218.15" y="324.16" width="7.21" height="25.7"/><rect class="cls-2" x="241.06" y="324.16" width="7.21" height="25.7"/><rect class="cls-2" x="232.34" y="324.16" width="24.64" height="3.58"/><path class="cls-2" d="M186.52,324.16v3.57H204v9.94H186.52v3.58h20.9a3.75,3.75,0,0,0,3.74-3.75v-9.6a3.74,3.74,0,0,0-3.74-3.74Z"/><path class="cls-2" d="M150.93,327.73v-3.57H133.36a3.74,3.74,0,0,0-3.75,3.74v18.21a3.74,3.74,0,0,0,3.75,3.74h17.57v-3.58H136.82V327.73Z"/><path class="cls-2" d="M297.7,346.27V324.16h-7.21v21.95a3.74,3.74,0,0,0,3.74,3.74h17.58v-3.58Z"/><rect class="cls-2" x="159.33" y="342.04" width="19.45" height="3.58"/><polygon class="cls-2" points="161.22 349.85 154.01 349.85 163.09 324.15 170.3 324.15 161.22 349.85"/><polygon class="cls-2" points="176.88 349.85 184.09 349.85 175.01 324.15 167.8 324.15 176.88 349.85"/><rect class="cls-2" x="263.46" y="342.04" width="19.45" height="3.58"/><polygon class="cls-2" points="265.35 349.85 258.15 349.85 267.23 324.15 274.43 324.15 265.35 349.85"/><polygon class="cls-2" points="281.02 349.85 288.22 349.85 279.14 324.15 271.94 324.15 281.02 349.85"/></svg>