<svg xmlns="http://www.w3.org/2000/svg" viewBox="0 0 148.6 32.98"><defs><style>.cls-1{fill:#a1291f;}</style></defs><g id="图层_2" data-name="图层 2"><g id="图层_1-2" data-name="图层 1"><polygon class="cls-1" points="9.91 27.66 0 32.98 0 0 9.91 5.32 9.91 27.66"/><polygon class="cls-1" points="12.79 27.66 22.7 32.98 22.7 0 12.79 5.32 12.79 27.66"/><rect class="cls-1" x="30.86" y="11.17" width="2.97" height="10.6"/><rect class="cls-1" x="30.86" y="15.68" width="10.16" height="1.48"/><rect class="cls-1" x="56.19" y="18.55" width="8.02" height="1.48"/><rect class="cls-1" x="38.05" y="11.17" width="2.97" height="10.6"/><rect class="cls-1" x="96.91" y="11.17" width="2.97" height="10.6"/><rect class="cls-1" x="109.96" y="11.17" width="2.97" height="10.6"/><rect class="cls-1" x="119.41" y="11.17" width="2.97" height="10.6"/><rect class="cls-1" x="115.81" y="11.17" width="10.16" height="1.48"/><path class="cls-1" d="M96.91,11.17v1.47h7.19v4.1H96.91v1.48h8.62a1.54,1.54,0,0,0,1.54-1.55v-4a1.54,1.54,0,0,0-1.54-1.54Z"/><path class="cls-1" d="M50.06,11.17v9.12H45.84V11.17h-3v9a1.54,1.54,0,0,0,1.54,1.55h7.08A1.54,1.54,0,0,0,53,20.22v-9Z"/><path class="cls-1" d="M82.23,12.64V11.17H75a1.55,1.55,0,0,0-1.55,1.54v7.51A1.55,1.55,0,0,0,75,21.77h7.25V20.29H76.41V12.64Z"/><path class="cls-1" d="M142.77,20.29V11.17h-3v9a1.54,1.54,0,0,0,1.55,1.55h7.25V20.29Z"/><polygon class="cls-1" points="56.97 21.77 54 21.77 57.74 11.17 60.72 11.17 56.97 21.77"/><polygon class="cls-1" points="63.43 21.77 66.41 21.77 62.66 11.17 59.69 11.17 63.43 21.77"/><rect class="cls-1" x="85.69" y="18.55" width="8.02" height="1.48"/><polygon class="cls-1" points="86.47 21.77 83.5 21.77 87.25 11.17 90.22 11.17 86.47 21.77"/><polygon class="cls-1" points="92.93 21.77 95.91 21.77 92.16 11.17 89.19 11.17 92.93 21.77"/><rect class="cls-1" x="128.65" y="18.55" width="8.02" height="1.48"/><polygon class="cls-1" points="129.43 21.77 126.46 21.77 130.21 11.17 133.18 11.17 129.43 21.77"/><polygon class="cls-1" points="135.89 21.77 138.87 21.77 135.12 11.17 132.15 11.17 135.89 21.77"/></g></g></svg>