<svg xmlns="http://www.w3.org/2000/svg" viewBox="0 0 127.69 124.09"><defs><style>.cls-1{fill:#a2291f;}.cls-2,.cls-3{fill:none;stroke:#a2291f;stroke-width:3px;}.cls-2{stroke-linejoin:round;}.cls-3{stroke-miterlimit:10;}</style></defs><g id="图层_2" data-name="图层 2"><g id="图层_2-2" data-name="图层 2"><polygon class="cls-1" points="115.91 67.21 115.91 115.76 119.04 115.76 119.04 64.08 113.22 64.08 113.22 58.25 102.32 58.25 102.32 64.08 96.49 64.08 96.49 115.76 99.63 115.76 99.63 67.21 105.45 67.21 105.45 61.39 110.08 61.39 110.08 67.21 115.91 67.21"/><rect class="cls-1" x="106.2" y="71.85" width="3.13" height="43.91"/><path class="cls-1" d="M126.81,115.76V50.49h-3.88V43.67L113.22,34V20.05l-3.88-1.94V3.88H106.2V18.11l-3.88,1.94V34l-9.71,9.71v6.82H88.73v65.27h3.13V53.62h31.82v62.14ZM105.45,21.92l2.32-1.16,2.32,1.16v3.32h-4.64Zm0,6.46h4.64V33h-4.64Zm-.94,7.76H111l6.58,6.58H97.93Zm-4.13,14.35H95.74V45.85h4.64Zm11.65,0h-8.52V45.85H112Zm7.76,0h-4.63V45.85h4.63Z"/><path class="cls-1" d="M72.93,5.18l1.71,11.55h2l1.94,21.36h1.59v77.67h3.13V35h-2.1l-2-21.36H77.29L76.08,4.72A5.65,5.65,0,0,0,70.62,0H58a5.49,5.49,0,0,0-5.45,4.72l-1.41,8.87H49.22L47.28,35H45.17v80.81h3.14V38.09h1.78L52,16.73h2L55.69,5.2A2.46,2.46,0,0,1,58,3.13h4.65V9h3.13V3.13h4.84A2.44,2.44,0,0,1,72.93,5.18Z"/><rect class="cls-1" x="58.77" y="13.59" width="10.9" height="3.13"/><rect class="cls-1" x="58.77" y="21.36" width="3.13" height="8.96"/><rect class="cls-1" x="66.53" y="21.36" width="3.13" height="8.96"/><rect class="cls-1" x="52.94" y="50.49" width="22.55" height="3.13"/><rect class="cls-1" x="54.88" y="40.78" width="3.13" height="5.08"/><rect class="cls-1" x="62.65" y="40.78" width="3.13" height="5.08"/><rect class="cls-1" x="70.42" y="40.78" width="3.13" height="5.08"/><rect class="cls-1" x="52.94" y="73.79" width="22.55" height="3.13"/><rect class="cls-1" x="54.88" y="64.08" width="3.13" height="5.08"/><rect class="cls-1" x="62.65" y="64.08" width="3.13" height="5.08"/><rect class="cls-1" x="70.42" y="64.08" width="3.13" height="5.08"/><rect class="cls-1" x="52.94" y="97.09" width="22.55" height="3.13"/><rect class="cls-1" x="54.88" y="87.38" width="3.13" height="5.08"/><rect class="cls-1" x="62.65" y="87.38" width="3.13" height="5.08"/><rect class="cls-1" x="70.42" y="87.38" width="3.13" height="5.08"/><g id="g1012"><g id="g1018"><path id="path1020" class="cls-2" d="M38.15,61.56,20.37,52.67v62.22H38.15Z"/></g><g id="g1022"><path id="path1024" class="cls-2" d="M38.15,114.89,20.37,106l17.78-8.89L20.37,88.22l17.78-8.88L20.37,70.45l17.78-8.89"/></g><g id="g1026"><path id="path1028" class="cls-2" d="M20.37,43.49v9.18"/></g><g id="g1030"><path id="path1032" class="cls-2" d="M2.59,79.34l17.78-8.89v44.44H2.59Z"/></g><g id="g1034"><path id="path1036" class="cls-2" d="M2.59,114.89,20.37,106,2.59,97.11l17.78-8.89L2.59,79.34"/></g><g id="g1042"><path id="path1044" class="cls-2" d="M19,17.24a5.93,5.93,0,1,0-11.85,0,4.45,4.45,0,0,0,0,8.89H19a4.45,4.45,0,1,0,0-8.89Z"/></g></g><rect class="cls-3" x="1.5" y="116.24" width="124.69" height="6.35" rx="0.58"/></g></g></svg>