<svg xmlns="http://www.w3.org/2000/svg" xmlns:xlink="http://www.w3.org/1999/xlink" fill="none" version="1.1" width="52.00048828125" height="52" viewBox="0 0 52.00048828125 52"><g><g><rect x="13.08056640625" y="33.994476318359375" width="1.445435881614685" height="1.445435881614685" rx="0" fill="#FFFFFF" fill-opacity="1"/></g><g><rect x="9.583251953125" y="33.994476318359375" width="1.445435881614685" height="1.445435881614685" rx="0" fill="#FFFFFF" fill-opacity="1"/></g><g><rect x="13.08056640625" y="30.5147705078125" width="1.445435881614685" height="1.445435881614685" rx="0" fill="#FFFFFF" fill-opacity="1"/></g><g><rect x="9.583251953125" y="30.5147705078125" width="1.445435881614685" height="1.445435881614685" rx="0" fill="#FFFFFF" fill-opacity="1"/></g><g><rect x="13.08056640625" y="37.474273681640625" width="1.445435881614685" height="1.445435881614685" rx="0" fill="#FFFFFF" fill-opacity="1"/></g><g><rect x="9.583251953125" y="37.474273681640625" width="1.445435881614685" height="1.445435881614685" rx="0" fill="#FFFFFF" fill-opacity="1"/></g><g><rect x="13.08056640625" y="40.971832275390625" width="1.445435881614685" height="1.445435881614685" rx="0" fill="#FFFFFF" fill-opacity="1"/></g><g><rect x="9.583251953125" y="40.971832275390625" width="1.445435881614685" height="1.445435881614685" rx="0" fill="#FFFFFF" fill-opacity="1"/></g><g><rect x="13.08056640625" y="44.451629638671875" width="1.445435881614685" height="1.445435881614685" rx="0" fill="#FFFFFF" fill-opacity="1"/></g><g><rect x="9.583251953125" y="44.451629638671875" width="1.445435881614685" height="1.445435881614685" rx="0" fill="#FFFFFF" fill-opacity="1"/></g><g><rect x="10.45751953125" y="24.41180419921875" width="3.176389694213867" height="1.445435881614685" rx="0" fill="#FFFFFF" fill-opacity="1"/></g><g><rect x="3.47998046875" y="35.743316650390625" width="1.445435881614685" height="4.0507893562316895" rx="0" fill="#FFFFFF" fill-opacity="1"/></g><g><rect x="3.47998046875" y="41.846282958984375" width="1.445435881614685" height="4.0507893562316895" rx="0" fill="#FFFFFF" fill-opacity="1"/></g><g><path d="M5.3533896875,6.852429462890624L5.3533896875,6.977339462890625L4.6395896875,6.977339462890625C3.0610096875,7.006369462890625,1.7938266675,8.289389462890625,1.7844075185,9.868209462890626L1.7844075185,11.170889462890624C1.7743753875,11.572059462890625,2.0969096875,11.902649462890626,2.4982026875,11.902529462890625L9.4398596875,11.902529462890625C10.5968696875,11.890699462890625,11.6989596875,11.407329462890626,12.4913796875,10.564159462890625C13.2927796875,9.715759462890624,13.7006796875,8.569589462890626,13.6155796875,7.405619462890625C13.4297796875,5.348309462890625,11.7850796875,3.726199462890625,9.7253796875,3.568965632890625C7.6590896875,3.440034462890625,5.8055396875,4.832089462890625,5.3533896875,6.852429462890624ZM9.4398596875,4.925179462890625L9.636159687500001,4.925179462890625C11.1537196875,5.048599462890625,12.2905796875,6.368319462890625,12.1879796875,7.887429462890625C12.0937796875,9.335069462890626,10.8905596875,10.460149462890625,9.4398596875,10.457089462890625L3.1763096875,10.457089462890625L3.1763096875,9.868209462890626C3.1763096875,9.060059462890624,3.8314396875,8.404929462890625,4.6395896875,8.404929462890625L5.9422696875,8.404929462890625C6.3434396875,8.414959462890625,6.6740296875,8.092429462890625,6.6739096875,7.691129462890625C6.6739096875,6.1635394628906255,7.9122696875,4.925179462890625,9.4398596875,4.925179462890625Z" fill="#FFFFFF" fill-opacity="1"/></g><g><rect x="36.617919921875" y="40.09747314453125" width="4.9251885414123535" height="1.445435881614685" rx="0" fill="#FFFFFF" fill-opacity="1"/></g><g><rect x="36.617919921875" y="44.451629638671875" width="4.9251885414123535" height="1.445435881614685" rx="0" fill="#FFFFFF" fill-opacity="1"/></g><g><rect x="37.474609375" y="35.743316650390625" width="1.445435881614685" height="1.445435881614685" rx="0" fill="#FFFFFF" fill-opacity="1"/></g><g><rect x="40.971923828125" y="6.97735595703125" width="1.445435881614685" height="1.445435881614685" rx="0" fill="#FFFFFF" fill-opacity="1"/></g><g><rect x="40.971923828125" y="10.45709228515625" width="1.445435881614685" height="1.445435881614685" rx="0" fill="#FFFFFF" fill-opacity="1"/></g><g><rect x="40.971923828125" y="13.9547119140625" width="1.445435881614685" height="1.445435881614685" rx="0" fill="#FFFFFF" fill-opacity="1"/></g><g><rect x="40.971923828125" y="17.4344482421875" width="1.445435881614685" height="1.445435881614685" rx="0" fill="#FFFFFF" fill-opacity="1"/></g><g><rect x="40.971923828125" y="20.914215087890625" width="1.445435881614685" height="1.445435881614685" rx="0" fill="#FFFFFF" fill-opacity="1"/></g><g><path d="M52.000244140625,48.663C52.000344140625,48.2617,51.669744140625,47.9392,51.268644140625,47.9492L51.125844140625,47.9492L51.125844140625,33.1201L49.680444140625,33.1201L49.680444140625,47.9492L45.022944140625,47.9492L45.022944140625,23.1984L45.754544140625,23.1984L49.680444140625,27.1242L49.680444140625,31.0323L51.125844140625,31.0323L51.125844140625,26.8744C51.127944140625,26.6799,51.050644140625,26.493,50.911744140625,26.3569L46.557544140625,22.0027C46.421444140625,21.8638,46.234544140625,21.7865,46.040044140625,21.7886L45.022844140625,21.7886L45.022844140625,3.33699C45.022944140625,2.94278,44.703344140625,2.6232,44.309144140625,2.6232L39.080544140625,2.6232C38.721744140625,2.61106,38.412544140625,2.87385,38.366744140625,3.22992L32.353044140625,45.9506L32.353044140625,47.8778L30.871944140625,47.8778L29.355044140625,44.8264L29.462144140625,44.8264C30.985944140625,43.767,31.929244140625,42.0584,32.013944140625,40.2045L32.013944140625,40.0796L32.174544140625,40.0796L31.942544140625,40.0796L31.942544140625,39.7584C31.881044140625,37.5269,30.570344140625,35.5195,28.552044140625,34.5655L28.462844140625,34.5655L28.462844140625,24.2155C29.390544140625,23.5558,30.004144140625,22.5418,30.158144140625,21.4139C30.317444140625,20.3157,30.035144140625,19.1992,29.372944140625,18.3089C29.090044140625,17.9393,28.753144140625,17.6145,28.373644140625,17.3452L27.659844140625,8.77968C28.205644140625,8.32219,28.530244140625,7.6535,28.552044140625,6.94166C28.577044140625,6.2861,28.346744140625,5.64642,27.909644140625,5.15717C27.589044140625,4.84645,27.196844140625,4.61966,26.767544140625,4.49691L26.767544140625,4.46122L26.767544140625,0L25.339944140625,0L25.339944140625,4.46122L25.232944140625,4.46122C24.609644140625,4.67318,24.100244140625,5.13099,23.823144140625,5.72821C23.535344140625,6.31349,23.502944140625,6.99194,23.733944140625,7.60192C23.858844140625,7.98899,24.087144140625,8.33455,24.394244140625,8.60124L24.126544140625,11.7419L25.571944140625,11.8668L25.786144140625,9.19012L26.214344140625,9.19012L26.767544140625,16.6314L26.571244140625,16.6314C26.151944140625,16.5602,25.723644140625,16.5602,25.304344140625,16.6314L25.125844140625,16.6314L25.339944140625,14.0082L23.912344140625,13.8833L23.626844140625,17.256C21.648244140625,18.5703,21.147444140625,21.26,22.520444140625,23.1984C22.784044140625,23.5717,23.102944140625,23.9026,23.466244140625,24.1798L23.466244140625,34.5299C21.470344140625,35.4722,20.163644140625,37.4459,20.075744140625,39.6513L20.075744140625,40.1688C20.160444140625,42.0227,21.103844140625,43.7313,22.627544140625,44.7907L22.734644140625,44.7907L21.217844140625,47.8421L18.005744140625,47.8421L18.005744140625,32.1386L16.560344140625,32.1386L16.560344140625,47.8421L7.637854140625,47.8421L7.637854140625,28.5518L16.560344140625,28.5518L16.560344140625,30.3363L18.005744140625,30.3363L18.005744140625,27.7488C18.005744140625,27.3447,17.678144140625,27.0172,17.274144140625,27.0172L17.131344140625,27.0172L17.131344140625,24.2512C17.148044140625,24.1448,17.148044140625,24.0364,17.131344140625,23.93L16.256944140625,22.1455C16.128844140625,21.9088,15.883644140625,21.7589,15.614544140625,21.7529L15.221944140625,21.7529L14.490244140625,18.8085C14.414344140625,18.4878,14.123844140625,18.2643,13.794344140625,18.2732L12.777144140625,18.2732L12.777144140625,15.6857L11.331744140625,15.6857L11.331744140625,18.3089L10.314544140625,18.3089C9.985104140625,18.3,9.694584140625,18.5235,9.618634140625,18.8442L8.922684140625,21.7886L8.565794140625,21.7886C8.296694140625,21.7946,8.051484140625,21.9445,7.923374140625,22.1812L7.048974140625,23.9657C7.023924140625,24.0713,7.023924140625,24.1813,7.048974140625,24.2869L7.048974140625,27.0529L6.816994140625,27.0529C6.415694140625,27.0527,6.093164140625,27.3833,6.103194140625,27.7845L6.103194140625,32.2814L1.588434140625,32.2814C1.187144140625,32.2813,0.864610140625,32.6119,0.874643140625,33.013L0.874643140625,39.7941L2.302234140625,39.7941L2.302234140625,33.6911L6.103194140625,33.6911L6.103194140625,47.9671L2.302234140625,47.9671L2.302234140625,41.8463L0.874644140625,41.8463L0.874644140625,47.9492L0.714040140625,47.9492C0.319821140625,47.9492,0.000244140625,48.2688,0.000244140625,48.663L0.000244140625,51.2684C-0.009788759375,51.6695,0.312745140625,52.0001,0.714040140625,52L51.268644140625,52C51.672644140625,52,52.000244140625,51.6724,52.000244140625,51.2684L52.000244140625,48.663ZM10.957044140625,19.7364L13.241144140625,19.7364L13.740844140625,21.7886L10.350244140625,21.7886L10.957044140625,19.7364ZM8.423034140625,24.394L9.011914140625,23.1984L15.097044140625,23.1984L15.685944140625,24.4296L15.685944140625,26.9815L8.405184140625,26.9815L8.423034140625,24.394ZM38.991344140625,9.08305L39.705144140625,4.06863L43.577444140625,4.06863L43.577444140625,37.3672L43.291944140625,36.7248C42.107244140625,34.0339,41.198444140625,31.2298,40.579544140625,28.3555C39.449844140625,23.1438,38.893344140625,17.8241,38.919944140625,12.4914C38.919944140625,11.3672,38.937744140625,10.2251,38.991344140625,9.08305ZM33.798444140625,46.1112L37.688644140625,18.3981L37.795744140625,19.7186C38.563044140625,28.2128,40.597344140625,35.5292,43.559644140625,40.3116L43.559644140625,47.9492L33.727044140625,47.9492L33.798444140625,46.1112ZM26.000244140625,7.85175C25.426444140625,7.86165,24.954044140625,7.40273,24.947444140625,6.82885C24.940844140625,6.25497,25.402444140625,5.78527,25.976344140625,5.78192C26.550344140625,5.77864,27.017444140625,6.24291,27.017444140625,6.81675C27.027444140625,7.38538,26.569144140625,7.85175,26.000244140625,7.85175ZM23.198644140625,20.7714C23.188144140625,19.281,24.367744140625,18.0538,25.857444140625,18.0055L26.053744140625,18.0055C27.581344140625,18.0055,28.819744140625,19.2439,28.819744140625,20.7714C28.819744140625,22.299,27.581344140625,23.5374,26.053744140625,23.5374L25.946744140625,23.5374C24.426144140625,23.5276,23.198644140625,22.2921,23.198644140625,20.7714ZM24.983044140625,31.3892L24.983044140625,30.2114L27.017444140625,30.2114L27.017444140625,31.3892L24.983044140625,31.3892ZM27.017444140625,32.8167L27.017444140625,33.9945L24.983044140625,33.9945L24.983044140625,32.8167L27.017444140625,32.8167ZM24.983044140625,28.766L24.983044140625,27.5882L27.017444140625,27.5882L27.017444140625,28.766L24.983044140625,28.766ZM24.983044140625,26.1428L24.983044140625,24.9828L27.017444140625,24.9828L27.017444140625,26.1428L24.983044140625,26.1428ZM22.395544140625,37.2423C24.195544140625,34.8941,27.733544140625,34.8941,29.533544140625,37.2423L29.711944140625,37.4743L22.217144140625,37.4743L22.395544140625,37.2423ZM21.574744140625,40.8113L21.574744140625,40.4187L21.574744140625,40.3116L21.717444140625,40.3116L21.574744140625,40.3116L21.574744140625,40.1867L21.735344140625,40.1867L21.414144140625,40.1867L21.414144140625,39.9547L21.574744140625,39.9547L21.414144140625,39.9547L21.574744140625,39.9547L21.414144140625,39.9547L21.414144140625,39.8655L21.556844140625,39.8655L21.414144140625,39.8655L21.574744140625,39.8655L21.414144140625,39.8655C21.414144140625,39.7049,21.414144140625,39.58,21.414144140625,39.4551L21.414144140625,39.3301L30.336544140625,39.3301L30.336544140625,39.4551C30.336544140625,39.6157,30.336544140625,39.7941,30.336544140625,39.9547L30.336544140625,40.1332L30.193844140625,40.1332L30.336544140625,40.1332L30.336544140625,40.5257L30.193844140625,40.5257L30.336544140625,40.5257L30.336544140625,40.6507C30.336544140625,40.8291,30.336544140625,41.0076,30.336544140625,41.1682L30.336544140625,41.0432L21.610444140625,41.0432L21.574744140625,40.8113ZM22.395544140625,42.5957L22.217144140625,42.3459L29.783344140625,42.3459L29.604944140625,42.5957C28.105844140625,44.5815,25.286444140625,44.9877,23.287844140625,43.5058C22.954544140625,43.2601,22.654644140625,42.9722,22.395544140625,42.6493L22.395544140625,42.5957ZM29.194444140625,47.9492L26.767544140625,47.9492L26.767544140625,45.8614L26.910344140625,45.8614C27.256244140625,45.8181,27.597044140625,45.7404,27.927444140625,45.6294L28.052444140625,45.6294L29.194444140625,47.9492ZM25.286444140625,45.8614L25.286444140625,47.9492L22.806044140625,47.9492L24.001644140625,45.558L24.126544140625,45.558C24.457044140625,45.669,24.797744140625,45.7468,25.143644140625,45.79L25.286444140625,45.8614ZM50.554844140625,50.5546L1.445684140625,50.5546L1.445684140625,49.3768L50.554844140625,49.3768L50.554844140625,50.5546Z" fill="#FFFFFF" fill-opacity="1"/></g><g><rect x="46.200439453125" y="27.017181396484375" width="1.445435881614685" height="1.445435881614685" rx="0" fill="#FFFFFF" fill-opacity="1"/></g><g><rect x="46.200439453125" y="31.38916015625" width="2.301990270614624" height="1.445435881614685" rx="0" fill="#FFFFFF" fill-opacity="1"/></g><g><rect x="46.200439453125" y="35.743316650390625" width="2.301990270614624" height="1.445435881614685" rx="0" fill="#FFFFFF" fill-opacity="1"/></g><g><rect x="46.200439453125" y="40.09747314453125" width="2.301990270614624" height="1.445435881614685" rx="0" fill="#FFFFFF" fill-opacity="1"/></g><g><rect x="46.200439453125" y="44.451629638671875" width="2.301990270614624" height="1.445435881614685" rx="0" fill="#FFFFFF" fill-opacity="1"/></g></g></svg>