<svg xmlns="http://www.w3.org/2000/svg" viewBox="0 0 127.5 136.53"><defs><style>.cls-1{fill:#a2291f;}.cls-2,.cls-3,.cls-4,.cls-5{fill:none;stroke:#a2291f;stroke-miterlimit:10;}.cls-2{stroke-width:4.06px;}.cls-3{stroke-width:3.35px;}.cls-4{stroke-width:3.03px;}.cls-5{stroke-width:3.46px;}</style></defs><g id="图层_2" data-name="图层 2"><g id="图层_2-2" data-name="图层 2"><path class="cls-1" d="M127,83.9a270.81,270.81,0,0,0-4.12-31.28,11.63,11.63,0,0,0-11.45-9.55l-.43,0a10.81,10.81,0,0,0-10.32,9.69L96,98.26H87.74A3.77,3.77,0,0,0,84.25,102l.09,11.78H88V102H99.42l5-48.84a7.06,7.06,0,0,1,7-6.34,7.88,7.88,0,0,1,7.75,6.46,269,269,0,0,1,4.08,30.85l.11,2.11q.77,14.93,0,43.54l-.07,2.83H84.58v3.76h38.71a3.76,3.76,0,0,0,3.75-3.66l.15-5.6Q127.9,98.35,127,83.9ZM31.62,69a9.51,9.51,0,0,0-8.79-8.78,9.38,9.38,0,0,0-7.12,2.53,9.49,9.49,0,0,0-2.82,5H11.75a6.66,6.66,0,0,0-6.64,6.63v2.84A1.9,1.9,0,0,0,7,79.18H22.17a9.46,9.46,0,0,0,9.47-9.46C31.64,69.49,31.63,69.27,31.62,69Zm-5.29,4.54a5.65,5.65,0,0,1-4.16,1.81H8.91v-.94a2.84,2.84,0,0,1,2.84-2.85h2.83a1.9,1.9,0,0,0,1.9-1.9A5.68,5.68,0,0,1,22.17,64h.4a5.68,5.68,0,0,1,3.76,9.54Z"/><path class="cls-1" d="M99.31,100.15v33.38H95.55V100.15Z"/><rect class="cls-2" x="20.79" y="92.81" width="18.76" height="41.68" rx="2.58"/><rect class="cls-2" x="2.03" y="120.48" width="18.76" height="14.02" rx="2.58"/><line class="cls-2" x1="26.8" y1="102.06" x2="33.93" y2="102.06"/><line class="cls-3" x1="53.54" y1="73.16" x2="71.84" y2="73.16"/><line class="cls-3" x1="53.54" y1="64.03" x2="71.84" y2="64.03"/><line class="cls-3" x1="53.54" y1="51.5" x2="71.84" y2="51.5"/><line class="cls-4" x1="55.21" y1="40.97" x2="70.18" y2="40.97"/><line class="cls-2" x1="106" y1="59.8" x2="117.32" y2="59.8"/><line class="cls-2" x1="106" y1="69.31" x2="117.32" y2="69.31"/><line class="cls-2" x1="106" y1="78.82" x2="118.67" y2="78.82"/><line class="cls-2" x1="104.65" y1="88.32" x2="118.67" y2="88.32"/><line class="cls-2" x1="106" y1="97.83" x2="118.67" y2="97.83"/><line class="cls-2" x1="106" y1="107.33" x2="118.67" y2="107.33"/><line class="cls-2" x1="106" y1="116.84" x2="119.35" y2="116.84"/><line class="cls-2" x1="106" y1="126.34" x2="119.35" y2="126.34"/><line class="cls-3" x1="53.54" y1="81.96" x2="71.84" y2="81.96"/><line class="cls-3" x1="53.54" y1="90.77" x2="71.84" y2="90.77"/><line class="cls-3" x1="53.54" y1="99.57" x2="71.84" y2="99.57"/><line class="cls-3" x1="53.54" y1="108.37" x2="71.84" y2="108.37"/><line class="cls-2" x1="26.8" y1="111.92" x2="33.93" y2="111.92"/><line class="cls-2" x1="26.8" y1="121.77" x2="33.93" y2="121.77"/><line class="cls-2" x1="7.84" y1="127.49" x2="14.98" y2="127.49"/><rect class="cls-5" x="65.14" y="113.79" width="27.42" height="20.7" rx="2.2"/><path class="cls-1" d="M63,26.53l12.6,11.59,3.26,18.3v55.36H69.32A6.35,6.35,0,0,0,63,118.13v14.5H47.14V56.42l3.26-18.3L63,26.53m0-5.09L46.94,36.22,43.4,56.09v80.29H66.72V118.13a2.6,2.6,0,0,1,2.6-2.6H82.61V56.09L79.08,36.22,63,21.44Z"/><polyline class="cls-3" points="63.01 23.64 55.52 40.67 52.58 56.98 52.58 134.5"/><polyline class="cls-3" points="62.69 23.64 70.18 40.67 73.12 56.98 73.12 113.66"/><line class="cls-4" x1="62.69" y1="26.7" x2="62.69"/></g></g></svg>