<svg xmlns="http://www.w3.org/2000/svg" viewBox="0 0 129.56 129.56"><defs><style>.cls-1{fill:#a2291f;stroke:#fff;stroke-miterlimit:10;stroke-width:0.75px;}</style></defs><g id="图层_2" data-name="图层 2"><g id="图层_2-2" data-name="图层 2"><g id="_20_copy_3" data-name=" 20 copy 3"><path class="cls-1" d="M32.58,84.1h4.29v4.3H32.58Z"/><path class="cls-1" d="M24,84.1h4.29v4.3H24Z"/><path class="cls-1" d="M32.58,75.52h4.29v4.29H32.58Z"/><path class="cls-1" d="M24,75.52h4.29v4.29H24Z"/><path class="cls-1" d="M32.58,92.69h4.29V97H32.58Z"/><path class="cls-1" d="M24,92.69h4.29V97H24Z"/><path class="cls-1" d="M32.58,101.28h4.29v4.29H32.58Z"/><path class="cls-1" d="M24,101.28h4.29v4.29H24Z"/><path class="cls-1" d="M32.58,109.87h4.29v4.29H32.58Z"/><path class="cls-1" d="M24,109.87h4.29v4.29H24Z"/><path class="cls-1" d="M26.14,60.49h8.59v4.29H26.14Z"/><path class="cls-1" d="M9,88.4h4.3V99.13H9Z"/><path class="cls-1" d="M9,103.43h4.3v10.73H9Z"/><path class="cls-1" d="M6.82,30.43H24A10.73,10.73,0,1,0,13.47,17.55H12.18a7.51,7.51,0,0,0-7.51,7.51v3.22A2.15,2.15,0,0,0,6.82,30.43ZM9,25.06a3.24,3.24,0,0,1,3.22-3.22H15.4a2.14,2.14,0,0,0,2.15-2.14A6.44,6.44,0,0,1,24,13.26h.46A6.44,6.44,0,0,1,28.7,24.09,6.37,6.37,0,0,1,24,26.14H9Z"/><path class="cls-1" d="M90.54,99.13h12.89v4.3H90.54Z"/><path class="cls-1" d="M90.54,109.87h12.89v4.29H90.54Z"/><path class="cls-1" d="M92.69,88.4H97v4.29H92.69Z"/><path class="cls-1" d="M101.28,17.55h4.29v4.29h-4.29Z"/><path class="cls-1" d="M101.28,26.14h4.29v4.29h-4.29Z"/><path class="cls-1" d="M101.28,34.73h4.29V39h-4.29Z"/><path class="cls-1" d="M101.28,43.31h4.29v4.3h-4.29Z"/><path class="cls-1" d="M101.28,51.9h4.29v4.29h-4.29Z"/><path class="cls-1" d="M127,118.45V82h-4.29v36.49H112V58.34h1.26l9.48,9.48v9.84H127V66.93a2.16,2.16,0,0,0-.63-1.52L115.68,54.68a2.12,2.12,0,0,0-1.52-.63H112V9a2.14,2.14,0,0,0-2.14-2.14H97a2.13,2.13,0,0,0-2.12,1.84L80.08,113.86a1.5,1.5,0,0,0,0,.22l-.17,4.37h-3l-3.49-7A15,15,0,0,0,79.8,99.78h0c0-.1,0-.21,0-.31h0V98.8c0-.1,0-.2,0-.3h0a15.08,15.08,0,0,0-8.58-12.94V60.48a10.71,10.71,0,0,0,2.15-15,10.53,10.53,0,0,0-2.52-2.42L69.12,22.31a6.44,6.44,0,0,0-2.19-10.83V.38h-4.3v11.1a6.43,6.43,0,0,0-3.92,8.21,6.5,6.5,0,0,0,1.73,2.62l-.66,7.94,4.28.36L64.61,24H65l1.44,17.3a10.86,10.86,0,0,0-3.22,0l.53-6.39-4.28-.35-.71,8.5a10.72,10.72,0,0,0-.37,17.43V85.55a15.06,15.06,0,0,0-8.57,12.94h0c0,.1,0,.2,0,.3v.65h0c0,.11,0,.21,0,.31h0a15,15,0,0,0,6.44,11.69l-3.49,7H45.46V79.81H41.17v38.64H19.7V71.22H41.17v4.3h4.29V69.08a2.15,2.15,0,0,0-2.15-2.15V60.49a2.25,2.25,0,0,0-.22-1l-2.15-4.3A2.15,2.15,0,0,0,39,54.05h-.47l-1.74-7a2.15,2.15,0,0,0-2.08-1.63H32.58V39h-4.3v6.44H26.14a2.15,2.15,0,0,0-2.09,1.63l-1.74,7h-.47a2.16,2.16,0,0,0-1.92,1.18l-2.14,4.3a2.12,2.12,0,0,0-.23,1v6.44a2.15,2.15,0,0,0-2.15,2.15V79.81H4.67A2.15,2.15,0,0,0,2.52,82V99.13h4.3v-15H15.4v34.35H6.82v-15H2.52v15A2.14,2.14,0,0,0,.38,120.6V127a2.14,2.14,0,0,0,2.14,2.15H127a2.15,2.15,0,0,0,2.15-2.15V120.6a2.15,2.15,0,0,0-2.15-2.15ZM27.81,49.75h5.24l1.07,4.3H26.74ZM21.84,61l1.33-2.65H37.69L39,61v5.94H21.84ZM97.16,23.15l1.69-12h8.87V91a107.61,107.61,0,0,1-6.66-20.55A180.18,180.18,0,0,1,97,31.5c0-2.76.06-5.57.18-8.35Zm-12.82,91.2,7.23-51.42.6-4.29,1.31-9.28c1.85,20.7,6.88,39,14.24,50.87v18.22H84.19ZM64.78,19.7a2.15,2.15,0,1,1,2.15-2.15A2.15,2.15,0,0,1,64.78,19.7ZM58.34,51.9a6.45,6.45,0,0,1,6.18-6.44H65a6.45,6.45,0,1,1-6.7,6.44Zm4.29,25.76V75.52h4.3v2.14Zm4.3,4.3V84.1h-4.3V82Zm-4.3-10.74V69.08h4.3v2.14Zm0-6.44V62.63h4.3v2.15ZM64.78,88.4a10.71,10.71,0,0,1,8.58,4.29H56.2a10.71,10.71,0,0,1,8.58-4.29ZM54.12,100.35h0s0-.08,0-.13h0s0-.08,0-.12v-.3s0-.07,0-.1v-.89a.17.17,0,0,0,0-.07v-.13s0-.07,0-.11v-.42h0s0-.09,0-.13h0c0-.32.08-.63.14-.94h21q.12.6.18,1.2h0a.57.57,0,0,0,0,.13v0a.37.37,0,0,0,0,.11v1.36a.41.41,0,0,0,0,.11v0a.49.49,0,0,0,0,.12h0q-.06.6-.18,1.2h-21c-.06-.31-.11-.62-.14-.93Zm2.08,5.22H73.36a10.72,10.72,0,0,1-17.16,0ZM72,118.45H66.93V114a15.13,15.13,0,0,0,2.58-.61ZM62.63,114v4.44H57.52l2.53-5A15.35,15.35,0,0,0,62.63,114Zm62.26,10.88H4.67v-2.14H124.89Z"/><path class="cls-1" d="M114.16,66.93h4.29v4.29h-4.29Z"/><path class="cls-1" d="M114.16,77.66h6.44V82h-6.44Z"/><path class="cls-1" d="M114.16,88.4h6.44v4.29h-6.44Z"/><path class="cls-1" d="M114.16,99.13h6.44v4.3h-6.44Z"/><path class="cls-1" d="M114.16,109.87h6.44v4.29h-6.44Z"/></g></g></g></svg>